<svg xmlns="http://www.w3.org/2000/svg" xmlns:xlink="http://www.w3.org/1999/xlink" width="135" height="40" viewBox="0 0 135 40">
  <defs>
    <clipPath id="clip-path">
      <path id="Path_50" data-name="Path 50" d="M137-41H262a5,5,0,0,1,5,5V-6a5,5,0,0,1-5,5H137a5,5,0,0,1-5-5V-36A5,5,0,0,1,137-41Z" fill="none"/>
    </clipPath>
    <clipPath id="clip-path-2">
      <path id="Path_49" data-name="Path 49" d="M-249,6966H1191V-772H-249Z" fill="none"/>
    </clipPath>
    <clipPath id="clip-path-3">
      <path id="Path_53" data-name="Path 53" d="M200.14-19.25a4.25,4.25,0,0,0-4.23,4.263,4.25,4.25,0,0,0,4.257,4.237A4.25,4.25,0,0,0,204.41-15a4.19,4.19,0,0,0-1.234-3.031,4.19,4.19,0,0,0-3.036-1.219Zm0,6.83a2.58,2.58,0,0,1-2.508-1.462,2.58,2.58,0,0,1,.439-2.869,2.58,2.58,0,0,1,2.83-.645A2.58,2.58,0,0,1,202.54-15a2.46,2.46,0,0,1-.656,1.8,2.46,2.46,0,0,1-1.744.784Zm-9.31-6.83a4.25,4.25,0,0,0-4.24,4.257,4.25,4.25,0,0,0,4.253,4.243A4.25,4.25,0,0,0,195.09-15a4.19,4.19,0,0,0-1.234-3.031,4.19,4.19,0,0,0-3.036-1.219Zm0,6.83a2.58,2.58,0,0,1-2.515-1.454,2.58,2.58,0,0,1,.432-2.872,2.58,2.58,0,0,1,2.831-.65A2.58,2.58,0,0,1,193.22-15a2.46,2.46,0,0,1-.656,1.8,2.46,2.46,0,0,1-1.744.784Zm-11.09-5.52v1.8h4.32a3.77,3.77,0,0,1-1,2.27,4.42,4.42,0,0,1-3.33,1.32,4.8,4.8,0,0,1-4.8-4.8,4.8,4.8,0,0,1,4.8-4.8A4.6,4.6,0,0,1,183-20.86l1.27-1.27A6.29,6.29,0,0,0,179.74-24a6.61,6.61,0,0,0-5.938,3.226,6.61,6.61,0,0,0,0,6.758,6.61,6.61,0,0,0,5.938,3.226,6,6,0,0,0,4.61-1.85,6,6,0,0,0,1.56-4.22,5.876,5.876,0,0,0-.1-1.13Zm45.31,1.4a4,4,0,0,0-3.64-2.71,4,4,0,0,0-2.921,1.259A4,4,0,0,0,217.41-15a4.16,4.16,0,0,0,1.207,3.022,4.16,4.16,0,0,0,3.013,1.228,4.23,4.23,0,0,0,3.54-1.88l-1.45-1a2.43,2.43,0,0,1-2.09,1.18,2.16,2.16,0,0,1-2.06-1.29l5.69-2.35Zm-5.8,1.42a2.33,2.33,0,0,1,.589-1.706,2.33,2.33,0,0,1,1.631-.774,1.65,1.65,0,0,1,1.58.9ZM214.63-11h1.87V-23.5h-1.87Zm-3.06-7.3h-.07a3,3,0,0,0-2.24-1,4.26,4.26,0,0,0-4.054,4.255,4.26,4.26,0,0,0,4.054,4.255,2.9,2.9,0,0,0,2.24-1h.06v.61c0,1.63-.87,2.5-2.27,2.5a2.35,2.35,0,0,1-2.14-1.51l-1.63.68A4.05,4.05,0,0,0,209.29-7c2.19,0,4-1.29,4-4.43V-19h-1.72Zm-2.14,5.88A2.59,2.59,0,0,1,207.067-15a2.59,2.59,0,0,1,2.363-2.58,2.4,2.4,0,0,1,1.679.812A2.4,2.4,0,0,1,211.7-15a2.38,2.38,0,0,1-.588,1.778,2.38,2.38,0,0,1-1.692.8ZM233.81-23.5h-4.47V-11h1.87v-4.74h2.61a3.89,3.89,0,0,0,3.6-1.855,3.89,3.89,0,0,0,0-4.05,3.89,3.89,0,0,0-3.6-1.855Zm0,6H231.2v-4.26h2.65a2.145,2.145,0,0,1,2.145,2.145,2.145,2.145,0,0,1-2.145,2.145Zm11.53-1.8a3.5,3.5,0,0,0-3.33,1.91l1.66.69a1.77,1.77,0,0,1,1.7-.92,1.8,1.8,0,0,1,1.338.386,1.8,1.8,0,0,1,.662,1.224v.13a4.13,4.13,0,0,0-1.95-.48c-1.79,0-3.6,1-3.6,2.81a2.89,2.89,0,0,0,.969,2.03,2.89,2.89,0,0,0,2.131.72,2.63,2.63,0,0,0,2.4-1.2h.06v1h1.8v-4.81c0-2.19-1.66-3.46-3.79-3.46Zm-.23,6.85c-.61,0-1.46-.31-1.46-1.06,0-1,1.06-1.33,2-1.33a3.32,3.32,0,0,1,1.7.42,2.26,2.26,0,0,1-2.19,2ZM255.74-19l-2.14,5.42h-.06L251.32-19h-2l3.33,7.58-1.9,4.21h1.95L257.82-19Zm-16.81,8h1.87V-23.5h-1.87Z" fill="none"/>
    </clipPath>
    <clipPath id="clip-path-5">
      <path id="Path_56" data-name="Path 56" d="M179.42-30.76a2.71,2.71,0,0,1-.75,2,2.91,2.91,0,0,1-2.2.89,3.15,3.15,0,0,1-2.888-1.951,3.15,3.15,0,0,1,.678-3.419,3,3,0,0,1,2.21-.9,3.1,3.1,0,0,1,1.23.25,2.469,2.469,0,0,1,.94.67l-.53.53a2,2,0,0,0-1.64-.71,2.32,2.32,0,0,0-1.676.7,2.32,2.32,0,0,0-.654,1.7,2.36,2.36,0,0,0,1.423,2.2,2.36,2.36,0,0,0,2.577-.469,1.89,1.89,0,0,0,.5-1.22h-2.17v-.72h2.91a2.534,2.534,0,0,1,.04.45Zm4.58-2.5h-2.7v1.9h2.46v.72H181.3v1.9H184V-28h-3.5v-6H184ZM187.28-28h-.77v-5.26h-1.68V-34H189v.74h-1.72Zm4.66,0v-6h.77v6Zm4.19,0h-.77v-5.26h-1.68V-34h4.12v.74h-1.67Zm9.48-.78a3.12,3.12,0,0,1-4.4,0,3.24,3.24,0,0,1,0-4.45,3.1,3.1,0,0,1,2.2-.916,3.1,3.1,0,0,1,2.2.916,3.23,3.23,0,0,1,0,4.45Zm-3.83-.5a2.31,2.31,0,0,0,3.26,0,2.56,2.56,0,0,0,0-3.44,2.31,2.31,0,0,0-3.26,0,2.56,2.56,0,0,0,0,3.44Zm5.8,1.28v-6h.94l2.92,4.67V-34h.77v6h-.8l-3.05-4.89V-28Z" fill="none"/>
    </clipPath>
    <clipPath id="clip-path-7">
      <path id="Path_62" data-name="Path 62" d="M142.44-33.46a2,2,0,0,0-.46,1.4V-9.94a2,2,0,0,0,.46,1.4l.07.07L154.9-20.85v-.29L142.51-33.53Z" fill="none"/>
    </clipPath>
    <linearGradient id="linear-gradient" x1="0.532" y1="0.202" x2="0.532" y2="24.583" gradientUnits="objectBoundingBox">
      <stop offset="0"/>
      <stop offset="0" stop-color="#00a0ff"/>
      <stop offset="0.1" stop-color="#00abff"/>
      <stop offset="0.2" stop-color="#00b7ff"/>
      <stop offset="0.3" stop-color="#00c1ff"/>
      <stop offset="0.4" stop-color="#00c9ff"/>
      <stop offset="0.5" stop-color="#00d1ff"/>
      <stop offset="0.6" stop-color="#00d7ff"/>
      <stop offset="0.7" stop-color="#00dcff"/>
      <stop offset="0.8" stop-color="#00e0ff"/>
      <stop offset="0.9" stop-color="#00e1ff"/>
      <stop offset="1" stop-color="#00e3ff"/>
      <stop offset="1"/>
    </linearGradient>
    <linearGradient id="linear-gradient-2" x1="0.576" y1="0.231" x2="0.513" y2="0.631" gradientUnits="objectBoundingBox">
      <stop offset="0" stop-color="#00a0ff"/>
      <stop offset="0.1" stop-color="#00abff"/>
      <stop offset="0.2" stop-color="#00b7ff"/>
      <stop offset="0.3" stop-color="#00c1ff"/>
      <stop offset="0.4" stop-color="#00c9ff"/>
      <stop offset="0.5" stop-color="#00d1ff"/>
      <stop offset="0.6" stop-color="#00d7ff"/>
      <stop offset="0.7" stop-color="#00dcff"/>
      <stop offset="0.8" stop-color="#00e0ff"/>
      <stop offset="0.9" stop-color="#00e1ff"/>
      <stop offset="1" stop-color="#00e3ff"/>
    </linearGradient>
    <clipPath id="clip-path-9">
      <path id="Path_66" data-name="Path 66" d="M159-16.72l-4.1-4.13v-.29l4.1-4.14.09.05L164-22.44c1.4.79,1.4,2.09,0,2.89l-4.89,2.78Z" fill="none"/>
    </clipPath>
    <linearGradient id="linear-gradient-3" x1="0.58" y1="0.398" x2="0.58" y2="24.779" gradientUnits="objectBoundingBox">
      <stop offset="0"/>
      <stop offset="0" stop-color="#ffe000"/>
      <stop offset="0.1" stop-color="gold"/>
      <stop offset="0.2" stop-color="#ffcf00"/>
      <stop offset="0.3" stop-color="#ffc600"/>
      <stop offset="0.4" stop-color="#ffbe00"/>
      <stop offset="0.5" stop-color="#ffb700"/>
      <stop offset="0.6" stop-color="#ffb100"/>
      <stop offset="0.7" stop-color="#fa0"/>
      <stop offset="0.8" stop-color="#ffa400"/>
      <stop offset="0.9" stop-color="#ffa000"/>
      <stop offset="1" stop-color="#ff9c00"/>
      <stop offset="1"/>
    </linearGradient>
    <linearGradient id="linear-gradient-4" x1="0.621" y1="0.5" x2="0.53" y2="0.5" gradientUnits="objectBoundingBox">
      <stop offset="0" stop-color="#ffe000"/>
      <stop offset="0.1" stop-color="gold"/>
      <stop offset="0.2" stop-color="#ffcf00"/>
      <stop offset="0.3" stop-color="#ffc600"/>
      <stop offset="0.4" stop-color="#ffbe00"/>
      <stop offset="0.5" stop-color="#ffb700"/>
      <stop offset="0.6" stop-color="#ffb100"/>
      <stop offset="0.7" stop-color="#fa0"/>
      <stop offset="0.8" stop-color="#ffa400"/>
      <stop offset="0.9" stop-color="#ffa000"/>
      <stop offset="1" stop-color="#ff9c00"/>
    </linearGradient>
    <clipPath id="clip-path-11">
      <path id="Path_70" data-name="Path 70" d="M159.12-16.78,154.9-21,142.44-8.54a1.63,1.63,0,0,0,2.08.06l14.61-8.3" fill="none"/>
    </clipPath>
    <linearGradient id="linear-gradient-5" x1="0.533" y1="0.5" x2="0.533" y2="24.881" gradientUnits="objectBoundingBox">
      <stop offset="0"/>
      <stop offset="0" stop-color="#ff3a44"/>
      <stop offset="0.1" stop-color="#f93647"/>
      <stop offset="0.2" stop-color="#f3324a"/>
      <stop offset="0.3" stop-color="#ed2e4d"/>
      <stop offset="0.4" stop-color="#e72a50"/>
      <stop offset="0.5" stop-color="#e12653"/>
      <stop offset="0.6" stop-color="#db2156"/>
      <stop offset="0.7" stop-color="#d51d59"/>
      <stop offset="0.8" stop-color="#cf195c"/>
      <stop offset="0.9" stop-color="#c9155f"/>
      <stop offset="1" stop-color="#c31162"/>
      <stop offset="1"/>
    </linearGradient>
    <linearGradient id="linear-gradient-6" x1="0.587" y1="0.555" x2="0.502" y2="1.096" gradientUnits="objectBoundingBox">
      <stop offset="0" stop-color="#ff3a44"/>
      <stop offset="0.1" stop-color="#f93647"/>
      <stop offset="0.2" stop-color="#f3324a"/>
      <stop offset="0.3" stop-color="#ed2e4d"/>
      <stop offset="0.4" stop-color="#e72a50"/>
      <stop offset="0.5" stop-color="#e12653"/>
      <stop offset="0.6" stop-color="#db2156"/>
      <stop offset="0.7" stop-color="#d51d59"/>
      <stop offset="0.8" stop-color="#cf195c"/>
      <stop offset="0.9" stop-color="#c9155f"/>
      <stop offset="1" stop-color="#c31162"/>
    </linearGradient>
    <clipPath id="clip-path-13">
      <path id="Path_74" data-name="Path 74" d="M159.12-25.22l-14.61-8.3a1.63,1.63,0,0,0-2.08.06L154.9-21Z" fill="none"/>
    </clipPath>
    <linearGradient id="linear-gradient-7" x1="0.533" y1="0.194" x2="0.533" y2="24.575" gradientUnits="objectBoundingBox">
      <stop offset="0"/>
      <stop offset="0" stop-color="#32a071"/>
      <stop offset="0.1" stop-color="#2baa71"/>
      <stop offset="0.2" stop-color="#25b472"/>
      <stop offset="0.3" stop-color="#20bd73"/>
      <stop offset="0.4" stop-color="#1ac773"/>
      <stop offset="0.5" stop-color="#14d174"/>
      <stop offset="0.6" stop-color="#0fd874"/>
      <stop offset="0.7" stop-color="#0bdf75"/>
      <stop offset="0.8" stop-color="#06e775"/>
      <stop offset="0.9" stop-color="#03eb75"/>
      <stop offset="1" stop-color="#00f076"/>
      <stop offset="1"/>
    </linearGradient>
    <linearGradient id="linear-gradient-8" x1="0.522" y1="0.028" x2="0.56" y2="0.27" gradientUnits="objectBoundingBox">
      <stop offset="0" stop-color="#32a071"/>
      <stop offset="0.1" stop-color="#2baa71"/>
      <stop offset="0.2" stop-color="#25b472"/>
      <stop offset="0.3" stop-color="#20bd73"/>
      <stop offset="0.4" stop-color="#1ac773"/>
      <stop offset="0.5" stop-color="#14d174"/>
      <stop offset="0.6" stop-color="#0fd874"/>
      <stop offset="0.7" stop-color="#0bdf75"/>
      <stop offset="0.8" stop-color="#06e775"/>
      <stop offset="0.9" stop-color="#03eb75"/>
      <stop offset="1" stop-color="#00f076"/>
    </linearGradient>
    <clipPath id="clip-path-15">
      <path id="Path_77" data-name="Path 77" d="M159-16.87,144.51-8.62a1.67,1.67,0,0,1-2,0l-.07.07.07.07a1.66,1.66,0,0,0,2,0l14.61-8.3Z" fill="none"/>
    </clipPath>
    <clipPath id="clip-path-17">
      <path id="Path_80" data-name="Path 80" d="M142.44-8.68a2,2,0,0,1-.46-1.4v.15a2,2,0,0,0,.46,1.4l.07-.07ZM164-19.7l-5,2.83.09.09L164-19.56A1.75,1.75,0,0,0,165-21,1.86,1.86,0,0,1,164-19.7Z" fill="none"/>
    </clipPath>
    <clipPath id="clip-path-19">
      <path id="Path_83" data-name="Path 83" d="M144.51-33.38,164-22.3a1.86,1.86,0,0,1,1,1.3,1.75,1.75,0,0,0-1-1.44L144.51-33.52c-1.4-.79-2.54-.13-2.54,1.47v.15c.03-1.61,1.15-2.27,2.54-1.48Z" fill="none"/>
    </clipPath>
  </defs>
  <g id="Group_486" data-name="Group 486" transform="translate(3816 3514)">
    <g id="Group_47" data-name="Group 47" transform="translate(-3948 -3473)" clip-path="url(#clip-path)">
      <g id="Group_46" data-name="Group 46" clip-path="url(#clip-path-2)">
        <path id="Path_48" data-name="Path 48" d="M127-46H272V4H127Z"/>
      </g>
    </g>
    <g id="Group_49" data-name="Group 49" transform="translate(-3948 -3473)" clip-path="url(#clip-path-3)">
      <g id="Group_48" data-name="Group 48" clip-path="url(#clip-path-2)">
        <path id="Path_51" data-name="Path 51" d="M167.873-29.005H262.82V-2H167.873Z" fill="#fff"/>
      </g>
    </g>
    <g id="Group_51" data-name="Group 51" transform="translate(-3948 -3473)" clip-path="url(#clip-path-5)">
      <g id="Group_50" data-name="Group 50" clip-path="url(#clip-path-2)">
        <path id="Path_54" data-name="Path 54" d="M168.345-39.146H217.21v16.278H168.345Z" fill="#fff"/>
      </g>
    </g>
    <g id="Group_52" data-name="Group 52" transform="translate(-3774.655 -3507.146)">
      <path id="Path_57" data-name="Path 57" d="M6.075,3.386a2.71,2.71,0,0,1-.75,2,2.91,2.91,0,0,1-2.2.89A3.15,3.15,0,0,1,.915.906a3,3,0,0,1,2.21-.9,3.1,3.1,0,0,1,1.23.25,2.47,2.47,0,0,1,.94.67l-.53.53a2,2,0,0,0-1.64-.71A2.32,2.32,0,0,0,.8,3.146a2.36,2.36,0,0,0,4,1.73,1.89,1.89,0,0,0,.5-1.22H3.125v-.72h2.91a2.54,2.54,0,0,1,.04.45Zm4.58-2.5h-2.7v1.9h2.46v.72H7.955v1.9h2.7v.74h-3.5v-6h3.5Zm3.28,5.26h-.77V.886h-1.68V.146h4.17v.74h-1.72Zm4.66,0v-6h.77v6Zm4.19,0h-.77V.886h-1.68V.146h4.12v.74h-1.67Zm9.48-.78a3.12,3.12,0,0,1-4.4,0,3.24,3.24,0,0,1,0-4.45,3.1,3.1,0,0,1,4.4,0,3.23,3.23,0,0,1,0,4.45Zm-3.83-.5a2.31,2.31,0,0,0,3.26,0,2.56,2.56,0,0,0,0-3.44,2.31,2.31,0,0,0-3.26,0,2.56,2.56,0,0,0,0,3.44Zm5.8,1.28v-6h.94l2.92,4.67V.146h.77v6h-.8l-3.05-4.89v4.89Z" fill="none" stroke="#fff" stroke-width="0.2"/>
    </g>
    <g id="Group_58" data-name="Group 58" transform="translate(-3948 -3473)" clip-path="url(#clip-path-7)">
      <g id="Group_57" data-name="Group 57" clip-path="url(#clip-path-2)">
        <g id="Group_55" data-name="Group 55" opacity="0">
          <g id="Group_54" data-name="Group 54" transform="translate(141.976 -33.53)">
            <path id="Path_59" data-name="Path 59" d="M-141.976-8.47h267v42h-267Z" fill="url(#linear-gradient)"/>
          </g>
        </g>
        <g id="Group_56" data-name="Group 56" transform="translate(141.976 -33.53)">
          <path id="Path_60" data-name="Path 60" d="M-141.976-8.47h267v42h-267Z" fill="url(#linear-gradient-2)"/>
        </g>
      </g>
    </g>
    <g id="Group_63" data-name="Group 63" transform="translate(-3948 -3473)" clip-path="url(#clip-path-9)">
      <g id="Group_62" data-name="Group 62" clip-path="url(#clip-path-2)">
        <g id="Group_60" data-name="Group 60" opacity="0">
          <g id="Group_59" data-name="Group 59" transform="translate(154.9 -25.28)">
            <path id="Path_63" data-name="Path 63" d="M-154.9-16.72h267v42h-267Z" fill="url(#linear-gradient-3)"/>
          </g>
        </g>
        <g id="Group_61" data-name="Group 61" transform="translate(154.9 -25.28)">
          <path id="Path_64" data-name="Path 64" d="M-154.9-16.72h267v42h-267Z" fill="url(#linear-gradient-4)"/>
        </g>
      </g>
    </g>
    <g id="Group_68" data-name="Group 68" transform="translate(-3948 -3473)" clip-path="url(#clip-path-11)">
      <g id="Group_67" data-name="Group 67" clip-path="url(#clip-path-2)">
        <g id="Group_65" data-name="Group 65" opacity="0">
          <g id="Group_64" data-name="Group 64" transform="translate(142.44 -21)">
            <path id="Path_67" data-name="Path 67" d="M-142.44-21h267V21h-267Z" fill="url(#linear-gradient-5)"/>
          </g>
        </g>
        <g id="Group_66" data-name="Group 66" transform="translate(142.44 -21)">
          <path id="Path_68" data-name="Path 68" d="M-142.44-21h267V21h-267Z" fill="url(#linear-gradient-6)"/>
        </g>
      </g>
    </g>
    <g id="Group_73" data-name="Group 73" transform="translate(-3948 -3473)" clip-path="url(#clip-path-13)">
      <g id="Group_72" data-name="Group 72" clip-path="url(#clip-path-2)">
        <g id="Group_70" data-name="Group 70" opacity="0">
          <g id="Group_69" data-name="Group 69" transform="translate(142.43 -33.866)">
            <path id="Path_71" data-name="Path 71" d="M-142.43-8.134h267v42h-267Z" fill="url(#linear-gradient-7)"/>
          </g>
        </g>
        <g id="Group_71" data-name="Group 71" transform="translate(142.43 -33.866)">
          <path id="Path_72" data-name="Path 72" d="M-142.43-8.134h267v42h-267Z" fill="url(#linear-gradient-8)"/>
        </g>
      </g>
    </g>
    <g id="Group_75" data-name="Group 75" transform="translate(-3948 -3473)" clip-path="url(#clip-path-15)">
      <g id="Group_74" data-name="Group 74" clip-path="url(#clip-path-2)">
        <path id="Path_75" data-name="Path 75" d="M137.44-21.87h26.68V-3.145H137.44Z" fill="rgba(0,0,0,0.2)"/>
      </g>
    </g>
    <g id="Group_77" data-name="Group 77" transform="translate(-3948 -3473)" clip-path="url(#clip-path-17)">
      <g id="Group_76" data-name="Group 76" clip-path="url(#clip-path-2)">
        <path id="Path_78" data-name="Path 78" d="M136.976-26H170V-3.53H136.976Z" fill="rgba(0,0,0,0.12)"/>
      </g>
    </g>
    <g id="Group_79" data-name="Group 79" transform="translate(-3948 -3473)" clip-path="url(#clip-path-19)">
      <g id="Group_78" data-name="Group 78" clip-path="url(#clip-path-2)">
        <path id="Path_81" data-name="Path 81" d="M136.97-38.854H170V-16H136.97Z" fill="rgba(255,255,255,0.25)"/>
      </g>
    </g>
  </g>
</svg>
