<svg xmlns="http://www.w3.org/2000/svg" xmlns:xlink="http://www.w3.org/1999/xlink" width="120.664" height="41" viewBox="0 0 120.664 41">
  <defs>
    <clipPath id="clip-path">
      <path id="Path_86" data-name="Path 86" d="M111.135-41H10.535c-.367,0-.729,0-1.095,0-.306,0-.61.008-.919.013a13.215,13.215,0,0,0-2,.177,6.665,6.665,0,0,0-1.9.627A6.438,6.438,0,0,0,3-39a6.259,6.259,0,0,0-1.178,1.621,6.6,6.6,0,0,0-.625,1.9,12.993,12.993,0,0,0-.179,2c-.009.307-.01.614-.015.921V-9.441c0,.31.006.611.015.922a12.992,12.992,0,0,0,.179,2,6.588,6.588,0,0,0,.625,1.9A6.208,6.208,0,0,0,3-3,6.274,6.274,0,0,0,4.616-1.82a6.7,6.7,0,0,0,1.9.631,13.455,13.455,0,0,0,2,.177c.309.007.613.011.919.011.366,0,.728,0,1.095,0h100.6c.359,0,.725,0,1.084,0,.3,0,.617,0,.922-.011a13.28,13.28,0,0,0,2-.177,6.8,6.8,0,0,0,1.908-.631A6.278,6.278,0,0,0,118.666-3a6.4,6.4,0,0,0,1.182-1.614,6.607,6.607,0,0,0,.619-1.9,13.515,13.515,0,0,0,.186-2c0-.311,0-.611,0-.922.008-.363.008-.725.008-1.094V-31.464c0-.366,0-.729-.008-1.092,0-.307,0-.614,0-.921a13.517,13.517,0,0,0-.186-2,6.62,6.62,0,0,0-.619-1.9,6.466,6.466,0,0,0-2.8-2.8,6.768,6.768,0,0,0-1.908-.627,13.045,13.045,0,0,0-2-.177c-.3,0-.617-.011-.922-.013-.359,0-.725,0-1.084,0Z" fill="none"/>
    </clipPath>
    <clipPath id="clip-path-2">
      <path id="Path_85" data-name="Path 85" d="M-249,6966H1191V-772H-249Z" fill="none"/>
    </clipPath>
    <clipPath id="clip-path-3">
      <path id="Path_91" data-name="Path 91" d="M43.3-13.86H38.568L37.432-10.5h-2L39.91-22.922h2.083L46.477-10.5H44.438Zm-4.243-1.549h3.752l-1.85-5.447h-.052Zm17.1.379c0,2.813-1.506,4.621-3.778,4.621a3.069,3.069,0,0,1-2.849-1.584h-.043v4.484H47.631V-19.558h1.8v1.506h.034a3.212,3.212,0,0,1,2.883-1.6C54.645-19.652,56.159-17.836,56.159-15.03Zm-1.91,0c0-1.833-.947-3.038-2.393-3.038-1.42,0-2.375,1.23-2.375,3.038,0,1.824.955,3.046,2.375,3.046,1.445,0,2.393-1.2,2.393-3.046Zm11.875,0c0,2.813-1.506,4.621-3.779,4.621A3.069,3.069,0,0,1,59.5-11.993h-.043v4.484H57.6V-19.558h1.8v1.506h.034a3.212,3.212,0,0,1,2.883-1.6C64.609-19.652,66.125-17.836,66.125-15.03Zm-1.911,0c0-1.833-.947-3.038-2.393-3.038-1.42,0-2.375,1.23-2.375,3.038,0,1.824.955,3.046,2.375,3.046,1.445,0,2.393-1.2,2.393-3.046Zm8.5,1.066c.138,1.231,1.334,2.04,2.969,2.04,1.566,0,2.693-.809,2.693-1.919,0-.964-.68-1.541-2.289-1.937l-1.609-.388c-2.28-.551-3.339-1.617-3.339-3.348,0-2.143,1.867-3.614,4.518-3.614,2.625,0,4.424,1.472,4.484,3.614H78.26c-.112-1.239-1.137-1.987-2.634-1.987s-2.521.757-2.521,1.858c0,.878.654,1.395,2.255,1.79l1.368.336c2.548.6,3.605,1.626,3.605,3.442,0,2.323-1.85,3.778-4.793,3.778-2.754,0-4.613-1.421-4.733-3.667ZM84.346-21.7v2.143h1.722v1.472H84.346v4.991c0,.775.345,1.137,1.1,1.137A5.807,5.807,0,0,0,86.059-12v1.463a5.1,5.1,0,0,1-1.032.086c-1.833,0-2.548-.688-2.548-2.444v-5.189H81.163v-1.472h1.316V-21.7Zm2.718,6.67c0-2.849,1.678-4.639,4.294-4.639s4.295,1.79,4.295,4.639-1.661,4.639-4.295,4.639S87.064-12.174,87.064-15.03Zm6.7,0c0-1.954-.9-3.107-2.4-3.107s-2.4,1.162-2.4,3.107c0,1.962.9,3.106,2.4,3.106s2.4-1.145,2.4-3.106Zm3.426-4.527h1.772v1.541H99a2.159,2.159,0,0,1,2.178-1.636,2.866,2.866,0,0,1,.637.069v1.738a2.6,2.6,0,0,0-.835-.112,1.873,1.873,0,0,0-1.447.6,1.873,1.873,0,0,0-.489,1.487v5.37H97.185Zm13.2,6.395c-.25,1.644-1.851,2.771-3.9,2.771-2.634,0-4.269-1.765-4.269-4.6s1.644-4.682,4.19-4.682c2.5,0,4.08,1.721,4.08,4.466v.637h-6.395v.112a2.358,2.358,0,0,0,.639,1.832,2.358,2.358,0,0,0,1.8.733,2.048,2.048,0,0,0,2.091-1.273Zm-6.282-2.7h4.526a2.178,2.178,0,0,0-.608-1.634,2.177,2.177,0,0,0-1.612-.664,2.292,2.292,0,0,0-1.632.669,2.292,2.292,0,0,0-.674,1.629Z" fill="none"/>
    </clipPath>
    <clipPath id="clip-path-5">
      <path id="Path_94" data-name="Path 94" d="M38.826-32.269a2.64,2.64,0,0,1,2.106.818,2.64,2.64,0,0,1,.7,2.147c0,1.906-1.03,3-2.808,3H36.671v-5.967ZM37.6-27.146h1.125a1.876,1.876,0,0,0,1.495-.6,1.876,1.876,0,0,0,.473-1.541,1.881,1.881,0,0,0-.481-1.531,1.881,1.881,0,0,0-1.487-.6H37.6Zm5.083-1.41a2.133,2.133,0,0,1,1-2.016,2.133,2.133,0,0,1,2.25,0,2.133,2.133,0,0,1,1,2.016,2.134,2.134,0,0,1-1,2.019,2.134,2.134,0,0,1-2.252,0A2.134,2.134,0,0,1,42.681-28.556Zm3.333,0c0-.976-.438-1.547-1.208-1.547s-1.207.571-1.207,1.547.435,1.55,1.207,1.55,1.208-.57,1.208-1.55Zm6.56,2.253h-.922l-.931-3.316h-.07L49.724-26.3h-.913l-1.241-4.5h.9l.807,3.436h.066l.926-3.436h.853l.926,3.436h.07l.8-3.436h.889Zm2.28-4.5h.855v.715h.066a1.348,1.348,0,0,1,1.344-.8,1.465,1.465,0,0,1,1.182.463,1.465,1.465,0,0,1,.377,1.212V-26.3h-.889v-2.692c0-.724-.314-1.083-.972-1.083a1.033,1.033,0,0,0-.8.323,1.033,1.033,0,0,0-.275.818V-26.3h-.889Zm5.24-1.758h.889V-26.3h-.889Zm2.124,4.007a2.133,2.133,0,0,1,1-2.016,2.133,2.133,0,0,1,2.25,0,2.133,2.133,0,0,1,1,2.016,2.134,2.134,0,0,1-1,2.019,2.134,2.134,0,0,1-2.252,0,2.134,2.134,0,0,1-1-2.019Zm3.333,0c0-.976-.438-1.547-1.208-1.547s-1.207.571-1.207,1.547.435,1.55,1.207,1.55,1.208-.57,1.208-1.55Zm1.85.98c0-.811.6-1.278,1.675-1.344l1.22-.07v-.389c0-.476-.314-.744-.922-.744-.5,0-.84.182-.938.5h-.86c.091-.773.818-1.27,1.84-1.27,1.129,0,1.766.562,1.766,1.513V-26.3h-.855v-.633h-.07a1.515,1.515,0,0,1-1.353.707,1.36,1.36,0,0,1-1.049-.341,1.36,1.36,0,0,1-.451-1.007ZM70.3-27.96v-.376l-1.1.07c-.62.042-.9.252-.9.649s.352.641.835.641a1.061,1.061,0,0,0,.792-.245A1.062,1.062,0,0,0,70.3-27.96Zm2.053-.6c0-1.423.731-2.324,1.869-2.324a1.484,1.484,0,0,1,1.381.79h.066v-2.473h.889V-26.3H75.7v-.711h-.07a1.563,1.563,0,0,1-1.414.786C73.072-26.228,72.348-27.129,72.348-28.556Zm.918,0c0,.955.45,1.53,1.2,1.53s1.212-.583,1.212-1.526-.468-1.53-1.212-1.53-1.2.579-1.2,1.526Zm6.964,0a2.133,2.133,0,0,1,1-2.016,2.133,2.133,0,0,1,2.25,0,2.133,2.133,0,0,1,1,2.016,2.134,2.134,0,0,1-1,2.019,2.134,2.134,0,0,1-2.252,0,2.134,2.134,0,0,1-1-2.019Zm3.333,0c0-.976-.438-1.547-1.208-1.547s-1.207.571-1.207,1.547.435,1.55,1.207,1.55S83.563-27.576,83.563-28.556Zm2.106-2.25h.855v.715h.066a1.348,1.348,0,0,1,1.344-.8,1.465,1.465,0,0,1,1.182.463,1.465,1.465,0,0,1,.377,1.212V-26.3h-.889v-2.692c0-.724-.314-1.083-.972-1.083a1.033,1.033,0,0,0-.8.323,1.033,1.033,0,0,0-.275.818V-26.3h-.889Zm8.846-1.121v1.142h.976v.749h-.976v2.315c0,.472.194.678.637.678a2.966,2.966,0,0,0,.339-.021v.74a2.916,2.916,0,0,1-.483.045c-.988,0-1.382-.348-1.382-1.216v-2.543h-.715v-.749h.715v-1.142Zm2.189-.637h.881v2.481h.07a1.386,1.386,0,0,1,1.373-.807,1.483,1.483,0,0,1,1.17.475,1.484,1.484,0,0,1,.381,1.2V-26.3h-.89V-28.99c0-.719-.335-1.083-.963-1.083a1.052,1.052,0,0,0-.832.307,1.052,1.052,0,0,0-.3.834v2.63H96.7Zm9.057,5.045a1.828,1.828,0,0,1-1.951,1.3,2.045,2.045,0,0,1-1.578-.681,2.046,2.046,0,0,1-.5-1.644,2.077,2.077,0,0,1,.5-1.65,2.077,2.077,0,0,1,1.575-.7c1.253,0,2.009.856,2.009,2.27v.31h-3.18v.05a1.19,1.19,0,0,0,.314.91,1.19,1.19,0,0,0,.885.38,1.079,1.079,0,0,0,1.071-.546Zm-3.126-1.451h2.274a1.087,1.087,0,0,0-.3-.829,1.087,1.087,0,0,0-.812-.338,1.152,1.152,0,0,0-.829.337,1.151,1.151,0,0,0-.337.829Z" fill="none"/>
    </clipPath>
    <clipPath id="clip-path-7">
      <path id="Path_97" data-name="Path 97" d="M26-21.111a5.146,5.146,0,0,1,2.451-4.318,5.268,5.268,0,0,0-4.15-2.244c-1.746-.183-3.439,1.045-4.329,1.045-.907,0-2.277-1.027-3.752-1a5.527,5.527,0,0,0-4.651,2.837c-2.011,3.482-.511,8.6,1.416,11.414.964,1.378,2.09,2.918,3.564,2.863,1.442-.06,1.981-.92,3.722-.92,1.725,0,2.23.92,3.734.885,1.548-.025,2.523-1.384,3.453-2.776a11.4,11.4,0,0,0,1.579-3.216A4.973,4.973,0,0,1,26-21.111Zm-2.841-8.413a5.067,5.067,0,0,0,1.159-3.63,5.155,5.155,0,0,0-3.336,1.726,4.821,4.821,0,0,0-1.189,3.5A4.263,4.263,0,0,0,23.156-29.523Z" fill="none"/>
    </clipPath>
  </defs>
  <g id="Group_485" data-name="Group 485" transform="translate(3947.5 3514.5)">
    <g id="Group_81" data-name="Group 81" transform="translate(-3948 -3473)" clip-path="url(#clip-path)">
      <g id="Group_80" data-name="Group 80" clip-path="url(#clip-path-2)">
        <path id="Path_84" data-name="Path 84" d="M-4-46H125.664V4H-4Z" fill="#fff"/>
      </g>
    </g>
    <g id="Group_82" data-name="Group 82" transform="translate(-3947 -3514)">
      <path id="Path_87" data-name="Path 87" d="M110.135,0H9.535C9.168,0,8.806,0,8.44,0c-.306,0-.61.008-.919.013a13.215,13.215,0,0,0-2,.177,6.665,6.665,0,0,0-1.9.627A6.438,6.438,0,0,0,2,2,6.258,6.258,0,0,0,.819,3.618a6.6,6.6,0,0,0-.625,1.9,12.993,12.993,0,0,0-.179,2C.006,7.83,0,8.138,0,8.444V31.559c0,.311.006.611.015.922a12.992,12.992,0,0,0,.179,2,6.588,6.588,0,0,0,.625,1.9A6.208,6.208,0,0,0,2,38,6.274,6.274,0,0,0,3.616,39.18a6.7,6.7,0,0,0,1.9.631,13.456,13.456,0,0,0,2,.177c.309.007.613.011.919.011.366,0,.728,0,1.095,0h100.6c.359,0,.725,0,1.084,0,.3,0,.617,0,.922-.011a13.282,13.282,0,0,0,2-.177,6.8,6.8,0,0,0,1.908-.631A6.278,6.278,0,0,0,117.666,38a6.4,6.4,0,0,0,1.182-1.614,6.607,6.607,0,0,0,.619-1.9,13.515,13.515,0,0,0,.186-2c0-.311,0-.611,0-.922.008-.363.008-.725.008-1.094V9.536c0-.366,0-.729-.008-1.092,0-.307,0-.614,0-.921a13.516,13.516,0,0,0-.186-2,6.62,6.62,0,0,0-.619-1.9,6.466,6.466,0,0,0-2.8-2.8,6.768,6.768,0,0,0-1.908-.627,13.045,13.045,0,0,0-2-.177c-.3,0-.617-.011-.922-.013-.359,0-.725,0-1.084,0Z" fill="none" stroke="#000" stroke-width="1"/>
    </g>
    <g id="Group_85" data-name="Group 85" transform="translate(-3948 -3473)" clip-path="url(#clip-path-3)">
      <g id="Group_84" data-name="Group 84" clip-path="url(#clip-path-2)">
        <path id="Path_89" data-name="Path 89" d="M30.427-28.129h85.06v25.62H30.427Z"/>
      </g>
    </g>
    <g id="Group_87" data-name="Group 87" transform="translate(-3948 -3473)" clip-path="url(#clip-path-5)">
      <g id="Group_86" data-name="Group 86" clip-path="url(#clip-path-2)">
        <path id="Path_92" data-name="Path 92" d="M31.671-37.563h79.144V-21.2H31.671Z"/>
      </g>
    </g>
    <g id="Group_89" data-name="Group 89" transform="translate(-3948 -3473)" clip-path="url(#clip-path-7)">
      <g id="Group_88" data-name="Group 88" clip-path="url(#clip-path-2)">
        <path id="Path_95" data-name="Path 95" d="M5.609-38.153H34.032V-5.508H5.609Z"/>
      </g>
    </g>
  </g>
</svg>
