<svg xmlns="http://www.w3.org/2000/svg" xmlns:xlink="http://www.w3.org/1999/xlink" width="1440" height="1089.598" viewBox="0 0 1440 1089.598">
  <defs>
    <clipPath id="clip-path">
      <path id="Clip_14" data-name="Clip 14" d="M0,0H23.463V21.976H0Z" fill="none"/>
    </clipPath>
    <clipPath id="clip-path-2">
      <path id="Clip_2" data-name="Clip 2" d="M0,0H23.479V32.808H0Z" transform="translate(0 0.211)" fill="none"/>
    </clipPath>
  </defs>
  <g id="Group_11466" data-name="Group 11466" transform="translate(0 189)">
    <path id="Rectangle" d="M0,31.213s343.653-67.965,720.5-13.8S1440,39.431,1440,39.431v972.076s-347-19.168-711.99,52.323S0,1011.507,0,1011.507Z" transform="translate(0 -185.462)" fill="#f9f9fa"/>
    <g id="Group_9862" data-name="Group 9862" transform="translate(456.752 252)">
      <g id="Group_9861" data-name="Group 9861">
        <g id="Group_9860" data-name="Group 9860">
          <g id="Group_9859" data-name="Group 9859">
            <path id="Path_21486" data-name="Path 21486" d="M609,164.773c-.008-54.449-43.66-114.111-97.989-117.715q-1.431-.094-2.892-.166C430.234,43.122,424.3,141.778,353.831,152.9s-124.283-45.044-208.6-8.4C69.5,177.423,48.987,362.378,271.495,369.795,449.52,375.729,609.024,327.221,609,164.773Z" transform="translate(-92.863 -46.787)" fill="#ffeedb"/>
          </g>
        </g>
      </g>
    </g>
    <g id="Group_9870" data-name="Group 9870" transform="translate(680.75 320.762)">
      <g id="Group_9869" data-name="Group 9869">
        <g id="Group_9868" data-name="Group 9868">
          <g id="Group_9867" data-name="Group 9867">
            <path id="Path_21488" data-name="Path 21488" d="M349.695,125.947a11.362,11.362,0,1,1-14.837-6.171A11.363,11.363,0,0,1,349.695,125.947Z" transform="translate(-327.825 -118.914)" fill="#ddd8ce"/>
          </g>
        </g>
      </g>
    </g>
    <g id="Group_9874" data-name="Group 9874" transform="translate(849.756 545.177)">
      <g id="Group_9873" data-name="Group 9873" transform="translate(0 0)">
        <g id="Group_9872" data-name="Group 9872">
          <g id="Group_9871" data-name="Group 9871">
            <ellipse id="Ellipse_179" data-name="Ellipse 179" cx="11.362" cy="11.362" rx="11.362" ry="11.362" transform="translate(0 15.202) rotate(-41.988)" fill="#ddd8ce"/>
          </g>
        </g>
      </g>
    </g>
    <g id="Group_9878" data-name="Group 9878" transform="translate(956.467 285.632)">
      <g id="Group_9877" data-name="Group 9877">
        <g id="Group_9876" data-name="Group 9876">
          <g id="Group_9875" data-name="Group 9875">
            <path id="Path_21489" data-name="Path 21489" d="M630.736,88.914a6.848,6.848,0,1,1-6.849-6.849A6.849,6.849,0,0,1,630.736,88.914Z" transform="translate(-617.039 -82.065)" fill="#e8e4dd"/>
          </g>
        </g>
      </g>
    </g>
    <g id="Group_9882" data-name="Group 9882" transform="translate(655.996 316.061)">
      <g id="Group_9881" data-name="Group 9881">
        <g id="Group_9880" data-name="Group 9880">
          <g id="Group_9879" data-name="Group 9879">
            <path id="Path_21490" data-name="Path 21490" d="M315.042,118.222A6.849,6.849,0,1,1,306.1,114.5,6.848,6.848,0,0,1,315.042,118.222Z" transform="translate(-301.861 -113.983)" fill="#e8e4dd"/>
          </g>
        </g>
      </g>
    </g>
    <g id="Group_9890" data-name="Group 9890" transform="translate(887.35 538.486)">
      <g id="Group_9889" data-name="Group 9889">
        <g id="Group_9888" data-name="Group 9888">
          <g id="Group_9887" data-name="Group 9887">
            <path id="Path_21492" data-name="Path 21492" d="M558.1,352.771a6.849,6.849,0,1,1-8.083-5.336A6.849,6.849,0,0,1,558.1,352.771Z" transform="translate(-544.538 -347.295)" fill="#e8e4dd"/>
          </g>
        </g>
      </g>
    </g>
    <g id="Group_33_Copy_2" data-name="Group 33 Copy 2" transform="translate(410 299.016)" opacity="0.4">
      <path id="Fill_1" data-name="Fill 1" d="M8.529,11.665C10.7,10.214,10.1,4.26,8.644,2.094A4.722,4.722,0,1,0,.8,7.351c1.452,2.166,5.564,5.766,7.73,4.314" transform="translate(68.343 73.401)" fill="rgba(107,36,27,0.28)"/>
      <path id="Fill_3" data-name="Fill 3" d="M5.337,2.036a12.063,12.063,0,0,0-3.3,16.716c3.7,5.518,8.546,3.04,14.065-.657s9.65-7.241,5.952-12.758a12.062,12.062,0,0,0-16.716-3.3" transform="translate(67.751 88.445)" fill="rgba(107,36,27,0.28)"/>
      <path id="Fill_5" data-name="Fill 5" d="M1.481.566A3.339,3.339,0,0,0,.566,5.2c.015.021.035.041.051.063s.041.075.067.111C1.709,6.9,6.393,9.022,7.925,8s-.667-4.811-1.7-6.342l-.021-.027c-.031-.048-.065-.1-.1-.147A3.338,3.338,0,0,0,1.481.566" transform="translate(55.607 95.756)" fill="rgba(107,36,27,0.28)"/>
      <path id="Fill_7" data-name="Fill 7" d="M10.107,10.607C12.273,9.155,10.1,4.26,8.644,2.094A4.722,4.722,0,1,0,.8,7.351c1.453,2.166,7.141,4.708,9.307,3.256" transform="translate(55.839 81.782)" fill="rgba(107,36,27,0.28)"/>
      <path id="Fill_9" data-name="Fill 9" d="M1.521.581a3.429,3.429,0,0,0-.94,4.758c1.055,1.573,4.074,4.746,5.647,3.692s1.105-5.938.051-7.511A3.43,3.43,0,0,0,1.521.581" transform="translate(83.191 77.369)" fill="rgba(107,36,27,0.28)"/>
      <path id="Fill_11" data-name="Fill 11" d="M8.529,11.665C10.7,10.214,10.1,4.26,8.644,2.094A4.722,4.722,0,1,0,.8,7.351c1.452,2.166,5.564,5.766,7.73,4.314" transform="translate(93.736 0)" fill="rgba(107,36,27,0.28)"/>
      <g id="Group_15" data-name="Group 15" transform="translate(93.143 15.045)">
        <path id="Clip_14-2" data-name="Clip 14" d="M0,0H23.463V21.976H0Z" transform="translate(0 0)" fill="none"/>
        <g id="Group_15-2" data-name="Group 15" transform="translate(0 0)" clip-path="url(#clip-path)">
          <path id="Fill_13" data-name="Fill 13" d="M5.337,2.036a12.063,12.063,0,0,0-3.3,16.716c3.7,5.518,8.546,3.04,14.065-.657s9.65-7.241,5.952-12.758a12.062,12.062,0,0,0-16.716-3.3" fill="rgba(107,36,27,0.28)"/>
        </g>
      </g>
      <path id="Fill_16" data-name="Fill 16" d="M1.481.566A3.338,3.338,0,0,0,.566,5.2c.015.021.035.041.051.062.023.038.041.075.067.113C1.709,6.9,6.395,9.022,7.925,8S7.258,3.186,6.231,1.654l-.022-.027c-.03-.05-.065-.1-.1-.148A3.339,3.339,0,0,0,1.481.566" transform="translate(81 22.356)" fill="rgba(107,36,27,0.28)"/>
      <path id="Fill_18" data-name="Fill 18" d="M10.107,10.608c2.166-1.452-.011-6.348-1.463-8.514A4.722,4.722,0,0,0,.8,7.352c1.453,2.166,7.141,4.708,9.307,3.256" transform="translate(81.231 8.381)" fill="rgba(107,36,27,0.28)"/>
      <path id="Fill_20" data-name="Fill 20" d="M1.521.581a3.429,3.429,0,0,0-.94,4.758C1.636,6.912,4.656,10.086,6.23,9.031s1.1-5.938.05-7.511A3.43,3.43,0,0,0,1.521.581" transform="translate(108.584 3.969)" fill="rgba(107,36,27,0.28)"/>
      <path id="Fill_22" data-name="Fill 22" d="M8.529,11.665c2.166-1.452,1.568-7.405.116-9.571A4.722,4.722,0,0,0,.8,7.35c1.452,2.167,5.562,5.766,7.729,4.314" transform="translate(12.736 13.396)" fill="rgba(107,36,27,0.28)"/>
      <path id="Fill_24" data-name="Fill 24" d="M5.337,2.036a12.063,12.063,0,0,0-3.3,16.716c3.7,5.518,8.545,3.04,14.063-.657s9.651-7.241,5.954-12.758a12.062,12.062,0,0,0-16.716-3.3" transform="translate(12.144 28.441)" fill="rgba(107,36,27,0.28)"/>
      <g id="Group_28" data-name="Group 28" transform="translate(0 35.751)">
        <path id="Fill_26" data-name="Fill 26" d="M1.48.566A3.339,3.339,0,0,0,.566,5.2c.013.021.035.041.05.062.024.038.042.075.068.113C1.709,6.9,6.393,9.021,7.924,8S7.257,3.186,6.23,1.654c-.006-.008-.015-.017-.021-.027-.031-.05-.065-.1-.1-.148A3.338,3.338,0,0,0,1.48.566" transform="translate(0 0)" fill="rgba(107,36,27,0.28)"/>
      </g>
      <path id="Fill_29" data-name="Fill 29" d="M10.106,10.608c2.166-1.452-.01-6.348-1.461-8.514A4.722,4.722,0,1,0,.8,7.352c1.452,2.166,7.14,4.708,9.306,3.256" transform="translate(0.231 21.777)" fill="rgba(107,36,27,0.28)"/>
      <path id="Fill_31" data-name="Fill 31" d="M1.52.581A3.43,3.43,0,0,0,.581,5.339c1.055,1.573,4.074,4.746,5.647,3.692s1.1-5.937.051-7.511A3.432,3.432,0,0,0,1.52.581" transform="translate(27.584 17.364)" fill="rgba(107,36,27,0.28)"/>
    </g>
    <g id="Group_470" data-name="Group 470" transform="translate(649.076 391.064)">
      <g id="Group_469" data-name="Group 469" transform="translate(0 0)">
        <g id="Group_468" data-name="Group 468" transform="translate(0 0)">
          <path id="Path_21335" data-name="Path 21335" d="M334.9,286.92a86.1,86.1,0,0,0-15.149-18.636C310.4,260,302.6,260.2,298.778,261.057a14.434,14.434,0,0,0-4.375,1.748c-6.665-4.946-14.772-7.368-24.581-7.368s-17.916,2.422-24.581,7.368a14.427,14.427,0,0,0-4.376-1.748c-3.817-.858-11.621-1.06-20.976,7.227A86.184,86.184,0,0,0,204.74,286.92c-6.117,10.3-7.478,18.627-4.05,24.759,4.188,7.485,10.539,9.4,15.667,9.873a64.8,64.8,0,0,0-2.039,16.657c0,8.647,1.969,16.088,5.853,22.113a35.486,35.486,0,0,0,14.6,12.608c11.6,5.672,25.559,6.326,35.048,6.326s23.45-.654,35.048-6.326a35.476,35.476,0,0,0,14.6-12.608c3.884-6.025,5.853-13.466,5.853-22.113a64.8,64.8,0,0,0-2.039-16.657c5.129-.472,11.48-2.388,15.667-9.873,3.43-6.132,2.066-14.463-4.05-24.759ZM219.051,313c-4.537-.119-8.227-1-10.778-5.558-1.729-3.1-.3-8.956,3.937-16.082a77.832,77.832,0,0,1,13.441-16.569c6.04-5.351,10.568-5.647,12.7-5.362-6.34,7.729-10.226,17.772-13.475,27.539-1.346,4.044-2.645,7.5-3.9,10.835-.671,1.787-1.316,3.505-1.925,5.2Zm45.1,28.487c-2.25-2.245-3.425-4.6-3.425-5.773,0-1.043.178-1.117.843-1.4,1.9-.8,5.615-.89,8.25-.89s6.355.093,8.248.89c.665.279.844.355.844,1.4,0,1.168-1.177,3.526-3.424,5.773-2.211,2.21-4.571,3.4-5.669,3.4s-3.458-1.19-5.667-3.4Zm36.9,23.643c-6.668,3.257-15.494,5.026-26.889,5.377V352.7a22.962,22.962,0,0,0,7.466-5.077c1.8-1.793,5.972-6.546,5.972-11.918a9.657,9.657,0,0,0-6.163-9.407c-2.647-1.113-6.015-1.569-11.618-1.569s-8.969.456-11.62,1.569a9.658,9.658,0,0,0-6.162,9.407c0,5.372,4.176,10.124,5.972,11.918a22.962,22.962,0,0,0,7.466,5.077v17.8c-11.393-.349-20.221-2.118-26.889-5.377C228.1,360,223.006,351.2,223.006,338.209c0-11.109,2.56-17.924,6.1-27.355,1.223-3.256,2.609-6.947,4.007-11.148,7.68-23.076,15.8-35.582,36.705-35.582s29.026,12.506,36.7,35.582c1.4,4.2,2.784,7.892,4.008,11.148,3.542,9.431,6.1,16.245,6.1,27.355,0,12.987-5.1,21.791-15.582,26.917Zm30.317-57.688c-2.552,4.56-6.24,5.439-10.78,5.558-.608-1.692-1.253-3.41-1.923-5.2-1.254-3.338-2.551-6.791-3.9-10.835-3.249-9.766-7.135-19.81-13.475-27.539,2.131-.285,6.659.01,12.7,5.362a77.75,77.75,0,0,1,13.439,16.569c4.234,7.126,5.667,12.988,3.937,16.082Zm0,0" transform="translate(-198.848 -255.437)" fill="#fed31c"/>
        </g>
        <path id="Path_21336" data-name="Path 21336" d="M238.792,286.554a5.776,5.776,0,1,0,5.7,5.776,5.744,5.744,0,0,0-5.7-5.776Zm0,0" transform="translate(-182.275 -240.376)" fill="#fed31c"/>
        <path id="Path_21337" data-name="Path 21337" d="M258.263,286.523a5.821,5.821,0,1,0,5.745,5.822,5.786,5.786,0,0,0-5.745-5.822Zm0,0" transform="translate(-172.873 -240.391)" fill="#fed31c"/>
      </g>
    </g>
    <g id="Group_11459" data-name="Group 11459" transform="translate(816.77 385.128)" style="isolation: isolate">
      <path id="Path_21911" data-name="Path 21911" d="M447.182,593.927V577.136L496.831,492.8h41.983v77.942h15.333v23.182H538.813v28.842H508.148V593.927Zm60.966-23.182V517.994L478.03,570.746Z" transform="translate(-447.182 -492.804)" fill="#fe634f"/>
    </g>
    <g id="Group_11465" data-name="Group 11465" transform="translate(516.77 385.128)" style="isolation: isolate">
      <path id="Path_21911-2" data-name="Path 21911" d="M447.182,593.927V577.136L496.831,492.8h41.983v77.942h15.333v23.182H538.813v28.842H508.148V593.927Zm60.966-23.182V517.994L478.03,570.746Z" transform="translate(-447.182 -492.804)" fill="#fe634f"/>
    </g>
    <g id="Component_21_13" data-name="Component 21 – 13">
      <rect id="Rectangle_32" data-name="Rectangle 32" width="1440" height="175" fill="#f9f9fa"/>
      <g id="Pricing" transform="translate(666 115)">
        <text id="Pricing-2" data-name="Pricing" transform="translate(0 10)" fill="#6b241b" font-size="14" font-family="SegoeUI, Segoe UI" letter-spacing="0em"><tspan x="0" y="0">Pricing</tspan></text>
      </g>
      <g id="Locations" transform="translate(758 115)">
        <text id="Locations-2" data-name="Locations" transform="translate(0 10)" fill="#6b241b" font-size="14" font-family="SegoeUI, Segoe UI" letter-spacing="0em"><tspan x="0" y="0">Locations</tspan></text>
      </g>
      <g id="About" transform="translate(871 115)">
        <text id="About-2" data-name="About" transform="translate(0 10)" fill="#6b241b" font-size="14" font-family="SegoeUI, Segoe UI" letter-spacing="0em"><tspan x="0" y="0">About</tspan></text>
      </g>
      <g id="Component_7_1" data-name="Component 7 – 1" transform="translate(953 99)">
        <rect id="Rectangle_Copy_7" data-name="Rectangle Copy 7" width="135" height="44" rx="10" fill="none" stroke="#6b241b" stroke-miterlimit="10" stroke-width="1"/>
        <text id="Drive_with_us" data-name="Drive with us" transform="translate(68 26)" fill="#6b241b" font-size="14" font-family="SegoeUI, Segoe UI" letter-spacing="0em"><tspan x="-42.232" y="0">Drive With Us</tspan></text>
      </g>
      <g id="Component_6_1" data-name="Component 6 – 1" transform="translate(1104 99)">
        <rect id="Rectangle-2" data-name="Rectangle" width="85" height="44" rx="10" fill="#fe634f"/>
        <text id="Log_in" data-name="Log in" transform="translate(21 26)" fill="#fff" font-size="14" font-family="SegoeUI, Segoe UI" letter-spacing="0em"><tspan x="0" y="0">Log in</tspan></text>
      </g>
      <g id="Group_14" data-name="Group 14" transform="translate(250 100)">
        <g id="Group_3" data-name="Group 3" transform="translate(0 8.491)">
          <path id="Clip_2-2" data-name="Clip 2" d="M0,0H23.479V32.808H0Z" transform="translate(0 0.211)" fill="none"/>
          <g id="Group_3-2" data-name="Group 3" clip-path="url(#clip-path-2)">
            <path id="Fill_1-2" data-name="Fill 1" d="M4.08,32.808a4.312,4.312,0,0,1-2.915-1.044A3.939,3.939,0,0,1,0,28.733V3.915C0,1.427,1.382,0,3.791,0A3.647,3.647,0,0,1,6.777,1.253l.5.63.66-.461a6.033,6.033,0,0,1,.583-.362A9.225,9.225,0,0,1,12.955,0a10.671,10.671,0,0,1,4.019.779,9.411,9.411,0,0,1,3.4,2.393,11.505,11.505,0,0,1,2.281,3.933,16.258,16.258,0,0,1,.826,5.435,16.716,16.716,0,0,1-.6,4.478A11.992,11.992,0,0,1,21,20.94a9.681,9.681,0,0,1-3.245,2.805A9.7,9.7,0,0,1,13.123,24.8a8.914,8.914,0,0,1-3.747-.748l-1.217-.562v5.241a3.934,3.934,0,0,1-1.172,3.034A4.294,4.294,0,0,1,4.08,32.808ZM11.551,5.481a3.956,3.956,0,0,0-2,.464A4.047,4.047,0,0,0,8.177,7.286a6.922,6.922,0,0,0-.876,2.2A12.942,12.942,0,0,0,7,12.322a13.467,13.467,0,0,0,.285,2.7,7.814,7.814,0,0,0,.856,2.313,4.215,4.215,0,0,0,1.386,1.468,3.807,3.807,0,0,0,2.077.514,3.728,3.728,0,0,0,2.138-.537,4.35,4.35,0,0,0,1.388-1.544,7.607,7.607,0,0,0,.786-2.3,15.25,15.25,0,0,0,.241-2.614,12.028,12.028,0,0,0-.326-2.837A7,7,0,0,0,14.9,7.3a4.066,4.066,0,0,0-1.39-1.318A4.191,4.191,0,0,0,11.551,5.481Z" transform="translate(0 0.211)" fill="#fe634f"/>
          </g>
        </g>
        <path id="Fill_4" data-name="Fill 4" d="M27.311.287a2.982,2.982,0,0,0-1.259.918,4.332,4.332,0,0,0-.664,1.23,9.6,9.6,0,0,0-.34,1.3l-1.988,9.375L21.473,4.822c-.129-.538-.289-1.123-.462-1.661a5.627,5.627,0,0,0-.817-1.61A3.806,3.806,0,0,0,18.7.367,4.675,4.675,0,0,0,16.538.006a4.552,4.552,0,0,0-2.19.368A3.839,3.839,0,0,0,12.909,1.55,5.139,5.139,0,0,0,12.1,3.214c-.162.554-.3,1.136-.406,1.69l-1.568,8.109L7.948,3.626c-.1-.377-.214-.791-.331-1.169A3.906,3.906,0,0,0,6.963,1.2,3.036,3.036,0,0,0,5.7.283a4.606,4.606,0,0,0-4.465.79A3.621,3.621,0,0,0,0,3.835,6.134,6.134,0,0,0,.154,5.29c.092.377.191.727.3,1.065l4.4,14.207a13.1,13.1,0,0,0,.693,1.834,3.9,3.9,0,0,0,1.035,1.353,3.27,3.27,0,0,0,1.508.662,10.629,10.629,0,0,0,3.489-.053,3.335,3.335,0,0,0,1.486-.75,3.613,3.613,0,0,0,.928-1.336,13.025,13.025,0,0,0,.549-1.658l1.967-7.794,1.981,7.85a14.16,14.16,0,0,0,.531,1.591,3.669,3.669,0,0,0,.939,1.353,3.377,3.377,0,0,0,1.494.748,10.613,10.613,0,0,0,3.474.05,3.247,3.247,0,0,0,1.514-.667A3.915,3.915,0,0,0,27.473,22.4a13.648,13.648,0,0,0,.693-1.843L32.548,6.393c.124-.374.231-.74.318-1.106a6.073,6.073,0,0,0,.153-1.452,3.627,3.627,0,0,0-1.233-2.762A4.6,4.6,0,0,0,27.311.287" transform="translate(50 8.491)" fill="#fe634f"/>
        <path id="Fill_6" data-name="Fill 6" d="M19.83,1.92A7.328,7.328,0,0,0,16.966.414a10.469,10.469,0,0,0-7.9.792c-.293.179-.58.37-.857.574l-.748.551-.495-.779a3.735,3.735,0,0,0-.224-.318A3.512,3.512,0,0,0,3.8.01,3.52,3.52,0,0,0,.864,1.236,4.426,4.426,0,0,0,0,4.044V20.495a4.6,4.6,0,0,0,.808,2.677,3.727,3.727,0,0,0,3.285,1.356,3.726,3.726,0,0,0,3.284-1.356,4.594,4.594,0,0,0,.808-2.677V10.657A3.519,3.519,0,0,1,8.5,9.119a3.72,3.72,0,0,1,.835-1.163,3.388,3.388,0,0,1,1.133-.7,3.628,3.628,0,0,1,1.244-.242,2.57,2.57,0,0,1,2.037.716,2.659,2.659,0,0,1,.708,2.122l0,10.642a4.6,4.6,0,0,0,.806,2.674,3.679,3.679,0,0,0,3.287,1.359,3.735,3.735,0,0,0,3.287-1.357,4.61,4.61,0,0,0,.806-2.677V8.9a10.173,10.173,0,0,0-.777-4.186,7.886,7.886,0,0,0-2.035-2.8" transform="translate(84.906 8.491)" fill="#fe634f"/>
        <path id="Fill_8" data-name="Fill 8" d="M19.778,33.019a3.663,3.663,0,0,1-3-1.257l-.507-.633-.663.464a6.463,6.463,0,0,1-.583.362,9.266,9.266,0,0,1-4.452,1.061,10.773,10.773,0,0,1-4.04-.781,9.432,9.432,0,0,1-3.41-2.4A11.549,11.549,0,0,1,.83,25.894,16.258,16.258,0,0,1,0,20.443a16.681,16.681,0,0,1,.6-4.469,12.254,12.254,0,0,1,1.86-3.938A9.519,9.519,0,0,1,5.735,9.211,9.867,9.867,0,0,1,10.4,8.156a8.7,8.7,0,0,1,3.756.784l1.231.585V4.09a3.945,3.945,0,0,1,1.174-3.038A4.212,4.212,0,0,1,19.487,0,4.157,4.157,0,0,1,22.41,1.049a3.942,3.942,0,0,1,1.175,3.04v25C23.585,31.589,22.2,33.019,19.778,33.019ZM11.934,13.581a3.834,3.834,0,0,0-2.156.56,4.679,4.679,0,0,0-1.422,1.6,7.474,7.474,0,0,0-.791,2.324,14.825,14.825,0,0,0-.248,2.6,11.938,11.938,0,0,0,.331,2.866,7.017,7.017,0,0,0,.937,2.215,4.066,4.066,0,0,0,1.41,1.334,4.259,4.259,0,0,0,1.989.515,4.034,4.034,0,0,0,2.024-.473A4.085,4.085,0,0,0,15.4,25.771a6.98,6.98,0,0,0,.892-2.227,13.2,13.2,0,0,0,.31-2.877,13.431,13.431,0,0,0-.289-2.741,7.836,7.836,0,0,0-.87-2.344A4.192,4.192,0,0,0,14.035,14.1,4.03,4.03,0,0,0,11.934,13.581Z" transform="translate(109.491 0)" fill="#fe634f"/>
        <path id="Fill_10" data-name="Fill 10" d="M19.778,25.472a3.655,3.655,0,0,1-3-1.264l-.5-.636-.664.465a6.158,6.158,0,0,1-.585.365,9.236,9.236,0,0,1-4.454,1.068,10.712,10.712,0,0,1-4.037-.785,9.467,9.467,0,0,1-3.414-2.416A11.649,11.649,0,0,1,.829,18.3,16.508,16.508,0,0,1,0,12.816a16.93,16.93,0,0,1,.6-4.5A12.356,12.356,0,0,1,2.462,4.356,9.474,9.474,0,0,1,5.734,1.513,9.836,9.836,0,0,1,10.4.452a8.468,8.468,0,0,1,4.051.939c.186.1.371.209.552.326l.673.434.481-.644a3.307,3.307,0,0,1,.4-.448A4.209,4.209,0,0,1,19.487,0,4.144,4.144,0,0,1,22.41,1.056a3.984,3.984,0,0,1,1.175,3.061V21.523C23.585,24.032,22.2,25.472,19.778,25.472ZM14.484,11.058a5.845,5.845,0,0,0-4.828,2.624,5.469,5.469,0,0,0-.374,5.482c.754,1.557,1.706,2.314,2.91,2.314,1.5,0,3.259-1.161,5.118-2.389.3-.2.608-.4.917-.6a3.493,3.493,0,0,0,1.066-4.805A5.69,5.69,0,0,0,14.484,11.058ZM4.621,14.345a1.573,1.573,0,0,0-.854.252,1.6,1.6,0,0,0-.476,2.2.106.106,0,0,0,.012.016l.01.014.014.025.017.029a4.575,4.575,0,0,0,2.91,1.435.916.916,0,0,0,.5-.119c.805-.519-.478-2.619-.743-3.035l0,0L6,15.147l-.033-.054-.011-.018A1.577,1.577,0,0,0,4.621,14.345ZM5.5,7.706A2.223,2.223,0,0,0,4.3,8.063a2.257,2.257,0,0,0-.675,3.107A5.3,5.3,0,0,0,7.238,13,1.4,1.4,0,0,0,8,12.808c1.053-.679.02-3.078-.613-4.068A2.23,2.23,0,0,0,5.5,7.706ZM17.911,5.85a1.617,1.617,0,0,0-.877.259,1.637,1.637,0,0,0-.49,2.256c.424.664,1.538,1.9,2.312,1.9a.6.6,0,0,0,.331-.094c.741-.477.606-2.773.094-3.575A1.618,1.618,0,0,0,17.911,5.85Zm-6.4-2.017A2.224,2.224,0,0,0,10.3,4.19,2.255,2.255,0,0,0,9.628,7.3c.594.93,2.036,2.276,3.089,2.276a.967.967,0,0,0,.534-.149,2.494,2.494,0,0,0,.713-2.138A5.1,5.1,0,0,0,13.4,4.867,2.228,2.228,0,0,0,11.51,3.833Z" transform="translate(24.528 7.547)" fill="#fe634f"/>
        <path id="Fill_12" data-name="Fill 12" d="M13.365,7.782a3.979,3.979,0,0,0,1.346-.705A3.382,3.382,0,0,0,15.7,5.758a4.482,4.482,0,0,0,.334-1.8,3.681,3.681,0,0,0-1.291-2.873A4.566,4.566,0,0,0,11.649,0,5,5,0,0,0,9.2.585a6.107,6.107,0,0,0-1.146.822l-.675.613L6.8,1.32A3.087,3.087,0,0,0,6.478.988,3.91,3.91,0,0,0,3.808,0,3.914,3.914,0,0,0,1.135.991,3.66,3.66,0,0,0,0,3.83V20.493A4.589,4.589,0,0,0,.81,23.17,3.686,3.686,0,0,0,4.1,24.528a3.7,3.7,0,0,0,3.294-1.361,4.614,4.614,0,0,0,.8-2.674V13.551c0-2.806.433-4.042.794-4.583A2.1,2.1,0,0,1,10.9,7.989h1.079a4.741,4.741,0,0,0,1.383-.206" transform="translate(134.962 8.491)" fill="#fe634f"/>
      </g>
    </g>
  </g>
</svg>
