<svg xmlns="http://www.w3.org/2000/svg" xmlns:xlink="http://www.w3.org/1999/xlink" width="562.889" height="325.27" viewBox="0 0 562.889 325.27">
  <defs>
    <clipPath id="clip-path">
      <path id="Clip_14" data-name="Clip 14" d="M0,0H23.463V21.976H0Z" fill="none"/>
    </clipPath>
  </defs>
  <g id="Group_11466" data-name="Group 11466" transform="translate(-410 -252)">
    <g id="Group_11462" data-name="Group 11462" transform="translate(0 -29.854)">
      <g id="Group_9891" data-name="Group 9891" transform="translate(410 281.854)">
        <g id="Group_9862" data-name="Group 9862" transform="translate(46.751)">
          <g id="Group_9861" data-name="Group 9861">
            <g id="Group_9860" data-name="Group 9860">
              <g id="Group_9859" data-name="Group 9859">
                <path id="Path_21486" data-name="Path 21486" d="M609,164.773c-.008-54.449-43.66-114.111-97.989-117.715q-1.431-.094-2.892-.166C430.234,43.122,424.3,141.778,353.831,152.9s-124.283-45.044-208.6-8.4C69.5,177.423,48.987,362.378,271.495,369.795,449.52,375.729,609.024,327.221,609,164.773Z" transform="translate(-92.863 -46.787)" fill="#ffeedb"/>
              </g>
            </g>
          </g>
        </g>
        <g id="Group_9870" data-name="Group 9870" transform="translate(270.749 68.762)">
          <g id="Group_9869" data-name="Group 9869">
            <g id="Group_9868" data-name="Group 9868">
              <g id="Group_9867" data-name="Group 9867">
                <path id="Path_21488" data-name="Path 21488" d="M349.695,125.947a11.362,11.362,0,1,1-14.837-6.171A11.363,11.363,0,0,1,349.695,125.947Z" transform="translate(-327.825 -118.914)" fill="#ddd8ce"/>
              </g>
            </g>
          </g>
        </g>
        <g id="Group_9874" data-name="Group 9874" transform="translate(439.756 293.177)">
          <g id="Group_9873" data-name="Group 9873" transform="translate(0 0)">
            <g id="Group_9872" data-name="Group 9872">
              <g id="Group_9871" data-name="Group 9871">
                <ellipse id="Ellipse_179" data-name="Ellipse 179" cx="11.362" cy="11.362" rx="11.362" ry="11.362" transform="translate(0 15.202) rotate(-41.988)" fill="#ddd8ce"/>
              </g>
            </g>
          </g>
        </g>
        <g id="Group_9878" data-name="Group 9878" transform="translate(546.467 33.632)">
          <g id="Group_9877" data-name="Group 9877">
            <g id="Group_9876" data-name="Group 9876">
              <g id="Group_9875" data-name="Group 9875">
                <path id="Path_21489" data-name="Path 21489" d="M630.736,88.914a6.848,6.848,0,1,1-6.849-6.849A6.849,6.849,0,0,1,630.736,88.914Z" transform="translate(-617.039 -82.065)" fill="#e8e4dd"/>
              </g>
            </g>
          </g>
        </g>
        <g id="Group_9882" data-name="Group 9882" transform="translate(245.996 64.061)">
          <g id="Group_9881" data-name="Group 9881">
            <g id="Group_9880" data-name="Group 9880">
              <g id="Group_9879" data-name="Group 9879">
                <path id="Path_21490" data-name="Path 21490" d="M315.042,118.222A6.849,6.849,0,1,1,306.1,114.5,6.848,6.848,0,0,1,315.042,118.222Z" transform="translate(-301.861 -113.983)" fill="#e8e4dd"/>
              </g>
            </g>
          </g>
        </g>
        <g id="Group_9890" data-name="Group 9890" transform="translate(477.349 286.486)">
          <g id="Group_9889" data-name="Group 9889">
            <g id="Group_9888" data-name="Group 9888">
              <g id="Group_9887" data-name="Group 9887">
                <path id="Path_21492" data-name="Path 21492" d="M558.1,352.771a6.849,6.849,0,1,1-8.083-5.336A6.849,6.849,0,0,1,558.1,352.771Z" transform="translate(-544.538 -347.295)" fill="#e8e4dd"/>
              </g>
            </g>
          </g>
        </g>
        <g id="Group_33_Copy_2" data-name="Group 33 Copy 2" transform="translate(0 47.016)" opacity="0.4">
          <path id="Fill_1" data-name="Fill 1" d="M8.529,11.665C10.7,10.214,10.1,4.26,8.644,2.094A4.722,4.722,0,1,0,.8,7.351c1.452,2.166,5.564,5.766,7.73,4.314" transform="translate(68.343 73.401)" fill="rgba(107,36,27,0.28)"/>
          <path id="Fill_3" data-name="Fill 3" d="M5.337,2.036a12.063,12.063,0,0,0-3.3,16.716c3.7,5.518,8.546,3.04,14.065-.657s9.65-7.241,5.952-12.758a12.062,12.062,0,0,0-16.716-3.3" transform="translate(67.751 88.445)" fill="rgba(107,36,27,0.28)"/>
          <path id="Fill_5" data-name="Fill 5" d="M1.481.566A3.339,3.339,0,0,0,.566,5.2c.015.021.035.041.051.063s.041.075.067.111C1.709,6.9,6.393,9.022,7.925,8s-.667-4.811-1.7-6.342l-.021-.027c-.031-.048-.065-.1-.1-.147A3.338,3.338,0,0,0,1.481.566" transform="translate(55.607 95.756)" fill="rgba(107,36,27,0.28)"/>
          <path id="Fill_7" data-name="Fill 7" d="M10.107,10.607C12.273,9.155,10.1,4.26,8.644,2.094A4.722,4.722,0,1,0,.8,7.351c1.453,2.166,7.141,4.708,9.307,3.256" transform="translate(55.839 81.782)" fill="rgba(107,36,27,0.28)"/>
          <path id="Fill_9" data-name="Fill 9" d="M1.521.581a3.429,3.429,0,0,0-.94,4.758c1.055,1.573,4.074,4.746,5.647,3.692s1.105-5.938.051-7.511A3.43,3.43,0,0,0,1.521.581" transform="translate(83.191 77.369)" fill="rgba(107,36,27,0.28)"/>
          <path id="Fill_11" data-name="Fill 11" d="M8.529,11.665C10.7,10.214,10.1,4.26,8.644,2.094A4.722,4.722,0,1,0,.8,7.351c1.452,2.166,5.564,5.766,7.73,4.314" transform="translate(93.736 0)" fill="rgba(107,36,27,0.28)"/>
          <g id="Group_15" data-name="Group 15" transform="translate(93.143 15.045)">
            <path id="Clip_14-2" data-name="Clip 14" d="M0,0H23.463V21.976H0Z" transform="translate(0 0)" fill="none"/>
            <g id="Group_15-2" data-name="Group 15" transform="translate(0 0)" clip-path="url(#clip-path)">
              <path id="Fill_13" data-name="Fill 13" d="M5.337,2.036a12.063,12.063,0,0,0-3.3,16.716c3.7,5.518,8.546,3.04,14.065-.657s9.65-7.241,5.952-12.758a12.062,12.062,0,0,0-16.716-3.3" fill="rgba(107,36,27,0.28)"/>
            </g>
          </g>
          <path id="Fill_16" data-name="Fill 16" d="M1.481.566A3.338,3.338,0,0,0,.566,5.2c.015.021.035.041.051.062.023.038.041.075.067.113C1.709,6.9,6.395,9.022,7.925,8S7.258,3.186,6.231,1.654l-.022-.027c-.03-.05-.065-.1-.1-.148A3.339,3.339,0,0,0,1.481.566" transform="translate(81 22.356)" fill="rgba(107,36,27,0.28)"/>
          <path id="Fill_18" data-name="Fill 18" d="M10.107,10.608c2.166-1.452-.011-6.348-1.463-8.514A4.722,4.722,0,0,0,.8,7.352c1.453,2.166,7.141,4.708,9.307,3.256" transform="translate(81.231 8.381)" fill="rgba(107,36,27,0.28)"/>
          <path id="Fill_20" data-name="Fill 20" d="M1.521.581a3.429,3.429,0,0,0-.94,4.758C1.636,6.912,4.656,10.086,6.23,9.031s1.1-5.938.05-7.511A3.43,3.43,0,0,0,1.521.581" transform="translate(108.584 3.969)" fill="rgba(107,36,27,0.28)"/>
          <path id="Fill_22" data-name="Fill 22" d="M8.529,11.665c2.166-1.452,1.568-7.405.116-9.571A4.722,4.722,0,0,0,.8,7.35c1.452,2.167,5.562,5.766,7.729,4.314" transform="translate(12.736 13.396)" fill="rgba(107,36,27,0.28)"/>
          <path id="Fill_24" data-name="Fill 24" d="M5.337,2.036a12.063,12.063,0,0,0-3.3,16.716c3.7,5.518,8.545,3.04,14.063-.657s9.651-7.241,5.954-12.758a12.062,12.062,0,0,0-16.716-3.3" transform="translate(12.144 28.441)" fill="rgba(107,36,27,0.28)"/>
          <g id="Group_28" data-name="Group 28" transform="translate(0 35.751)">
            <path id="Fill_26" data-name="Fill 26" d="M1.48.566A3.339,3.339,0,0,0,.566,5.2c.013.021.035.041.05.062.024.038.042.075.068.113C1.709,6.9,6.393,9.021,7.924,8S7.257,3.186,6.23,1.654c-.006-.008-.015-.017-.021-.027-.031-.05-.065-.1-.1-.148A3.338,3.338,0,0,0,1.48.566" transform="translate(0 0)" fill="rgba(107,36,27,0.28)"/>
          </g>
          <path id="Fill_29" data-name="Fill 29" d="M10.106,10.608c2.166-1.452-.01-6.348-1.461-8.514A4.722,4.722,0,1,0,.8,7.352c1.452,2.166,7.14,4.708,9.306,3.256" transform="translate(0.231 21.777)" fill="rgba(107,36,27,0.28)"/>
          <path id="Fill_31" data-name="Fill 31" d="M1.52.581A3.43,3.43,0,0,0,.581,5.339c1.055,1.573,4.074,4.746,5.647,3.692s1.1-5.937.051-7.511A3.432,3.432,0,0,0,1.52.581" transform="translate(27.584 17.364)" fill="rgba(107,36,27,0.28)"/>
        </g>
      </g>
    </g>
    <path id="Path_21335" data-name="Path 21335" d="M334.9,286.92a86.1,86.1,0,0,0-15.149-18.636C310.4,260,302.6,260.2,298.778,261.057a14.434,14.434,0,0,0-4.375,1.748c-6.665-4.946-14.772-7.368-24.581-7.368s-17.916,2.422-24.581,7.368a14.427,14.427,0,0,0-4.376-1.748c-3.817-.858-11.621-1.06-20.976,7.227A86.184,86.184,0,0,0,204.74,286.92c-6.117,10.3-7.478,18.627-4.05,24.759,4.188,7.485,10.539,9.4,15.667,9.873a64.8,64.8,0,0,0-2.039,16.657c0,8.647,1.969,16.088,5.853,22.113a35.486,35.486,0,0,0,14.6,12.608c11.6,5.672,25.559,6.326,35.048,6.326s23.45-.654,35.048-6.326a35.476,35.476,0,0,0,14.6-12.608c3.884-6.025,5.853-13.466,5.853-22.113a64.8,64.8,0,0,0-2.039-16.657c5.129-.472,11.48-2.388,15.667-9.873,3.43-6.132,2.066-14.463-4.05-24.759ZM219.051,313c-4.537-.119-8.227-1-10.778-5.558-1.729-3.1-.3-8.956,3.937-16.082a77.832,77.832,0,0,1,13.441-16.569c6.04-5.351,10.568-5.647,12.7-5.362-6.34,7.729-10.226,17.772-13.475,27.539-1.346,4.044-2.645,7.5-3.9,10.835-.671,1.787-1.316,3.505-1.925,5.2Zm45.1,28.487c-2.25-2.245-3.425-4.6-3.425-5.773,0-1.043.178-1.117.843-1.4,1.9-.8,5.615-.89,8.25-.89s6.355.093,8.248.89c.665.279.844.355.844,1.4,0,1.168-1.177,3.526-3.424,5.773-2.211,2.21-4.571,3.4-5.669,3.4s-3.458-1.19-5.667-3.4Zm36.9,23.643c-6.668,3.257-15.494,5.026-26.889,5.377V352.7a22.962,22.962,0,0,0,7.466-5.077c1.8-1.793,5.972-6.546,5.972-11.918a9.657,9.657,0,0,0-6.163-9.407c-2.647-1.113-6.015-1.569-11.618-1.569s-8.969.456-11.62,1.569a9.658,9.658,0,0,0-6.162,9.407c0,5.372,4.176,10.124,5.972,11.918a22.962,22.962,0,0,0,7.466,5.077v17.8c-11.393-.349-20.221-2.118-26.889-5.377C228.1,360,223.006,351.2,223.006,338.209c0-11.109,2.56-17.924,6.1-27.355,1.223-3.256,2.609-6.947,4.007-11.148,7.68-23.076,15.8-35.582,36.705-35.582s29.026,12.506,36.7,35.582c1.4,4.2,2.784,7.892,4.008,11.148,3.542,9.431,6.1,16.245,6.1,27.355,0,12.987-5.1,21.791-15.582,26.917Zm30.317-57.688c-2.552,4.56-6.24,5.439-10.78,5.558-.608-1.692-1.253-3.41-1.923-5.2-1.254-3.338-2.551-6.791-3.9-10.835-3.249-9.766-7.135-19.81-13.475-27.539,2.131-.285,6.659.01,12.7,5.362a77.75,77.75,0,0,1,13.439,16.569c4.234,7.126,5.667,12.988,3.937,16.082Zm0,0" transform="translate(450.229 135.627)" fill="#fed31c"/>
    <path id="Path_21336" data-name="Path 21336" d="M238.792,286.554a5.776,5.776,0,1,0,5.7,5.776,5.744,5.744,0,0,0-5.7-5.776Zm0,0" transform="translate(466.801 150.688)" fill="#fed31c"/>
    <path id="Path_21337" data-name="Path 21337" d="M258.263,286.523a5.821,5.821,0,1,0,5.745,5.822,5.786,5.786,0,0,0-5.745-5.822Zm0,0" transform="translate(476.203 150.673)" fill="#fed31c"/>
    <path id="Path_21911" data-name="Path 21911" d="M447.182,593.927V577.136L496.831,492.8h41.983v77.942h15.333v23.182H538.813v28.842H508.148V593.927Zm60.966-23.182V517.994L478.03,570.746Z" transform="translate(369.588 -107.676)" fill="#fe634f"/>
    <path id="Path_21911-2" data-name="Path 21911" d="M447.182,593.927V577.136L496.831,492.8h41.983v77.942h15.333v23.182H538.813v28.842H508.148V593.927Zm60.966-23.182V517.994L478.03,570.746Z" transform="translate(69.588 -107.676)" fill="#fe634f"/>
  </g>
</svg>
