<svg xmlns="http://www.w3.org/2000/svg" xmlns:xlink="http://www.w3.org/1999/xlink" width="96.305" height="91.197" viewBox="0 0 96.305 91.197"><defs><clipPath id="a"><path d="M0,0H19.378V18.15H0Z" transform="translate(0.927 0.229)" fill="none"/></clipPath></defs><g transform="translate(0 0)" opacity="0.4"><path d="M7.044,9.634c1.789-1.2,1.294-6.116.1-7.9A3.9,3.9,0,1,0,.66,6.071c1.2,1.789,4.6,4.762,6.384,3.563" transform="translate(56.444 60.621)" fill="rgba(107,36,27,0.28)"/><path d="M4.407,1.682A9.963,9.963,0,0,0,1.681,15.488C4.736,20.045,8.739,18,13.3,14.945s7.97-5.98,4.916-10.537A9.962,9.962,0,0,0,4.407,1.682" transform="translate(55.955 73.047)" fill="rgba(107,36,27,0.28)"/><path d="M1.223.467A2.757,2.757,0,0,0,.467,4.293c.012.017.029.034.042.052s.034.062.055.092C1.411,5.7,5.28,7.451,6.545,6.6s-.551-3.973-1.4-5.238l-.017-.022c-.026-.04-.054-.084-.079-.121A2.757,2.757,0,0,0,1.223.467" transform="translate(45.926 79.085)" fill="rgba(107,36,27,0.28)"/><path d="M8.347,8.76c1.789-1.2-.009-5.242-1.208-7.031A3.9,3.9,0,1,0,.66,6.071c1.2,1.789,5.9,3.888,7.687,2.689" transform="translate(46.117 67.543)" fill="rgba(107,36,27,0.28)"/><path d="M1.256.48A2.832,2.832,0,0,0,.48,4.41c.871,1.3,3.365,3.92,4.664,3.049s.913-4.9.042-6.2A2.833,2.833,0,0,0,1.256.48" transform="translate(68.707 63.899)" fill="rgba(107,36,27,0.28)"/><path d="M7.044,9.634c1.789-1.2,1.294-6.116.1-7.9A3.9,3.9,0,1,0,.66,6.071c1.2,1.789,4.6,4.762,6.384,3.563" transform="translate(77.416 0)" fill="rgba(107,36,27,0.28)"/><g transform="translate(76 12.197)"><path d="M0,0H19.378V18.15H0Z" transform="translate(0.927 0.229)" fill="none"/><g clip-path="url(#a)"><path d="M4.407,1.682A9.963,9.963,0,0,0,1.681,15.488C4.736,20.045,8.739,18,13.3,14.945s7.97-5.98,4.916-10.537A9.962,9.962,0,0,0,4.407,1.682" transform="translate(0.927 0.229)" fill="rgba(107,36,27,0.28)"/></g></g><path d="M1.223.467A2.757,2.757,0,0,0,.467,4.293c.012.017.029.034.042.051s.034.062.055.093C1.411,5.7,5.281,7.451,6.545,6.6s-.551-3.972-1.4-5.237l-.018-.022c-.025-.041-.054-.085-.079-.122A2.758,2.758,0,0,0,1.223.467" transform="translate(66.897 18.463)" fill="rgba(107,36,27,0.28)"/><path d="M8.347,8.761c1.789-1.2-.009-5.243-1.208-7.032A3.9,3.9,0,0,0,.66,6.072c1.2,1.789,5.9,3.888,7.687,2.689" transform="translate(67.089 6.922)" fill="rgba(107,36,27,0.28)"/><path d="M1.256.48A2.832,2.832,0,0,0,.48,4.41c.871,1.3,3.365,3.92,4.665,3.049s.912-4.9.041-6.2A2.833,2.833,0,0,0,1.256.48" transform="translate(89.679 3.278)" fill="rgba(107,36,27,0.28)"/><path d="M7.044,9.634c1.789-1.2,1.3-6.116.1-7.905A3.9,3.9,0,0,0,.661,6.071c1.2,1.79,4.594,4.762,6.383,3.563" transform="translate(10.518 11.064)" fill="rgba(107,36,27,0.28)"/><path d="M4.407,1.682A9.963,9.963,0,0,0,1.681,15.488C4.736,20.045,8.738,18,13.3,14.945s7.971-5.98,4.917-10.537A9.962,9.962,0,0,0,4.407,1.682" transform="translate(10.03 23.489)" fill="rgba(107,36,27,0.28)"/><g transform="translate(0 29.197)"><path d="M1.222.467A2.758,2.758,0,0,0,.467,4.293c.011.017.029.034.041.051s.035.062.056.093C1.411,5.7,5.28,7.45,6.544,6.6s-.551-3.972-1.4-5.237c-.005-.007-.012-.014-.017-.022-.026-.041-.054-.085-.08-.122A2.757,2.757,0,0,0,1.222.467" transform="translate(0 0.33)" fill="rgba(107,36,27,0.28)"/></g><path d="M8.347,8.761c1.789-1.2-.008-5.243-1.207-7.032A3.9,3.9,0,1,0,.661,6.072c1.2,1.789,5.9,3.888,7.686,2.689" transform="translate(0.191 17.985)" fill="rgba(107,36,27,0.28)"/><path d="M1.255.48A2.833,2.833,0,0,0,.48,4.41c.871,1.3,3.365,3.92,4.664,3.049s.912-4.9.042-6.2A2.834,2.834,0,0,0,1.255.48" transform="translate(22.782 14.341)" fill="rgba(107,36,27,0.28)"/></g></svg>