<svg xmlns="http://www.w3.org/2000/svg" width="406.964" height="129.965" viewBox="0 0 406.964 129.965">
  <g id="Group_11460" data-name="Group 11460" transform="translate(0.23)">
    <g id="Group_470" data-name="Group 470" transform="translate(132.076 5.936)">
      <g id="Group_469" data-name="Group 469" transform="translate(0 0)">
        <g id="Group_468" data-name="Group 468" transform="translate(0 0)">
          <path id="Path_21335" data-name="Path 21335" d="M334.9,286.92a86.1,86.1,0,0,0-15.149-18.636C310.4,260,302.6,260.2,298.778,261.057a14.434,14.434,0,0,0-4.375,1.748c-6.665-4.946-14.772-7.368-24.581-7.368s-17.916,2.422-24.581,7.368a14.427,14.427,0,0,0-4.376-1.748c-3.817-.858-11.621-1.06-20.976,7.227A86.184,86.184,0,0,0,204.74,286.92c-6.117,10.3-7.478,18.627-4.05,24.759,4.188,7.485,10.539,9.4,15.667,9.873a64.8,64.8,0,0,0-2.039,16.657c0,8.647,1.969,16.088,5.853,22.113a35.486,35.486,0,0,0,14.6,12.608c11.6,5.672,25.559,6.326,35.048,6.326s23.45-.654,35.048-6.326a35.476,35.476,0,0,0,14.6-12.608c3.884-6.025,5.853-13.466,5.853-22.113a64.8,64.8,0,0,0-2.039-16.657c5.129-.472,11.48-2.388,15.667-9.873,3.43-6.132,2.066-14.463-4.05-24.759ZM219.051,313c-4.537-.119-8.227-1-10.778-5.558-1.729-3.1-.3-8.956,3.937-16.082a77.832,77.832,0,0,1,13.441-16.569c6.04-5.351,10.568-5.647,12.7-5.362-6.34,7.729-10.226,17.772-13.475,27.539-1.346,4.044-2.645,7.5-3.9,10.835-.671,1.787-1.316,3.505-1.925,5.2Zm45.1,28.487c-2.25-2.245-3.425-4.6-3.425-5.773,0-1.043.178-1.117.843-1.4,1.9-.8,5.615-.89,8.25-.89s6.355.093,8.248.89c.665.279.844.355.844,1.4,0,1.168-1.177,3.526-3.424,5.773-2.211,2.21-4.571,3.4-5.669,3.4s-3.458-1.19-5.667-3.4Zm36.9,23.643c-6.668,3.257-15.494,5.026-26.889,5.377V352.7a22.962,22.962,0,0,0,7.466-5.077c1.8-1.793,5.972-6.546,5.972-11.918a9.657,9.657,0,0,0-6.163-9.407c-2.647-1.113-6.015-1.569-11.618-1.569s-8.969.456-11.62,1.569a9.658,9.658,0,0,0-6.162,9.407c0,5.372,4.176,10.124,5.972,11.918a22.962,22.962,0,0,0,7.466,5.077v17.8c-11.393-.349-20.221-2.118-26.889-5.377C228.1,360,223.006,351.2,223.006,338.209c0-11.109,2.56-17.924,6.1-27.355,1.223-3.256,2.609-6.947,4.007-11.148,7.68-23.076,15.8-35.582,36.705-35.582s29.026,12.506,36.7,35.582c1.4,4.2,2.784,7.892,4.008,11.148,3.542,9.431,6.1,16.245,6.1,27.355,0,12.987-5.1,21.791-15.582,26.917Zm30.317-57.688c-2.552,4.56-6.24,5.439-10.78,5.558-.608-1.692-1.253-3.41-1.923-5.2-1.254-3.338-2.551-6.791-3.9-10.835-3.249-9.766-7.135-19.81-13.475-27.539,2.131-.285,6.659.01,12.7,5.362a77.75,77.75,0,0,1,13.439,16.569c4.234,7.126,5.667,12.988,3.937,16.082Zm0,0" transform="translate(-198.848 -255.437)" fill="#fed31c"/>
        </g>
        <path id="Path_21336" data-name="Path 21336" d="M238.792,286.554a5.776,5.776,0,1,0,5.7,5.776,5.744,5.744,0,0,0-5.7-5.776Zm0,0" transform="translate(-182.275 -240.376)" fill="#fed31c"/>
        <path id="Path_21337" data-name="Path 21337" d="M258.263,286.523a5.821,5.821,0,1,0,5.745,5.822,5.786,5.786,0,0,0-5.745-5.822Zm0,0" transform="translate(-172.873 -240.391)" fill="#fed31c"/>
      </g>
    </g>
    <g id="Group_11459" data-name="Group 11459" transform="translate(299.769)" style="isolation: isolate">
      <path id="Path_21911" data-name="Path 21911" d="M447.182,593.927V577.136L496.831,492.8h41.983v77.942h15.333v23.182H538.813v28.842H508.148V593.927Zm60.966-23.182V517.994L478.03,570.746Z" transform="translate(-447.182 -492.804)" fill="#fe634f"/>
    </g>
    <g id="Group_11465" data-name="Group 11465" transform="translate(-0.23)" style="isolation: isolate">
      <path id="Path_21911-2" data-name="Path 21911" d="M447.182,593.927V577.136L496.831,492.8h41.983v77.942h15.333v23.182H538.813v28.842H508.148V593.927Zm60.966-23.182V517.994L478.03,570.746Z" transform="translate(-447.182 -492.804)" fill="#fe634f"/>
    </g>
  </g>
</svg>
