<svg xmlns="http://www.w3.org/2000/svg" xmlns:xlink="http://www.w3.org/1999/xlink" width="84" height="81.903" viewBox="0 0 84 81.903"><defs><clipPath id="a"><path d="M0,0H34.99V17.829H0Z" transform="translate(0.01 0.073)" fill="none"/></clipPath></defs><g transform="translate(5)"><path d="M12.259,61.832H9.535a2.938,2.938,0,0,0-.955-2.171l-.006-.008a5.572,5.572,0,0,1,.006-7.759,2.947,2.947,0,0,0,0-4.34l0-.005a5.562,5.562,0,0,1,0-7.753,2.936,2.936,0,0,0,0-4.333,5.558,5.558,0,0,1,0-7.756,5.057,5.057,0,0,0,.7-.988,10.562,10.562,0,0,1-6.608-4.476A15.341,15.341,0,0,1,0,13.442C0,6.03,4.888,0,10.9,0s10.9,6.03,10.9,13.442A15.292,15.292,0,0,1,19,22.42a10.382,10.382,0,0,1-6.872,4.371,5.9,5.9,0,0,1-1.443,2.627,2.938,2.938,0,0,0,0,4.329,5.555,5.555,0,0,1,0,7.759,2.94,2.94,0,0,0,0,4.331l0,0a5.567,5.567,0,0,1,0,7.76l0,0a2.949,2.949,0,0,0,0,4.342,5.5,5.5,0,0,1,1.577,3.883ZM10.9,2.688c-4.506,0-8.172,4.824-8.172,10.753S6.39,24.195,10.9,24.195s8.173-4.824,8.173-10.753S15.4,2.688,10.9,2.688Z" transform="translate(57.207 20.072)" fill="#6B241B"/><path d="M2.406.737a8.392,8.392,0,0,1,.319,2.32C2.724,6.34.936,8.434,0,8.434v2.688c2.953,0,5.448-3.694,5.448-8.065A10.978,10.978,0,0,0,5.023,0Z" transform="translate(68.103 30.456)" fill="#6B241B"/><path d="M1.292,3.542,3.4,1.834A4.533,4.533,0,0,0,0,0V2.688A1.98,1.98,0,0,1,1.292,3.542Z" transform="translate(68.103 25.448)" fill="#6B241B"/><path d="M14.473,51.079H11.75a2.867,2.867,0,0,0-.695-1.93,5.659,5.659,0,0,1,0-6.9l0,0a3.021,3.021,0,0,0,0-3.855,5.644,5.644,0,0,1,0-6.892,3.012,3.012,0,0,0,0-3.854A5.4,5.4,0,0,1,9.88,24.192,5.321,5.321,0,0,1,11,20.822L2.093,12.029A6.944,6.944,0,0,1,0,7.046,7.162,7.162,0,0,1,12.19,2.062l.069.068.067-.068A7.163,7.163,0,0,1,24.517,7.046a6.944,6.944,0,0,1-2.092,4.982l-8.059,7.953A5.713,5.713,0,0,1,13.3,22.266a3.009,3.009,0,0,0,0,3.85l0,.005a5.636,5.636,0,0,1-.006,6.889,3.015,3.015,0,0,0,0,3.853,5.653,5.653,0,0,1,0,6.9l0,.007a3.025,3.025,0,0,0,0,3.855,5.414,5.414,0,0,1,1.176,3.453ZM7.142,2.688A4.393,4.393,0,0,0,2.724,7.046a4.3,4.3,0,0,0,1.292,3.081l8.242,8.135L20.5,10.127a4.294,4.294,0,0,0,1.293-3.081,4.43,4.43,0,0,0-7.541-3.082L12.259,5.934l-2-1.97A4.418,4.418,0,0,0,7.142,2.688Z" transform="translate(22 0)" fill="#6B241B"/><path d="M5.448,8.435c-.936,0-2.724-2.094-2.724-5.377A8.392,8.392,0,0,1,3.043.738L.424,0A11.042,11.042,0,0,0,0,3.058c0,4.371,2.5,8.065,5.448,8.065Z" transform="translate(0 30.455)" fill="#6B241B"/></g><g transform="translate(0 20)"><path d="M3.429,2.688V0A4.589,4.589,0,0,0,0,1.834L2.126,3.542A2,2,0,0,1,3.429,2.688Z" transform="translate(7.571 5.448)" fill="#6B241B"/><path d="M12.375,61.832H9.625a5.47,5.47,0,0,1,1.588-3.88l0,0a2.93,2.93,0,0,0,0-4.342l0,0a5.529,5.529,0,0,1,0-7.761,2.923,2.923,0,0,0,0-4.334,5.516,5.516,0,0,1,0-7.757,2.918,2.918,0,0,0,0-4.327l0-.006a5.876,5.876,0,0,1-1.456-2.627A10.493,10.493,0,0,1,2.824,22.42,15.193,15.193,0,0,1,0,13.442C0,6.03,4.934,0,11,0S22,6.03,22,13.442a15.239,15.239,0,0,1-2.7,8.8,10.666,10.666,0,0,1-6.672,4.476,5.076,5.076,0,0,0,.709.986,5.52,5.52,0,0,1,0,7.757,2.916,2.916,0,0,0,0,4.328l0,0a5.526,5.526,0,0,1,0,7.759,2.926,2.926,0,0,0,0,4.34l.006.007a5.535,5.535,0,0,1,0,7.758,2.933,2.933,0,0,0-.965,2.172ZM11,2.688c-4.549,0-8.249,4.824-8.249,10.753S6.451,24.195,11,24.195s8.25-4.824,8.25-10.753S15.549,2.688,11,2.688Z" transform="translate(0 0.072)" fill="#6B241B"/></g><g transform="translate(25 17)"><path d="M1.926,7.848A3.465,3.465,0,0,0,0,10.761H2.667c0-.152.219-.325.74-.676A3.465,3.465,0,0,0,5.333,7.172,3.464,3.464,0,0,0,3.407,4.259c-.522-.351-.74-.523-.74-.676s.219-.321.739-.673A3.458,3.458,0,0,0,5.333,0H2.667c0,.15-.219.321-.739.673A3.458,3.458,0,0,0,0,3.583,3.464,3.464,0,0,0,1.926,6.5c.521.351.74.524.74.675S2.448,7.5,1.926,7.848Z" transform="translate(22.667 0.072)" fill="#ffd41c"/><path d="M3.407,4.259c-.522-.351-.74-.523-.74-.676s.219-.321.739-.673A3.458,3.458,0,0,0,5.333,0H2.667c0,.15-.219.321-.739.673A3.458,3.458,0,0,0,0,3.583,3.464,3.464,0,0,0,1.926,6.5c.521.351.74.524.74.675s-.219.325-.74.676A3.465,3.465,0,0,0,0,10.761H2.667c0-.152.219-.325.74-.676A3.465,3.465,0,0,0,5.333,7.172,3.464,3.464,0,0,0,3.407,4.259Z" transform="translate(0 8.142)" fill="#ffd41c"/></g><g transform="translate(0 64)"><path d="M0,0H34.99V17.829H0Z" transform="translate(0.01 0.073)" fill="none"/><g clip-path="url(#a)"><path d="M3.438,2.967A3.526,3.526,0,0,0,5.385,0H2.692c0,.153-.221.327-.746.686A3.526,3.526,0,0,0,0,3.653,3.532,3.532,0,0,0,1.945,6.623c.527.358.747.534.747.688s-.221.331-.747.689A3.532,3.532,0,0,0,0,10.971H2.692c0-.155.221-.331.747-.689A3.532,3.532,0,0,0,5.385,7.312,3.532,3.532,0,0,0,3.44,4.342c-.527-.358-.747-.534-.747-.689S2.913,3.325,3.438,2.967Z" transform="translate(0 6.93)" fill="#ffd41c"/></g></g><g transform="translate(19 50)"><path d="M3.44,2.923A3.474,3.474,0,0,0,5.388,0H2.694c0,.151-.221.323-.747.676A3.474,3.474,0,0,0,0,3.6,3.48,3.48,0,0,0,1.946,6.525c.527.353.748.526.748.678s-.221.326-.748.679A3.48,3.48,0,0,0,0,10.809H2.694c0-.153.221-.326.748-.679A3.48,3.48,0,0,0,5.388,7.2,3.48,3.48,0,0,0,3.442,4.278c-.527-.353-.748-.526-.748-.679S2.915,3.276,3.44,2.923Z" transform="translate(34 0)" fill="#ffd41c"/><path d="M3.44,2.923A3.474,3.474,0,0,0,5.388,0H2.694c0,.151-.221.323-.747.676A3.474,3.474,0,0,0,0,3.6,3.48,3.48,0,0,0,1.946,6.525c.527.353.748.526.748.678s-.221.326-.748.679A3.48,3.48,0,0,0,0,10.809H2.694c0-.153.221-.326.748-.679A3.48,3.48,0,0,0,5.388,7.2,3.48,3.48,0,0,0,3.442,4.278c-.527-.353-.748-.526-.748-.679S2.915,3.276,3.44,2.923Z" transform="translate(59.612 20.094)" fill="#ffd41c"/><path d="M10.1,1.952A3.47,3.47,0,0,0,7.182,0,3.466,3.466,0,0,0,4.264,1.952c-.7,1.048-.644,1.063-1.348,0A3.466,3.466,0,0,0,0,0V2.7c.151,0,.322.22.673.749A3.463,3.463,0,0,0,3.588,5.4,3.474,3.474,0,0,0,6.507,3.452c.7-1.057.649-1.055,1.352,0A3.465,3.465,0,0,0,10.776,5.4V2.7C10.622,2.7,10.451,2.48,10.1,1.952Z" transform="translate(3 8)" fill="#ffd41c"/><path d="M0,0H2.694V2.7H0Z" transform="translate(43.449 25.499)" fill="#ffd41c"/><path d="M0,0H2.694V2.7H0Z" transform="translate(0.347 28.201)" fill="#ffd41c"/></g><g transform="translate(0 49)"><path d="M0,0H2.71V2.732H0Z" transform="translate(81.29 4.17)" fill="#ffd41c"/><path d="M0,0H2.7V2.732H0Z" transform="translate(0.01 0.073)" fill="#ffd41c"/></g><path d="M0,0H3V3H0Z" transform="translate(55 28)" fill="#ffd41c"/></svg>