<svg xmlns="http://www.w3.org/2000/svg" xmlns:xlink="http://www.w3.org/1999/xlink" width="116.063" height="79.057" viewBox="0 0 116.063 79.057"><defs><clipPath id="a"><path d="M0,0H62.476V63.754H0Z" transform="translate(0.01 0.006)" fill="none"/></clipPath></defs><g transform="translate(-695 -1327.006)"><path d="M28,32.976C28,30.657,29.914,29,32.5,29c2.638,0,4.5,1.657,4.5,3.976C37,35.343,35.138,37,32.5,37,29.914,37,28,35.343,28,32.976ZM.146,36V31.36L14.164,19.1c2.28-2.051,4.269-4.2,4.269-7.18a5.09,5.09,0,0,0-5.19-5.324c-2.959,0-5.481,2.882-5.966,6.79L0,11.967A13.453,13.453,0,0,1,13.34,0C20.519,0,26,4.836,26,11.479c0,4.69-2.183,7.718-6.161,11.235L11.69,29.8H25.224V36Z" transform="translate(695 1358)" fill="#ffd41c"/><g transform="translate(732 1327)"><path d="M0,0H62.476V63.754H0Z" transform="translate(0.01 0.006)" fill="none"/><g clip-path="url(#a)"><path d="M17.853,35.706A17.853,17.853,0,1,1,35.706,17.853,17.873,17.873,0,0,1,17.853,35.706Zm0-33.155a15.3,15.3,0,1,0,15.3,15.3A15.32,15.32,0,0,0,17.853,2.551Z" transform="translate(0 28.055)" fill="#ffd41c"/><path d="M7.651,25.5V22.889a5.723,5.723,0,0,0-.638-11.412H5.738a3.188,3.188,0,1,1,0-6.376H7.014A3.192,3.192,0,0,1,10.2,8.289v.638h2.55V8.289a5.725,5.725,0,0,0-5.1-5.673V0H5.1V2.615a5.723,5.723,0,0,0,.638,11.412H7.014a3.188,3.188,0,0,1,0,6.376H5.738A3.192,3.192,0,0,1,2.55,17.215v-.638H0v.638a5.725,5.725,0,0,0,5.1,5.673V25.5h2.55" transform="translate(11.477 33.156)" fill="#ffd41c"/><path d="M2.551,25.5H0V6.377A6.384,6.384,0,0,1,6.377,0H39.532a6.383,6.383,0,0,1,6.376,6.377v6.376h-2.55V10.2H2.551V25.5ZM6.377,2.551A3.83,3.83,0,0,0,2.551,6.377V7.651H43.358V6.377a3.83,3.83,0,0,0-3.826-3.826Z" transform="translate(16.578)" fill="#6B241B"/></g><g transform="translate(16.578 15.303)"><path d="M39.532,12.752H6.376A6.383,6.383,0,0,1,0,6.376V0H45.907V6.376A6.383,6.383,0,0,1,39.532,12.752ZM2.551,2.551V6.376A3.83,3.83,0,0,0,6.376,10.2H39.532a3.83,3.83,0,0,0,3.826-3.825V2.551Z" transform="translate(0 51.008)" fill="#6B241B"/><path d="M0,0H10.2V2.55H0Z" transform="translate(17.853 56.109)" fill="#6B241B"/><path d="M44.633,33.155H7.651v-2.55H44.633a1.276,1.276,0,0,0,1.274-1.275V15.3H0V3.826A3.83,3.83,0,0,1,3.826,0H44.633a3.83,3.83,0,0,1,3.825,3.826v25.5A3.829,3.829,0,0,1,44.633,33.155ZM2.551,7.651v5.1H45.907v-5.1Zm1.275-5.1A1.277,1.277,0,0,0,2.551,3.826V5.1H45.907V3.826a1.276,1.276,0,0,0-1.274-1.275Z" transform="translate(14.027)" fill="#6B241B"/><path d="M12.752,10.2A5.094,5.094,0,0,1,8.926,8.439a5.1,5.1,0,1,1,0-6.677A5.091,5.091,0,1,1,12.752,10.2Zm0-7.651A2.55,2.55,0,1,0,15.3,5.1,2.553,2.553,0,0,0,12.752,2.551Zm-7.651,0A2.55,2.55,0,1,0,7.651,5.1,2.553,2.553,0,0,0,5.1,2.551Z" transform="translate(39.532 17.853)" fill="#6B241B"/><path d="M0,0H2.55V12.752H0Z" transform="translate(43.357 35.706)" fill="#6B241B"/><path d="M0,0H2.55V2.55H0Z" transform="translate(21.679 35.706)" fill="#6B241B"/><path d="M0,0H2.55V2.55H0Z" transform="translate(26.779 35.706)" fill="#6B241B"/><path d="M0,0H2.55V2.55H0Z" transform="translate(31.88 35.706)" fill="#6B241B"/></g></g></g></svg>