<svg xmlns="http://www.w3.org/2000/svg" xmlns:xlink="http://www.w3.org/1999/xlink" width="105" height="79.994" viewBox="0 0 105 79.994"><defs><clipPath id="a"><path d="M0,0H41.29V79.994H0Z" transform="translate(0 0.006)" fill="none"/></clipPath><clipPath id="b"><path d="M0,0H7.732V2.581H0Z" transform="translate(0.01)" fill="none"/></clipPath></defs><g transform="translate(-314 -1318.006)"><path d="M19,32.474A4.342,4.342,0,0,1,23.5,28,4.313,4.313,0,0,1,28,32.474,4.326,4.326,0,0,1,23.5,37,4.355,4.355,0,0,1,19,32.474ZM8.7,36V9.354L0,15.826V7.432L9.917,0H17V36Z" transform="translate(314 1358)" fill="#ffd41c"/><g transform="translate(339 1318)"><g transform="translate(10.323 16.774)"><path d="M15.484,33.548H5.161a5.14,5.14,0,0,1-3.379-9.032,5.094,5.094,0,0,1,0-7.742,5.094,5.094,0,0,1,0-7.742A5.14,5.14,0,0,1,5.161,0H15.484a5.14,5.14,0,0,1,3.379,9.032,5.094,5.094,0,0,1,0,7.742,5.094,5.094,0,0,1,0,7.742,5.14,5.14,0,0,1-3.379,9.032ZM5.161,25.807a2.581,2.581,0,1,0,0,5.161H15.484a2.581,2.581,0,1,0,0-5.161Zm0-7.742a2.58,2.58,0,1,0,0,5.161H15.484a2.58,2.58,0,1,0,0-5.161Zm0-7.742a2.58,2.58,0,1,0,0,5.161H15.484a2.58,2.58,0,1,0,0-5.161Zm0-7.743a2.581,2.581,0,1,0,0,5.161H15.484a2.581,2.581,0,1,0,0-5.161Z" fill="#6B241B"/><path d="M5.71,0A5.716,5.716,0,0,0,0,5.71v.483A5.723,5.723,0,0,0,1.252,9.759a17.911,17.911,0,0,1,3.91,11.147v4.9H7.742v-4.9A20.5,20.5,0,0,0,3.266,8.146a3.135,3.135,0,0,1-.685-1.954V5.71a3.129,3.129,0,0,1,5.5-2.036,25.385,25.385,0,0,1,6.108,16.512v9.707a14.236,14.236,0,0,1-1.5,6.347L9.032,43.566V55.484h2.581V44.175L15,37.395a16.855,16.855,0,0,0,1.772-7.5V20.186a27.975,27.975,0,0,0-6.73-18.192A5.7,5.7,0,0,0,5.71,0" transform="translate(43.871 7.742)" fill="#6B241B"/></g><g transform="translate(20.645)"><path d="M0,0H41.29V79.994H0Z" transform="translate(0 0.006)" fill="none"/><g clip-path="url(#a)"><path d="M11.613,27.1H9.032V16.774H6.451A6.459,6.459,0,0,1,0,10.323V0H2.58V3.871H38.71V0h2.58V10.323a6.459,6.459,0,0,1-6.451,6.451H11.613V27.1ZM2.58,6.451v3.872a3.875,3.875,0,0,0,3.871,3.871H34.839a3.875,3.875,0,0,0,3.871-3.871V6.451Z" transform="translate(0 52.903)" fill="#6B241B"/><path d="M41.29,21.936H38.71V10.323H2.58v3.871H0V6.451A6.459,6.459,0,0,1,6.451,0H34.839A6.459,6.459,0,0,1,41.29,6.451V21.935ZM6.451,2.58A3.875,3.875,0,0,0,2.58,6.451V7.742H38.71V6.451A3.875,3.875,0,0,0,34.839,2.58Z" fill="#6B241B"/></g></g><g transform="translate(2.581 7.742)"><path d="M0,0H12.9V2.581H0Z" transform="translate(32.258 54.194)" fill="#6B241B"/><path d="M0,0H2.581V2.581H0Z" transform="translate(64.516)" fill="#fed31c"/><path d="M0,0H2.581V2.581H0Z" transform="translate(64.516 5.161)" fill="#fed31c"/><path d="M0,0H2.581V2.581H0Z" transform="translate(67.097 2.581)" fill="#fed31c"/><path d="M0,0H2.581V2.581H0Z" transform="translate(61.935 2.581)" fill="#fed31c"/><path d="M0,0H2.581V2.581H0Z" transform="translate(0 51.613)" fill="#fed31c"/><path d="M0,0H2.581V2.581H0Z" transform="translate(0 56.774)" fill="#fed31c"/></g><g transform="translate(0 61.935)"><path d="M0,0H7.732V2.581H0Z" transform="translate(0.01)" fill="none"/><g clip-path="url(#b)"><path d="M0,0H2.581V2.581H0Z" transform="translate(5.161)" fill="#fed31c"/><path d="M0,0H2.571V2.581H0Z" transform="translate(0.01)" fill="#fed31c"/></g></g><g transform="translate(2.581 2.581)"><path d="M0,0H2.581V2.581H0Z" transform="translate(72.258 18.065)" fill="#fed31c"/><path d="M0,0H2.581V2.581H0Z" transform="translate(72.258 23.226)" fill="#fed31c"/><path d="M0,0H2.581V2.581H0Z" transform="translate(74.839 20.645)" fill="#fed31c"/><path d="M0,0H2.581V2.581H0Z" transform="translate(69.677 20.645)" fill="#fed31c"/><path d="M0,0H2.581V2.581H0Z" transform="translate(10.323)" fill="#fed31c"/><path d="M0,0H2.581V2.581H0Z" transform="translate(10.323 5.161)" fill="#fed31c"/><path d="M0,0H2.581V2.581H0Z" transform="translate(12.903 2.581)" fill="#fed31c"/><path d="M0,0H2.581V2.581H0Z" transform="translate(7.742 2.581)" fill="#fed31c"/><path d="M0,0H2.581V2.581H0Z" transform="translate(0 9.032)" fill="#fed31c"/><path d="M0,0H2.581V2.581H0Z" transform="translate(0 14.194)" fill="#fed31c"/></g><g transform="translate(0 14.194)"><path d="M0,0H7.732V2.581H0Z" transform="translate(0.01)" fill="none"/><g clip-path="url(#b)"><path d="M0,0H2.581V2.581H0Z" transform="translate(5.161)" fill="#fed31c"/><path d="M0,0H2.571V2.581H0Z" transform="translate(0.01)" fill="#fed31c"/></g></g><rect width="18" height="5" transform="translate(34 17)" fill="#6B241B" opacity="0.4"/><rect width="18" height="5" transform="translate(34 27)" fill="#6B241B" opacity="0.4"/><rect width="18" height="5" transform="translate(34 37)" fill="#fed31c" stroke="#ffd500" stroke-miterlimit="10" stroke-width="1"/><rect width="18" height="5" transform="translate(34 47)" fill="#6B241B" opacity="0.4"/></g></g></svg>