<svg xmlns="http://www.w3.org/2000/svg" xmlns:xlink="http://www.w3.org/1999/xlink" width="118.129" height="65.845" viewBox="0 0 118.129 65.845"><defs><clipPath id="a"><path d="M0,0H35.893V58.131H0Z" transform="translate(0.011)" fill="none"/></clipPath></defs><g transform="translate(-1047 -1340)"><path d="M30,32.474A4.342,4.342,0,0,1,34.5,28,4.313,4.313,0,0,1,39,32.474a4.5,4.5,0,1,1-9,0ZM0,24l7.35-1.155c.5,4.267,3.1,7.38,6.65,7.38a5.877,5.877,0,1,0,.1-11.748,7.3,7.3,0,0,0-2.9.552L9.35,14.258l7.7-7.882H1.8V0H26.9V4.719l-8.15,8.887A11.225,11.225,0,0,1,28,24.952C28,31.98,22.15,37,14.15,37S.55,31.528,0,24Z" transform="translate(1047 1358)" fill="#ffd41c"/><g transform="translate(1086 1340)"><g transform="translate(23.188 6.931)"><g transform="translate(0 0.783)"><path d="M0,0H35.893V58.131H0Z" transform="translate(0.011)" fill="none"/><g clip-path="url(#a)"><path d="M14.96,17.887H10.472V0H7.48V17.887H2.992V0H0V20.868H17.952V0H14.96V17.887" transform="translate(8.976 37.264)" fill="#6B241B"/><path d="M26.929,34.283H8.977V23.743A10.463,10.463,0,0,1,0,13.415V4.471a4.488,4.488,0,0,1,8.977,0v7.453a2.99,2.99,0,0,0,2.992,2.982H12.8a5.853,5.853,0,0,1-.832-2.982V8.943a5.984,5.984,0,0,1,11.968,0v2.981a5.852,5.852,0,0,1-.832,2.982h.832a2.991,2.991,0,0,0,2.993-2.982V4.471a4.488,4.488,0,0,1,8.976,0v8.943a10.463,10.463,0,0,1-8.976,10.328V34.282ZM2.993,10.434v2.981a7.475,7.475,0,0,0,7.48,7.453h1.5V31.3H23.936V20.867h1.5a7.475,7.475,0,0,0,7.481-7.453V10.434H29.921v1.49a5.98,5.98,0,0,1-5.984,5.962H11.968a5.98,5.98,0,0,1-5.984-5.962v-1.49Zm14.96-4.471a2.99,2.99,0,0,0-2.992,2.981v2.981a2.992,2.992,0,0,0,5.984,0V8.943A2.99,2.99,0,0,0,17.952,5.963ZM31.416,2.981a1.5,1.5,0,0,0-1.5,1.49V7.453h2.993V4.471A1.5,1.5,0,0,0,31.416,2.981Zm-26.928,0a1.5,1.5,0,0,0-1.5,1.49V7.453H5.984V4.471A1.5,1.5,0,0,0,4.488,2.981Z" fill="#6B241B"/></g></g></g><path d="M0,0H2.992V2.981H0Z" transform="translate(73.144 5.962)" fill="#ffd41c"/><path d="M0,0H2.992V2.981H0Z" transform="translate(73.144 11.924)" fill="#ffd41c"/><path d="M0,0H2.992V2.981H0Z" transform="translate(76.137 8.943)" fill="#ffd41c"/><path d="M0,0H2.992V2.981H0Z" transform="translate(70.152 8.943)" fill="#ffd41c"/><path d="M0,0H2.992V2.981H0Z" transform="translate(15.734 48.256)" fill="#ffd41c"/><path d="M0,0H2.992V2.981H0Z" transform="translate(15.734 54.219)" fill="#ffd41c"/><path d="M0,0H2.992V2.981H0Z" transform="translate(18.727 51.237)" fill="#ffd41c"/><path d="M0,0H2.981V2.981H0Z" transform="translate(12.754 51.237)" fill="#ffd41c"/><path d="M0,0H2.992V2.981H0Z" transform="translate(70.526 32.419)" fill="#ffd41c"/><path d="M0,0H2.992V2.981H0Z" transform="translate(70.526 38.382)" fill="#ffd41c"/><path d="M0,0H2.992V2.981H0Z" transform="translate(73.518 35.4)" fill="#ffd41c"/><path d="M0,0H2.992V2.981H0Z" transform="translate(67.534 35.4)" fill="#ffd41c"/><path d="M0,0H2.992V2.981H0Z" transform="translate(10.311 0)" fill="#ffd41c"/><path d="M0,0H2.992V2.981H0Z" transform="translate(10.311 5.962)" fill="#ffd41c"/><path d="M0,0H2.992V2.981H0Z" transform="translate(13.303 2.981)" fill="#ffd41c"/><path d="M0,0H2.992V2.981H0Z" transform="translate(7.319 2.981)" fill="#ffd41c"/><path d="M0,0H2.992V2.981H0Z" transform="translate(2.981 21.986)" fill="#ffd41c"/><path d="M0,0H2.992V2.981H0Z" transform="translate(2.981 27.948)" fill="#ffd41c"/><path d="M0,0H2.992V2.981H0Z" transform="translate(5.973 24.967)" fill="#ffd41c"/><path d="M0,0H2.981V2.981H0Z" transform="translate(0 24.967)" fill="#ffd41c"/></g></g></svg>