<svg xmlns="http://www.w3.org/2000/svg" xmlns:xlink="http://www.w3.org/1999/xlink" width="94.987" height="95.933" viewBox="0 0 94.987 95.933"><defs><clipPath id="a"><path d="M0,0H9.988V2.824H0Z" transform="translate(0.013 0.061)" fill="none"/></clipPath></defs><g transform="translate(-0.013 -0.066)"><g transform="translate(1 4)"><path d="M1.694,36.618h0L0,34.062l9.547-6.4H40.074a10.592,10.592,0,0,0,7.558-3.15L62.326,9.724a3.9,3.9,0,0,0-2.74-6.651h-.481a3.833,3.833,0,0,0-2.277.745L41.049,15.366H22.227V12.292H27.84L42.817,1.334A6.843,6.843,0,0,1,46.89,0h.481a6.953,6.953,0,0,1,5.576,2.861l2.087-1.527A6.847,6.847,0,0,1,59.107,0h.481a6.979,6.979,0,0,1,4.9,11.9L49.792,26.68a13.606,13.606,0,0,1-9.717,4.05h-29.6L1.695,36.618ZM46.888,3.073a3.837,3.837,0,0,0-2.277.745L33.032,12.292h7.024l10.4-7.613A3.877,3.877,0,0,0,47.37,3.073Z" transform="translate(21.487 55.381)" fill="#6b241b"/><path d="M38.978,6.914a3.834,3.834,0,0,1-3.818,3.841H23.707v3.073H35.16A6.915,6.915,0,0,0,35.16,0H20.221L0,12.52l1.6,2.617L21.085,3.073H35.16a3.834,3.834,0,0,1,3.818,3.841" transform="translate(0.154 59.991)" fill="#6b241b"/><path d="M7.636,9.219h6.108a4.6,4.6,0,0,1,4.581,4.61H21.38a7.668,7.668,0,0,0-7.636-7.683H12.217V0H9.163V6.146H7.636a7.683,7.683,0,0,0,0,15.365h6.108a4.61,4.61,0,0,1,0,9.219H7.636a4.6,4.6,0,0,1-4.581-4.61H0A7.668,7.668,0,0,0,7.636,33.8H9.163V39.95h3.054V33.8h1.527a7.683,7.683,0,0,0,0-15.365H7.636a4.61,4.61,0,0,1,0-9.219" transform="translate(36.078 6.212)" fill="#fe634f"/><path d="M0,0H3.054V3.073H0Z" transform="translate(13.171 44.626)" fill="#ffd41c"/><path d="M0,0H3.054V3.073H0Z" transform="translate(13.171 50.772)" fill="#ffd41c"/><path d="M0,0H3.054V3.073H0Z" transform="translate(16.226 47.699)" fill="#ffd41c"/><path d="M0,0H3.054V3.073H0Z" transform="translate(10.117 47.699)" fill="#ffd41c"/><path d="M0,0H3.054V3.073H0Z" transform="translate(2.482 0.066)" fill="#ffd41c"/><path d="M0,0H3.054V3.073H0Z" transform="translate(2.482 6.212)" fill="#ffd41c"/></g><g transform="translate(0 7)"><path d="M0,0H9.988V2.824H0Z" transform="translate(0.013 0.061)" fill="none"/><g clip-path="url(#a)"><path d="M0,0H3.333V2.824H0Z" transform="translate(6.667 0.061)" fill="#ffd41c"/><path d="M0,0H3.321V2.824H0Z" transform="translate(0.013 0.061)" fill="#ffd41c"/></g></g><g transform="translate(18)"><path d="M0,0H3.08V3.1H0Z" transform="translate(70.84 23.28)" fill="#ffd41c"/><path d="M0,0H3.08V3.1H0Z" transform="translate(70.84 29.47)" fill="#ffd41c"/><path d="M0,0H3.08V3.1H0Z" transform="translate(73.92 26.375)" fill="#ffd41c"/><path d="M0,0H3.08V3.1H0Z" transform="translate(67.76 26.375)" fill="#ffd41c"/><path d="M29.26,58.807A29.127,29.127,0,0,0,48.767,51.32l-2.054-2.306A26.336,26.336,0,1,1,55.44,29.4,26.454,26.454,0,0,1,49.623,45.94l2.395,1.947A29.435,29.435,0,0,0,29.26,0a29.4,29.4,0,0,0,0,58.807" transform="translate(0 0.067)" fill="#fe634f"/></g></g></svg>