<svg xmlns="http://www.w3.org/2000/svg" width="93" height="89.801" viewBox="0 0 93 89.801"><g transform="translate(0 -1.166)"><g transform="translate(0 0.971)"><path d="M65.765,89.8h0A27.127,27.127,0,0,1,50.3,84.985a.1.1,0,0,0-.027.005.1.1,0,0,1-.029.006H8.017a1.606,1.606,0,0,1-1.6-1.6v-4.81H1.6a1.606,1.606,0,0,1-1.6-1.6V9.623A4.816,4.816,0,0,1,4.811,4.811h4.81a4.81,4.81,0,1,1,9.62,0h6.414a4.81,4.81,0,1,1,9.62,0h6.415a4.811,4.811,0,1,1,9.621,0h6.413a4.81,4.81,0,1,1,9.621,0h4.811a4.816,4.816,0,0,1,4.81,4.811V37.729A27.242,27.242,0,0,1,65.765,89.8Zm-.023-51.313A24.056,24.056,0,1,0,89.794,62.545,24.081,24.081,0,0,0,65.742,38.488ZM9.621,78.582v3.208H46.454a27.575,27.575,0,0,1-2.707-3.208ZM3.207,20.848V75.374H41.7A27.244,27.244,0,0,1,65.724,35.282h.027a27.179,27.179,0,0,1,8.008,1.207V20.848Zm1.6-12.83a1.606,1.606,0,0,0-1.6,1.6v8.018H73.76V9.623a1.606,1.606,0,0,0-1.6-1.6H67.346v3.209a1.605,1.605,0,0,1-1.6,1.6H59.329a1.605,1.605,0,0,1-1.6-1.6V8.018H51.312v3.209a1.605,1.605,0,0,1-1.6,1.6H43.294a1.6,1.6,0,0,1-1.6-1.6V8.018H35.275v3.209a1.6,1.6,0,0,1-1.6,1.6H27.258a1.6,1.6,0,0,1-1.6-1.6V8.018H19.241v3.209a1.6,1.6,0,0,1-1.6,1.6H11.224a1.6,1.6,0,0,1-1.6-1.6V8.018Zm57.725-4.81a1.606,1.606,0,0,0-1.6,1.6V9.623h3.208V4.811A1.606,1.606,0,0,0,62.536,3.208Zm-16.034,0a1.606,1.606,0,0,0-1.6,1.6V9.623H48.1V4.811A1.605,1.605,0,0,0,46.5,3.208Zm-16.035,0a1.606,1.606,0,0,0-1.6,1.6V9.623h3.207V4.811A1.605,1.605,0,0,0,30.466,3.208Zm-16.034,0a1.606,1.606,0,0,0-1.6,1.6V9.623h3.207V4.811A1.605,1.605,0,0,0,14.431,3.208Z" transform="translate(0 0.195)" fill="#6b241b"/></g><g transform="translate(10 27.971)"><path d="M4.852,9.715A4.858,4.858,0,1,1,9.7,4.858,4.86,4.86,0,0,1,4.852,9.715Zm0-6.477a1.619,1.619,0,1,0,1.617,1.62A1.62,1.62,0,0,0,4.852,3.238Z" transform="translate(0.182 0.139)" fill="#fe634f"/><path d="M4.852,9.715A4.858,4.858,0,1,1,9.7,4.858,4.86,4.86,0,0,1,4.852,9.715Zm0-6.477a1.619,1.619,0,1,0,1.616,1.62A1.62,1.62,0,0,0,4.852,3.238Z" transform="translate(16.355 0.139)" fill="#fe634f"/><path d="M4.852,9.715A4.858,4.858,0,1,1,9.7,4.858,4.86,4.86,0,0,1,4.852,9.715Zm0-6.477a1.619,1.619,0,1,0,1.616,1.62A1.62,1.62,0,0,0,4.852,3.238Z" transform="translate(32.528 0.139)" fill="#fe634f"/><path d="M4.852,9.715A4.858,4.858,0,1,1,9.7,4.857,4.861,4.861,0,0,1,4.852,9.715Zm0-6.477A1.62,1.62,0,1,0,6.469,4.857,1.62,1.62,0,0,0,4.852,3.238Z" transform="translate(0.182 13.093)" fill="#fe634f"/><path d="M4.852,9.715A4.858,4.858,0,1,1,9.7,4.857,4.861,4.861,0,0,1,4.852,9.715Zm0-6.477A1.62,1.62,0,1,0,6.468,4.857,1.62,1.62,0,0,0,4.852,3.238Z" transform="translate(16.355 13.093)" fill="#ffd41c"/><path d="M4.852,9.715A4.858,4.858,0,1,1,9.7,4.857,4.861,4.861,0,0,1,4.852,9.715Zm0-6.477A1.62,1.62,0,1,0,6.469,4.857,1.62,1.62,0,0,0,4.852,3.238Z" transform="translate(0.182 26.048)" fill="#fe634f"/><path d="M4.852,9.715A4.858,4.858,0,1,1,9.7,4.857,4.861,4.861,0,0,1,4.852,9.715Zm0-6.477A1.62,1.62,0,1,0,6.468,4.857,1.62,1.62,0,0,0,4.852,3.238Z" transform="translate(16.355 26.048)" fill="#fe634f"/><path d="M21.025,42.1A21.046,21.046,0,0,1,6.165,6.173,21.033,21.033,0,0,1,35.892,35.936,20.874,20.874,0,0,1,21.025,42.1Zm0-8.1a1.62,1.62,0,0,1,1.617,1.619v3.156A17.891,17.891,0,0,0,38.507,24.289H35.582a1.619,1.619,0,0,1,0-3.238h3.234A17.74,17.74,0,0,0,22.642,3.322V6.477a1.617,1.617,0,1,1-3.235,0V3.322A17.74,17.74,0,0,0,3.235,21.051H6.469a1.619,1.619,0,0,1,0,3.238H3.545A17.889,17.889,0,0,0,19.408,38.781V35.625A1.62,1.62,0,0,1,21.025,34.006Z" transform="translate(35.762 14.712)" fill="#6b241b"/><path d="M5.2,7.32,2.963,3.96a1.618,1.618,0,1,0-2.691,1.8l3.234,4.857a1.62,1.62,0,0,0,1.113.7,1.467,1.467,0,0,0,.233.017,1.611,1.611,0,0,0,1.035-.374l9.7-8.1A1.619,1.619,0,0,0,13.521.375Z" transform="translate(51.935 27.666)" fill="#fe634f"/></g></g></svg>