<svg xmlns="http://www.w3.org/2000/svg" width="92.675" height="93" viewBox="0 0 92.675 93"><g transform="translate(-0.163)"><path d="M1.83,11.818a1.83,1.83,0,0,0,1.829-1.83V1.83A1.829,1.829,0,1,0,0,1.83V9.988A1.83,1.83,0,0,0,1.83,11.818Z" transform="translate(44.508)" fill="#ffd41c"/><path d="M25.7,78.078A6.07,6.07,0,0,1,21.392,76.3l-4.039-4.039a1.829,1.829,0,0,1,2.588-2.587l4.036,4.037a2.459,2.459,0,0,0,3.46,0l3.229-3.227a2.449,2.449,0,0,0,.1-3.341,1.8,1.8,0,0,1-.516-.36,1.838,1.838,0,0,1-.367-.531L11.341,47.734a1.816,1.816,0,0,1-.526-.365,1.867,1.867,0,0,1-.23-.282,2.451,2.451,0,0,0-1.258-.346,2.425,2.425,0,0,0-1.725.713L4.368,50.677a2.454,2.454,0,0,0,0,3.452L8.4,58.16a1.828,1.828,0,1,1-2.584,2.588L1.783,56.718a6.113,6.113,0,0,1,0-8.63l3.234-3.225a6.061,6.061,0,0,1,4.312-1.78,6.166,6.166,0,0,1,2.609.581l6.089-6.079-.3-.294A6.34,6.34,0,0,1,20.166,26.8,6.337,6.337,0,0,1,24.1,17.015a6.4,6.4,0,0,1-.252-1.784,6.335,6.335,0,0,1,5.037-6.2,6.433,6.433,0,0,1-.252-1.781A6.328,6.328,0,0,1,34.972.915a6.365,6.365,0,0,1,2.187.385,3.267,3.267,0,0,1,.278-.286A4.452,4.452,0,0,1,40.576,0a13.531,13.531,0,0,1,2.45.271L55.093,2.554a6.47,6.47,0,0,1,.676-.036,6.327,6.327,0,0,1,6.09,8.116,6.33,6.33,0,0,1,5.039,6.2,6.415,6.415,0,0,1-.252,1.779,6.334,6.334,0,0,1,5.039,6.206,6.414,6.414,0,0,1-.252,1.779,6.275,6.275,0,0,1,3.183,1.722,6.347,6.347,0,0,1,0,8.965l-.3.3,6.09,6.083A6.122,6.122,0,0,1,87.658,44.7l3.232,3.222a6.111,6.111,0,0,1,0,8.631L71.285,76.136a6.118,6.118,0,0,1-8.628,0l-3.233-3.229a6.117,6.117,0,0,1-1.038-7.242l-7.505-7.5a16.546,16.546,0,0,1-1.909.1c-1,0-1.969-.067-2.9-.132-.826-.057-1.68-.117-2.445-.117-1.385,0-2.223.2-2.639.63l-.007.007-.015.014-6.854,6.846a6.113,6.113,0,0,1-.857,7.555L30.019,76.3A6.071,6.071,0,0,1,25.7,78.078Zm57.641-31.5a2.427,2.427,0,0,0-1.729.711L62.009,66.871a2.447,2.447,0,0,0,0,3.447l3.233,3.229a2.459,2.459,0,0,0,3.457,0L88.305,53.964a2.451,2.451,0,0,0,0-3.452L85.074,47.29A2.428,2.428,0,0,0,83.345,46.578ZM56.3,51.162a1.829,1.829,0,0,1,1.293,3.123L55.967,55.91a7.26,7.26,0,0,1-1.2.967l6.036,6.03L77.649,46.078l-5.917-5.909L70.5,41.4a1.829,1.829,0,1,1-2.585-2.588l2.524-2.521L72.029,34.7a2.684,2.684,0,0,0-3.8-3.793l-.028.024L66.638,32.5A1.829,1.829,0,1,1,64.05,29.91l3.191-3.193a2.685,2.685,0,0,0-3.8-3.794L61.6,24.756a1.829,1.829,0,1,1-2.581-2.592l1.833-1.826,1.6-1.6a2.685,2.685,0,0,0-3.792-3.8l-.242.24-1.6,1.6a1.829,1.829,0,1,1-2.586-2.588l1.833-1.83.007-.006.009-.009,1.592-1.585a2.678,2.678,0,0,0-1.9-4.575A2.762,2.762,0,0,0,55.4,6.2c-.059.011-.109.019-.162.024a2.675,2.675,0,0,0-1.373.733l-5.227,5.224a6.339,6.339,0,0,1-5.414,9.645l-.049,0a6.32,6.32,0,0,1-6.341,6.383h-.049c0,.008,0,.016,0,.023s0,.015,0,.023a6.327,6.327,0,0,1-6.341,6.334H30.4c0,.008,0,.016,0,.024s0,.015,0,.023a6.351,6.351,0,0,1-9.656,5.411L14.779,46,31.628,62.823l6.738-6.73a7.048,7.048,0,0,1,5.267-1.732c.883,0,1.8.064,2.688.125s1.812.126,2.682.126c2.136,0,3.486-.4,4.378-1.289L55.008,51.7A1.815,1.815,0,0,1,56.3,51.162ZM22.219,30.125a2.681,2.681,0,0,0-1.9,4.577L21.9,36.281a.054.054,0,0,0,.011.01.038.038,0,0,0,.009.009l.229.229a2.685,2.685,0,0,0,3.807-3.788l-1.836-1.833A2.674,2.674,0,0,0,22.219,30.125ZM25.4,20.541a2.682,2.682,0,0,0-1.9,4.576l3.2,3.2,1.835,1.831a2.685,2.685,0,0,0,3.8-3.79l-5.054-5.052A2.667,2.667,0,0,0,25.4,20.541Zm4.784-7.984a2.681,2.681,0,0,0-1.9,4.577l1.576,1.575.024.023,5.04,5.039a2.689,2.689,0,1,0,3.806-3.8l-6.643-6.628A2.674,2.674,0,0,0,30.188,12.557Zm4.784-7.986a2.685,2.685,0,0,0-1.9,4.577l8.249,8.234a2.684,2.684,0,0,0,4.1-3.427,13.662,13.662,0,0,1-5.27-3.264c-.9-.866-3.074-3.152-3.671-5.658A2.689,2.689,0,0,0,34.972,4.571Zm5.567-.916a2.43,2.43,0,0,0-.556.05,1.563,1.563,0,0,0,.008.179c.1,1.042,1.18,2.714,2.692,4.162a11.4,11.4,0,0,0,2.847,2.068l4.75-4.748-7.935-1.5A10.128,10.128,0,0,0,40.539,3.656Z" transform="translate(0.163 14.923)" fill="#6b241b"/><g transform="translate(11)"><path d="M7.168,9.851a1.8,1.8,0,0,0,2.574,0,1.861,1.861,0,0,0,0-2.607L3.106.539a1.8,1.8,0,0,0-2.574,0,1.86,1.86,0,0,0,0,2.606Z" transform="translate(4.168 0.014)" fill="#ffd41c"/><path d="M1.821,10.39a1.8,1.8,0,0,0,1.286-.539l6.629-6.7a1.861,1.861,0,0,0,0-2.607,1.8,1.8,0,0,0-2.574,0L.534,7.243a1.86,1.86,0,0,0,0,2.606A1.8,1.8,0,0,0,1.821,10.39Z" transform="translate(56.574 0.014)" fill="#ffd41c"/><path d="M.522.551A1.861,1.861,0,0,0,.545,3.158l0,0a1.8,1.8,0,0,0,2.572-.025A1.864,1.864,0,0,0,3.1.529,1.806,1.806,0,0,0,.522.551Z" transform="translate(0.228 78.253)" fill="#6b241b"/><path d="M1.825,3.688a1.8,1.8,0,0,0,.822-.2,1.855,1.855,0,0,0,.806-2.476A1.81,1.81,0,0,0,1.008.2L1,.2A1.85,1.85,0,0,0,.2,2.677,1.819,1.819,0,0,0,1.825,3.688Z" transform="translate(49.498 60.301)" fill="#6b241b"/></g></g></svg>