<svg xmlns="http://www.w3.org/2000/svg" xmlns:xlink="http://www.w3.org/1999/xlink" width="103.488" height="102.5" viewBox="0 0 103.488 102.5"><defs><clipPath id="a"><path d="M0,0H50.229V71.819H0Z" transform="translate(0.012 0.181)" fill="none"/></clipPath></defs><g transform="translate(-0.012 0.5)"><g transform="translate(0 30)"><path d="M0,0H50.229V71.819H0Z" transform="translate(0.012 0.181)" fill="none"/><g clip-path="url(#a)"><path d="M25.12,71.819c-8.609,0-17.758-2.855-17.758-8.145A5.374,5.374,0,0,1,9.577,59.6,16.509,16.509,0,0,1,15.7,56.7c-1.245-1.317-2.435-2.656-3.54-3.977C4.091,43.063,0,33.8,0,25.177a25.12,25.12,0,1,1,50.241,0c0,5.886-1.957,12.168-5.816,18.671a1.5,1.5,0,1,1-2.582-1.54c3.578-6.03,5.393-11.794,5.393-17.131A22.116,22.116,0,1,0,3,25.177c0,5.459,1.9,11.36,5.649,17.539A73.67,73.67,0,0,0,19.4,56.182a1.5,1.5,0,0,1,.753.75c2.1,2.064,3.855,3.6,4.963,4.53,1.119-.935,2.9-2.49,5.031-4.587a1.492,1.492,0,0,1,.654-.652,80.352,80.352,0,0,0,7.761-8.986,1.509,1.509,0,0,1,1.211-.613,1.487,1.487,0,0,1,.889.293,1.51,1.51,0,0,1,.319,2.106A81.866,81.866,0,0,1,34.545,56.7a16.5,16.5,0,0,1,6.119,2.9,5.373,5.373,0,0,1,2.214,4.072C42.878,68.964,33.729,71.819,25.12,71.819ZM18.162,59.207c-5.117,1.046-7.795,3.039-7.795,4.467,0,2.093,5.747,5.134,14.753,5.134a29.9,29.9,0,0,0,10.927-1.833c2.36-.964,3.826-2.229,3.826-3.3,0-1.428-2.676-3.42-7.791-4.466a76.833,76.833,0,0,1-6.042,5.385,1.5,1.5,0,0,1-1.839,0,75.892,75.892,0,0,1-6.039-5.386Z" transform="translate(0 0.181)" fill="#6b241b"/></g><g transform="translate(13.948 13.97)"><path d="M.426,7.976A11,11,0,1,0,11,0,10.891,10.891,0,0,0,4.418,2.189,1.515,1.515,0,0,0,6.229,4.618,7.892,7.892,0,0,1,11,3.032,7.977,7.977,0,1,1,3.333,8.813,1.513,1.513,0,1,0,.426,7.976Z" transform="translate(0.192 0.267)" fill="#fe634f"/><path d="M3.506,3.032A1.516,1.516,0,0,0,3.506,0H2.816a11.386,11.386,0,0,0-1.5.1,1.516,1.516,0,1,0,.4,3.005,8.387,8.387,0,0,1,1.1-.073h.69" transform="translate(46.041 2.969)" fill="#fe634f"/><path d="M3.511,0H3.5l-2,.009a1.516,1.516,0,0,0,.007,3.032H1.52l2-.009A1.516,1.516,0,0,0,3.511,0" transform="translate(41.036 48.452)" fill="#fe634f"/><path d="M3.511,3.032A1.516,1.516,0,0,0,3.511,0h-2a1.516,1.516,0,0,0,0,3.032h2" transform="translate(47.832 22.606)" fill="#6b241b"/><path d="M.63,4.244A1.51,1.51,0,0,0,2.742,3.9,8.35,8.35,0,0,1,3.86,2.63,1.514,1.514,0,0,0,1.809.4,11.389,11.389,0,0,0,.284,2.128,1.518,1.518,0,0,0,.63,4.244" transform="translate(39.381 5.57)" fill="#fe634f"/><path d="M3.511,0H3.5l-2,.009a1.516,1.516,0,0,0,.007,3.032H1.52l2-.009A1.516,1.516,0,0,0,3.511,0" transform="translate(49.028 48.415)" fill="#fe634f"/><path d="M3.511,0H3.5l-2,.009a1.516,1.516,0,0,0,.007,3.032h.007l2-.009A1.516,1.516,0,0,0,3.511,0" transform="translate(33.045 48.488)" fill="#fe634f"/><path d="M3.081,4.264a1.516,1.516,0,0,0,.809-2.8A8.343,8.343,0,0,1,2.561.423a1.514,1.514,0,0,0-2.1,2.185A11.385,11.385,0,0,0,2.275,4.03a1.5,1.5,0,0,0,.806.234" transform="translate(40.555 19.865)" fill="#6b241b"/><path d="M3.178,3.216a8.414,8.414,0,0,1-.153-1.6V1.534A1.514,1.514,0,0,0,1.531,0H1.513A1.514,1.514,0,0,0,0,1.5v.119A11.442,11.442,0,0,0,.209,3.8a1.513,1.513,0,1,0,2.969-.58" transform="translate(37.548 12.686)" fill="#6b241b"/><path d="M3.511,3.032A1.516,1.516,0,0,0,3.511,0h-2a1.516,1.516,0,0,0,0,3.032h2" transform="translate(55.824 22.606)" fill="#fe634f"/><path d="M3.169,4.146A1.516,1.516,0,0,0,4.107,1.44,14.4,14.4,0,0,0,2.255.2,1.515,1.515,0,0,0,.77,2.837a11.443,11.443,0,0,1,1.462.983,1.5,1.5,0,0,0,.936.326" transform="translate(79.513 24.252)" fill="#fe634f"/><path d="M3.3.015A11.322,11.322,0,0,1,1.789.121H1.505a1.516,1.516,0,0,0,.007,3.032H1.8a14.444,14.444,0,0,0,1.909-.135,1.516,1.516,0,0,0-.414-3" transform="translate(73.003 48.192)" fill="#fe634f"/></g><g transform="translate(94.417 51.582)"><path d="M2,.43A11.382,11.382,0,0,1,.645,1.575,1.6,1.6,0,0,0,.267,3.742a1.482,1.482,0,0,0,1.233.67,1.454,1.454,0,0,0,.853-.278,14.44,14.44,0,0,0,1.713-1.45,1.6,1.6,0,0,0,.051-2.2A1.459,1.459,0,0,0,2,.43" transform="translate(0.136 7.311)" fill="#6b241b"/><path d="M2.293.027A1.5,1.5,0,0,0,.543,1.269,12.026,12.026,0,0,1,.087,3.017,1.574,1.574,0,0,0,1,5.006a1.447,1.447,0,0,0,.5.091A1.5,1.5,0,0,0,2.911,4.063a15.217,15.217,0,0,0,.577-2.217A1.555,1.555,0,0,0,2.293.027" transform="translate(4.877 0.205)" fill="#6b241b"/></g><g transform="translate(70.813 36.537)"><path d="M.859.142A1.524,1.524,0,0,0,.14,2.153,11.35,11.35,0,0,1,.747,3.8,1.492,1.492,0,0,0,2.176,4.9a1.47,1.47,0,0,0,.411-.059,1.517,1.517,0,0,0,1.02-1.871A14.435,14.435,0,0,0,2.837.874,1.478,1.478,0,0,0,.859.142" transform="translate(27.384 7.509)" fill="#6b241b"/><path d="M3.453,3.026A1.5,1.5,0,0,0,4.941,1.513,1.5,1.5,0,0,0,3.453,0H1.488A1.5,1.5,0,0,0,0,1.513,1.5,1.5,0,0,0,1.488,3.026H3.453" transform="translate(6.687 0.099)" fill="#6b241b"/><path d="M3.454,0H3.447L1.481.009A1.5,1.5,0,0,0,0,1.529,1.5,1.5,0,0,0,1.488,3.035h.007L3.46,3.026a1.5,1.5,0,0,0,1.481-1.52A1.5,1.5,0,0,0,3.454,0" transform="translate(0.002 25.818)" fill="#6b241b"/><path d="M2.885,3.025q.252,0,.5.011l.067,0A1.5,1.5,0,0,0,4.939,1.592,1.5,1.5,0,0,0,3.519.014C3.308,0,3.1,0,2.885,0h-1.4A1.5,1.5,0,0,0,0,1.513,1.5,1.5,0,0,0,1.488,3.026h1.4" transform="translate(14.548 0.099)" fill="#6b241b"/><path d="M3.453,0H3.446L1.481.009A1.5,1.5,0,0,0,0,1.529,1.5,1.5,0,0,0,1.488,3.035h.007L3.46,3.026a1.5,1.5,0,0,0,1.481-1.52A1.5,1.5,0,0,0,3.453,0" transform="translate(7.863 25.782)" fill="#6b241b"/></g></g><g transform="translate(54)"><path d="M27.91,46h0a4.581,4.581,0,0,1-3.41-1.519A4.572,4.572,0,0,1,21.091,46a4.688,4.688,0,0,1-1.03-.115C12.792,44.241,7.3,38.935,6.7,32.981c-.322-3.487-.675-7.257-1.049-11.2a10,10,0,0,1-4.1-4.124A11.514,11.514,0,0,1,0,12.229,10.666,10.666,0,0,1,1.172,7.507a17,17,0,0,1,2.6-3.772A22.985,22.985,0,0,1,7.785.186a1.13,1.13,0,0,1,1.243,0C9.315.377,16.07,4.92,16.756,11.2a64.3,64.3,0,0,1,15.488,0C32.932,4.906,39.685.376,39.973.186a1.13,1.13,0,0,1,1.243,0C41.533.4,49,5.425,49,12.229a11.515,11.515,0,0,1-1.548,5.423,10,10,0,0,1-4.1,4.125c-.331,3.491-.684,7.258-1.049,11.2a13.735,13.735,0,0,1-5.788,9.454,20.008,20.008,0,0,1-7.571,3.457A4.686,4.686,0,0,1,27.91,46ZM24.733,30.572c3.274,0,5.838,1.789,5.838,4.073,0,2.047-2.09,3.742-4.97,4.029v2.934a2.22,2.22,0,0,0,.881,1.769,2.357,2.357,0,0,0,1.43.487,2.387,2.387,0,0,0,.526-.059,17.766,17.766,0,0,0,6.722-3.064,11.639,11.639,0,0,0,4.945-7.965c.354-3.831.727-7.806,1.107-11.816a1.079,1.079,0,0,1,.7-.9c2.793-1.036,4.881-4.989,4.881-7.831a10.141,10.141,0,0,0-2.47-6.175A21.419,21.419,0,0,0,40.6,2.4a21.516,21.516,0,0,0-3.734,3.659,10.139,10.139,0,0,0-2.472,6.168q0,.081,0,.162a1.052,1.052,0,0,1-.37.825,1.119,1.119,0,0,1-.732.27,1.14,1.14,0,0,1-.158-.011,62.012,62.012,0,0,0-17.266,0,1.142,1.142,0,0,1-.158.011,1.116,1.116,0,0,1-.732-.27,1.05,1.05,0,0,1-.37-.825q0-.081,0-.162a10.138,10.138,0,0,0-2.47-6.167A21.513,21.513,0,0,0,8.406,2.4,21.5,21.5,0,0,0,4.673,6.062,10.139,10.139,0,0,0,2.2,12.229c0,2.842,2.087,6.8,4.881,7.831a1.076,1.076,0,0,1,.7.9c.37,3.888.743,7.866,1.109,11.823C9.4,37.833,14.2,42.366,20.56,43.8a2.391,2.391,0,0,0,.527.059,2.329,2.329,0,0,0,1.431-.487,2.222,2.222,0,0,0,.881-1.769V38.614a6.5,6.5,0,0,1-3.231-1.4,3.378,3.378,0,0,1-1.274-2.567C18.895,32.361,21.459,30.572,24.733,30.572Zm0,2.136c-2.143,0-3.637,1.021-3.637,1.938s1.494,1.938,3.637,1.938,3.636-1.021,3.636-1.938S26.876,32.708,24.733,32.708Z" transform="translate(0 0)" fill="#fe634f" stroke="#fe634f" stroke-miterlimit="10" stroke-width="1"/><path d="M1.065,0A1.07,1.07,0,1,1,0,1.07,1.067,1.067,0,0,1,1.065,0" transform="translate(15.978 25.674)" fill="#fe634f" stroke="#fe634f" stroke-miterlimit="10" stroke-width="2"/><path d="M1.065,0A1.07,1.07,0,1,1,0,1.07,1.067,1.067,0,0,1,1.065,0" transform="translate(29.826 25.674)" fill="#fe634f" stroke="#fe634f" stroke-miterlimit="10" stroke-width="2"/><path d="M.473.209a1.057,1.057,0,0,0-.31,1.444,1.032,1.032,0,0,0,.875.486,1.022,1.022,0,0,0,.556-.164q.06-.039.124-.087a1.058,1.058,0,0,0,.2-1.47A1.028,1.028,0,0,0,.473.209" transform="translate(38.348 13.907)" fill="#fe634f" stroke="#fe634f" stroke-miterlimit="10" stroke-width="2"/><path d="M2.177.428A1.384,1.384,0,0,0,.542.149a.824.824,0,0,0-.354,1.29A4.318,4.318,0,0,1,.882,2.55a1.187,1.187,0,0,0,1.13.659,1.476,1.476,0,0,0,.348-.041A.916.916,0,0,0,3.143,2,6.011,6.011,0,0,0,2.177.428" transform="translate(38.348 8.558)" fill="#fe634f" stroke="#fe634f" stroke-miterlimit="10" stroke-width="2"/><path d="M2.768,5.565a4.168,4.168,0,0,1-.891-2.134,4.147,4.147,0,0,1,.647-1.82A1.12,1.12,0,0,0,2.241.166a.883.883,0,0,0-1.3.314A6.073,6.073,0,0,0,0,3.432,5.923,5.923,0,0,0,1.753,7.324a.864.864,0,0,0,.5.164A.918.918,0,0,0,3.049,7a1.12,1.12,0,0,0-.281-1.439" transform="translate(7.457 8.558)" fill="#fe634f" stroke="#fe634f" stroke-miterlimit="10" stroke-width="2"/></g></g></svg>