<svg xmlns="http://www.w3.org/2000/svg" width="123.2" height="18.1" viewBox="0 0 123.2 18.1"><g transform="translate(-0.4 -0.9)" opacity="0.5"><path d="M0,17.5V0H6.9A4.253,4.253,0,0,1,11,4.4,3.7,3.7,0,0,1,8.9,8c1.7,0,3.7,2.1,3.7,4.4a5.033,5.033,0,0,1-5,5.1Z" transform="translate(0.4 1.3)" fill="#6b241b"/><path d="M8.5,17.5,3.3,10v7.5H0V0H6a5.149,5.149,0,0,1,5.3,5.3A4.876,4.876,0,0,1,7,10.1c.3.5,5.6,7.4,5.6,7.4Z" transform="translate(20.1 1.3)" fill="#6b241b"/><path d="M0,17.5V0H3.3V17.5Z" transform="translate(39.8 1.3)" fill="#6b241b"/><path d="M7,3V17.5H3.6V3H0V0H10.5V3.1H7Z" transform="translate(50.6 1.3)" fill="#6b241b"/><path d="M8.5,18A8.711,8.711,0,0,1,0,9.1,8.925,8.925,0,0,1,8.7,0,11.25,11.25,0,0,1,13,1.1V4.8A6.424,6.424,0,0,0,8.7,3.2,5.557,5.557,0,0,0,3.4,8.9c0,3.1,2.2,6,5.3,6a7.139,7.139,0,0,0,4.4-1.6v3.5A8.854,8.854,0,0,1,8.5,18Z" transform="translate(87.4 1)" fill="#6b241b"/><path d="M0,9A8.878,8.878,0,0,1,8.9,0a9.026,9.026,0,0,1,9,9,9.178,9.178,0,0,1-9.1,9A8.857,8.857,0,0,1,0,9Z" transform="translate(105.7 0.9)" fill="#6b241b"/><path d="M13.6,8.4V5.1H8.5V0H5.1V5.1H0V8.4H5.1v5.2H8.5V8.4Z" transform="translate(67.1 3.4)" fill="#6b241b"/></g></svg>