<svg xmlns="http://www.w3.org/2000/svg" width="121.2" height="18" viewBox="0 0 121.2 18"><g transform="translate(-0.3)" opacity="0.5"><path d="M3.8,4.4c0,2.4-.2,10-.2,10,0,1.4.4,2.1,1.8,2.1v.7H0v-.7a1.856,1.856,0,0,0,2.1-2.1L2.6,2A1.808,1.808,0,0,0,.8.6V0H4.9L9.2,11.5,13.6,0h3.7V.5c-1.1,0-1.6.4-1.6,1.6L16.1,14c0,1.7.3,2.3,1.7,2.3V17H11.5v-.7c1.2,0,1.7-.4,1.7-2.3,0,0-.2-8.3-.3-9.9l-3,8.2a30.652,30.652,0,0,0-1.1,3.6l-.8.2a18.852,18.852,0,0,0-.9-2.5S4.7,6.8,3.8,4.4Z" transform="translate(54.2 0.5)" fill="#6b241b"/><path d="M13.3,17.6a3.4,3.4,0,0,0-1-.1c-.7,0-1.7.3-3.1.3-5.3,0-9.2-3.1-9.2-9C0,3.8,3.7,0,9.2,0a9.534,9.534,0,0,1,4,.8,4.233,4.233,0,0,0,.5-.7h.4c0,.9-.3,3.8-.3,3.8h-.4c-.3-1.7-1.2-2.8-4-2.8C6,1.1,2.9,3.8,2.9,8.7c0,5.6,3.1,8,6.6,8a5.079,5.079,0,0,0,4.6-2.9l.5.2-1.3,3.6Z" transform="translate(39.6 0.1)" fill="#6b241b"/><path d="M12.4,3.6h-.5c-.1-1.5-.5-2.1-1.7-2.1H7.8V14.3c0,2.1.4,2.5,1.7,2.5v.7H3.4v-.7c1.4,0,1.7-.4,1.7-2.6V1.6H2.7C1.2,1.6,1,2,.5,3.7H0L.4,0,.9.1c.1.4.4.4,1.4.4h7.9c1.4,0,1.7,0,2.1-.4h.4l-.3,3.5Z" transform="translate(25.1 0.1)" fill="#6b241b"/><path d="M5,17.9a6.68,6.68,0,0,1-2.7-.4A5.305,5.305,0,0,1,.9,17a2.8,2.8,0,0,0-.5.8L0,17.7l.4-3.8.5.1c.3,1.7,1.5,3,4,3a3.287,3.287,0,0,0,3.3-3.4c0-1.4-.5-2.2-2.5-3.7C5,9.5,4.5,9.1,4,8.8,2.3,7.7,1.1,6.4,1.1,4.2c0-2.4,2.1-4,4.7-4A4.514,4.514,0,0,1,8.6.9L9.3,0l.4.1L9.3,3.6l-.5-.1c0-1.6-1-2.4-2.6-2.4A2.4,2.4,0,0,0,3.5,3.5c0,1.4,1.1,2.3,2.3,3,.7.4,1.1.8,1.6,1.1,2.8,2.1,3.5,3.4,3.5,5.3-.3,2.9-2.4,5-5.9,5Z" transform="translate(15.3 0.1)" fill="#6b241b"/><path d="M10.8,3.7h-.7a1.827,1.827,0,0,0-2-2.1H4.5V8H6.9c1.2,0,1.4-.7,1.6-1.7H9v4.6H8.5c-.1-1.2-.4-1.8-1.7-1.8H4.5v5.4c0,2.1.4,2.3,1.7,2.3v.7H0v-.7c1.5,0,1.7-.4,1.7-2.3V2.6C1.8,1.5,1.3,1,0,1V.5H8.5C9.9.5,10.2.4,10.6,0h.5l-.3,3.7Z" transform="translate(0.3)" fill="#6b241b"/><path d="M17,4.2V14c0,2.1.4,2.5,1.7,2.5v.7H9.2v-.7c.8,0,1.4-.2,1.4-.8a9.322,9.322,0,0,0-.2-1.4l-.8-2.4H4.3a25.8,25.8,0,0,0-1.1,3.6c0,.7.8.8,1.2.8V17H0v-.7c.8,0,1.4-.1,2.1-1.7L6.2,1.4A1.084,1.084,0,0,0,5.1.6V0H8.8l4.3,13.9c.4,1.4.8,2.2,1.4,2.5,1-.3,1.2-.7,1.2-2.5V2.2c-.8-1-.8-1.6-2.2-1.6V0h4.1l6.8,11.6V2.9c0-1.7-.4-2.2-1.7-2.2V0h9.1V.5c-.5,0-1.1.2-1.1.8A3.457,3.457,0,0,0,31,2.6l2.6,5.6,2.5-5.4a2.733,2.733,0,0,0,.4-1.5c0-.4-.3-.8-1.1-.8V0h4.3V.5c-1.1,0-1.7,1-2.2,2.1L34.1,9.4v4.4c0,2,.4,2.4,1.7,2.4v.7H29.6v-.7c1.3,0,1.7-.4,1.7-2.4V10L28,2.5A6.876,6.876,0,0,0,26.7.4c-.8.3-1.1.9-1.1,2.2V15.1s.1,1,.1,2.1l-1.1.1Z" transform="translate(81.8 0.5)" fill="#6b241b"/><path d="M0,17.2v-.7c1.3,0,1.7-.4,1.7-2.3V2.8C1.7,1.1,1.3.7,0,.7V0H4.7C9.3,0,12,1.4,12,5.1c0,3.9-3.3,5.7-6.3,5.7H4.5v3.5c0,1.7.4,2.2,1.8,2.2v.7Z" transform="translate(72.8 0.5)" fill="#6b241b"/><path d="M0,5.3A5.127,5.127,0,0,1,5.2,0a5.106,5.106,0,0,1,5.1,5.3,5.167,5.167,0,0,1-5.1,5.3A5.07,5.07,0,0,1,0,5.3Z" transform="translate(44.9 3.7)" fill="#6b241b"/><path d="M5.4,10V9.5c.8,0,1-.2,1-.4,0-.3-.1-.5-.1-.8A4.547,4.547,0,0,0,6,7.2H2.9L2.6,8.3a1.722,1.722,0,0,0-.1.8c0,.4.3.5.8.5V10H0V9.5c.8,0,1.1-.2,1.4-1.1L3.8,1.1C3.7.8,3.5.6,3,.6V0H5.6C7.7,6.2,8.3,7.8,8.3,7.8c.4,1.4.8,1.7,1.4,1.7V10Z" transform="translate(8.9 3.3)" fill="#6b241b"/></g></svg>