<svg xmlns="http://www.w3.org/2000/svg" width="70" height="34" viewBox="0 0 70 34"><g transform="translate(0 34) rotate(-180)"><g transform="translate(0 11)"><path d="M0,22.3V0H-6.6V7h-7.2v6.3h7.1v3H-15l.1,6.1H0Z" transform="translate(0 0.5)" fill="#6b241b"/></g><g transform="translate(-35 11)"><path d="M-14,22.3l2.6-4.7,2.9,4.7h8L-7.3,11.7,0,0H-7.9l-3.3,4.9L-14.5,0h-8.1l7.5,11.7L-22,22.4h8Z" transform="translate(-0.5 0.5)" fill="#6b241b"/></g><g transform="translate(-14 11)"><path d="M0,11.3C0,5.1-5.5,0-12.3,0S-24.6,5-24.6,11.3c0,6.2,5.5,11.3,12.3,11.3S0,17.6,0,11.3Z" transform="translate(-0.6 0.4)" fill="#6b241b"/></g><g transform="translate(-59 8)"><path d="M0,25.3-7.3,0h-3L-7,25.3Z" transform="translate(-0.3 0.7)" fill="#6b241b"/></g><g transform="translate(-52 8)"><path d="M0,14.7-9.2,0H-13l8.1,22.1L0,14.7Z" transform="translate(-0.4 0.6)" fill="#6b241b"/></g><g transform="translate(0 8)"><path d="M0,1.4V0H-59.9l.9,1.4Z" transform="translate(0 0.7)" fill="#6b241b"/></g><g transform="translate(-10)"><path d="M-7.4,7.5V2.3c0-.4.1-.6.4-.6h4.9c.2,0,.4.2.4.6h0V7.5H0V2.3A2.271,2.271,0,0,0-.6.7h0A1.8,1.8,0,0,0-2.1,0H-7A1.8,1.8,0,0,0-8.5.7h0a2.452,2.452,0,0,0-.6,1.6h0V7.5h1.7Z" fill="#6b241b"/></g><g transform="translate(-20)"><path d="M-2.1,7.5A1.8,1.8,0,0,0-.6,6.8h0A2.452,2.452,0,0,0,0,5.2H0A2.271,2.271,0,0,0-.6,3.6h0a1.8,1.8,0,0,0-1.5-.7H-6.8c-.2,0-.4-.2-.4-.6h0c0-.4.1-.6.4-.6H-.4V0H-6.8A1.8,1.8,0,0,0-8.3.7h0a2.271,2.271,0,0,0-.6,1.6h0a2.271,2.271,0,0,0,.6,1.6h0a1.8,1.8,0,0,0,1.5.7h4.7c.2,0,.4.2.4.6h0c0,.4-.1.6-.4.6H-8.5V7.6h6.4Z" transform="translate(-0.6)" fill="#6b241b"/></g><g transform="translate(-30)"><path d="M0,7.5H0V0H-1.7V7.5Z" transform="translate(-0.3)" fill="#6b241b"/></g><g transform="translate(-33)"><path d="M-6.1,7.5v-5l4.4,5H0V0H-1.7V5.1L-6.1,0H-7.8V7.5Z" transform="translate(-0.3)" fill="#6b241b"/></g><g transform="translate(-42)"><path d="M0,7.5H0V0H-7.9V1.8h6.2V2.9H-7.5V4.7h5.8V5.8H-7.9V7.6H0Z" transform="translate(-0.1)" fill="#6b241b"/></g><g transform="translate(-51)"><path d="M-2.1,7.5A1.8,1.8,0,0,0-.6,6.8h0A2.452,2.452,0,0,0,0,5.2H0A2.271,2.271,0,0,0-.6,3.6h0a1.8,1.8,0,0,0-1.5-.7H-6.8c-.2,0-.4-.2-.4-.6h0c0-.4.1-.6.4-.6H-.4V0H-6.8A1.8,1.8,0,0,0-8.3.7h0a2.271,2.271,0,0,0-.6,1.6h0a2.271,2.271,0,0,0,.6,1.6h0a1.8,1.8,0,0,0,1.5.7h4.7c.2,0,.4.2.4.6h0c0,.4-.1.6-.4.6H-8.5V7.6h6.4Z" transform="translate(-0.2)" fill="#6b241b"/></g><g transform="translate(-61)"><path d="M-2.1,7.5A1.8,1.8,0,0,0-.6,6.8h0A2.452,2.452,0,0,0,0,5.2H0A2.271,2.271,0,0,0-.6,3.6h0a1.8,1.8,0,0,0-1.5-.7H-6.8c-.2,0-.4-.2-.4-.6h0c0-.4.1-.6.4-.6H-.4V0H-6.8A1.8,1.8,0,0,0-8.3.7h0a2.271,2.271,0,0,0-.6,1.6h0a2.271,2.271,0,0,0,.6,1.6h0a1.8,1.8,0,0,0,1.5.7h4.7c.2,0,.4.2.4.6h0c0,.4-.1.6-.4.6H-8.5V7.6h6.4Z" transform="translate(-0.1)" fill="#6b241b"/></g><path d="M0,7.3V0H-7.2A2.11,2.11,0,0,0-8.8.6,1.742,1.742,0,0,0-9.3,2a1.851,1.851,0,0,0,.9,1.7,1.943,1.943,0,0,0-.8,1.6,2.166,2.166,0,0,0,.5,1.4,2.034,2.034,0,0,0,1.5.6Z" fill="#6b241b"/></g></svg>