<svg xmlns="http://www.w3.org/2000/svg" width="124" height="48" viewBox="0 0 124 48"><g opacity="0.5"><path d="M48,24A24,24,0,1,1,24,0,23.982,23.982,0,0,1,48,24" fill="#6b241b"/><path d="M0,9.373V0H4.211V8.147c0,1.594.177,3.2,2.289,3.2S8.789,9.8,8.789,8.147V0H13V9.373C13,12.984,10.67,15,6.5,15,2.194,15,0,12.984,0,9.373" transform="translate(53 9)" fill="#6b241b"/><path d="M0,12.919l2.107-2.75a4.934,4.934,0,0,0,3.63,1.717c1.153,0,1.822-.456,1.822-1.3,0-.993-1-1.3-2.633-1.757C2.676,8.2.726,7.11.726,4.588.726,1.838,3.117,0,6.505,0a7.89,7.89,0,0,1,5.253,1.664L9.751,4.414a4.2,4.2,0,0,0-3-1.261c-1.153,0-1.623.456-1.623.993,0,.9,1.153,1.167,2.434,1.529C10.05,6.4,12,7.473,12,10.129,12,12.919,9.893,15,6.021,15A8.364,8.364,0,0,1,0,12.919" transform="translate(67 9)" fill="#6b241b"/><path d="M11.489,15l-.7-2.137H5.1L4.4,15H0L5.6,0h4.749L16,15Z" transform="translate(78 9)" fill="#6b241b"/><path d="M3.777,3.465H0V0H12V3.465H8.181V15h-4.4V3.465" transform="translate(52 26)" fill="#6b241b"/><path d="M0,7.52C0,3.987,2.579,0,7.979,0,13.421,0,16,3.933,16,7.52,16,11.053,13.421,15,7.979,15,2.592,14.987,0,11.053,0,7.52Z" transform="translate(65 26)" fill="#6b241b"/><path d="M0,15V0H5.586C10.948,0,14,2.792,14,7.5c0,4.612-3.15,7.5-8.414,7.5Z" transform="translate(82 26)" fill="#6b241b"/><path d="M11.48,15l-.7-2.137h-5.7L4.378,15H0L5.586,0h4.757L16,15Z" transform="translate(95 26)" fill="#6b241b"/><path d="M5.666,9.644,0,0H4.766L6.847,3.677A11.849,11.849,0,0,1,8.028,6.466h.1A11.849,11.849,0,0,1,9.308,3.677L11.388,0H16L10.334,9.644V15H5.75V9.644" transform="translate(108 26)" fill="#6b241b"/></g></svg>