<svg xmlns="http://www.w3.org/2000/svg" width="212.3" height="18.1" viewBox="0 0 212.3 18.1"><g transform="translate(-0.408 -0.959)" opacity="0.5"><path d="M176.6,14.3l-.1-3.3c-.1-1.6-.5-1.8-1.2-1.8h-1.2v7c0,.7.2,1,.7,1.1l.6.1v.5h-5.2l.3-.4.6-.2c.5-.1.7-.4.7-1.1V1.9c0-.9-.4-1.2-1.3-1.2-1.1,0-1.4.5-1.4,1.9V13.8c0,2.8-1.2,4.3-3.6,4.3s-4-1.5-4-4.2V1.9c0-.7-.2-.9-.7-1.1l-.6-.2V.1h5.4V.6l-.7.2a.937.937,0,0,0-.8,1.1V14.1c0,2.5.7,3.1,2,3.1,1.5,0,2.1-1.1,2.1-3.4V3.6c0-2.1-.1-2.6-1-2.8l-.5-.1V.2h8.8A4.243,4.243,0,0,1,180,4.5a4.407,4.407,0,0,1-3.5,4.4c2.2.4,2.6,1.5,2.8,4.5l.2,2.3c0,1.1.1,1.4.4,1.4.4,0,.5-.6.5-1.6v-.4h.5v.6c0,1.4-.4,2.4-1.9,2.4C177.6,18.1,176.7,17.3,176.6,14.3Zm-34.7.5a1.751,1.751,0,0,1,1.8-1.9,1.2,1.2,0,0,1,1.1,1.4c-.1,1.3-1.4,1.2-1.5,2a1.341,1.341,0,0,0,1.4,1.1c1.2,0,1.4-1.4,1.4-3.1V1.9c0-.8-.3-1-.8-1.1l-.6-.2V.1H150V.6l-.6.2c-.5.1-.7.4-.7,1.1v12c0,2.8-1.7,4.2-3.8,4.2A3.079,3.079,0,0,1,141.9,14.8Zm-37.3-.5-.1-3.3c-.1-1.5-.5-1.8-1.2-1.8h-1v7c0,.7.2,1,.7,1.1l.6.1v.5H98.4l.2-.3.6-.2c.5-.1.7-.4.7-1.1V2c0-.7-.2-.9-.7-1.1L98.6.7V.2h4.9A4.243,4.243,0,0,1,108,4.5a4.407,4.407,0,0,1-3.5,4.4c2.2.4,2.6,1.4,2.8,4.5l.2,2.3c0,1.1.1,1.4.4,1.4.4,0,.5-.6.5-1.6v-.4h.5v.6c0,1.4-.4,2.4-1.9,2.4C105.6,18.1,104.7,17.3,104.6,14.3ZM53.7,18.1v-.5l.5-.1c1.1-.2,1.1-.5.8-2l-.47-2.4H51.456L51.1,14.9c-.4,1.9-.2,2.3.6,2.5l.5.1V18H48.5v-.5l.4-.1c.7-.2.8-.6,1.2-2.3L53.2.2h1l3.3,15.4c.3,1.5.5,1.8,1.4,1.8A.959.959,0,0,0,60,16.3V1.9c0-.7-.2-.9-.7-1.1L58.7.6V.1h5.4V.6l-.7.2c-.5.1-.7.4-.7,1.1h.2V17.5h1c2.2,0,2.7-2.6,3-5.3h.5v5.9Zm.692-5.7L53,5.3l-1.405,7.1ZM210.1,16.8a1.1,1.1,0,1,1,1.1,1.2A1.136,1.136,0,0,1,210.1,16.8ZM195.7,18v-.5l.5-.1c1.1-.2,1.1-.5.8-2l-.455-2.3h-3.088l-.356,1.8c-.4,1.9-.2,2.3.6,2.5l.5.1V18h-3.7v-.5l.4-.1c.7-.2.8-.6,1.2-2.3L195.2.2h1l3.3,15.4c.3,1.5.5,1.8,1.4,1.8a.958.958,0,0,0,1.1-1.1V1.9c0-.7-.2-.9-.7-1.1l-.6-.2V.1h5.4V.6l-.7.2c-.5.1-.7.4-.7,1.1l.1,15.5h1c2.2,0,2.7-2.6,3-5.3h.5V18Zm.707-5.6L195,5.3,193.6,12.4ZM180.9,18v-.5l.5-.1c.9-.2.9-1,.9-2.9V2.2c-.4-.9-.6-1.3-1-1.5l-.4-.1V.1h3.7l4.5,11.439V3.4c0-2,0-2.5-1.3-2.7l-.4-.1V.1h3.9V.6l-.4.1c-1,.3-1,.8-1,2.9V17.9h-1.1L183.1,3.875V14.7c0,2,0,2.6,1.6,2.8V18ZM150.2,9c0-4.9,1.5-9,4.7-9s4.8,4.1,4.8,9c0,5-1.5,9-4.8,9C151.8,18,150.2,13.9,150.2,9Zm-19.7,9v-.5l.7-.2c.5-.1.7-.4.7-1.1V.8h-.6c-1.6,0-2.1,2.6-2.3,5.3h-.5V.2h9.3V6.1h-.5c-.2-2.8-.7-5.3-2.3-5.3h-.6l.2,15.4c0,.8.2,1,.7,1.1l.8.2V18Zm-11.8,0v-.5l.6-.2c.5-.1.7-.4.7-1.1V1.9c0-.6-.1-.9-.7-1.1l-.6-.2V.1h8.9V6h-.5c-.3-2.8-.7-5.3-2.7-5.3h-1.8V8.3h.8c1.1,0,1.4-1,1.7-3.2h.5v7.2h-.5c-.2-2.8-.5-3.3-1.7-3.3h-.8l-.1,8.4h1.8c2.4,0,2.7-2.6,3-5.3h.5V18ZM109,18v-.5l.6-.2c.5-.1.7-.4.7-1.1V1.9c0-.6-.1-.9-.7-1.1l-.8-.2V.1h9.1V6h-.5c-.3-2.8-.7-5.3-2.7-5.3h-1.8V8.3h.8c1.1,0,1.4-1,1.7-3.2h.5v7.2h-.5c-.2-2.8-.5-3.3-1.7-3.3h-.9v8.4h1.8c2.4,0,2.7-2.6,3-5.3h.5V18ZM90.5,18v-.5l.7-.2c.5-.1.7-.4.7-1.1V.8h-.6C89.7.8,89.2,3.4,89,6.1h-.5V.2h9.4V6.1h-.5C97.2,3.3,96.7.8,95.1.8h-.6V16.2c0,.4,0,.9.7,1.1l.7.2V18ZM82,17c-.3,0-.6.1-.9.9h-.3V12h.5c.3,3.3,1.5,5.3,3.2,5.3,1.2,0,2-1.1,2-2.9,0-4-5.8-5.8-5.8-10.2,0-2.4,1.5-4.2,3.7-4.2,1.4,0,1.7.9,2.3.9.3,0,.6-.2.7-.8h.3V6h-.5c-.4-2.9-1-5.3-2.9-5.3C83,.7,82.7,2,82.7,2.8c0,3.8,5.8,5.2,5.8,10.5,0,2.7-1.7,4.7-4,4.7C83,18,82.5,17,82,17ZM67.7,18v-.5l.6-.2c.5-.1.7-.4.7-1.1V1.9c0-.7-.2-.9-.7-1.1L67.7.6V.1h5.4V.6l-.7.2c-.5.1-.7.4-.7,1.1h-.1V17.4h1c2.2,0,2.7-2.6,3-5.3h.5V18ZM45.4,18,43.008,6.315,40.8,18H39.7L36.2,2.5c-.3-1.4-.5-1.7-1-1.8L34.7.6V.1h5.1V.6l-.4.1c-.8.1-.7.9-.5,2l2,9.792,1.568-8.187L42,2.1c-.2-1-.3-1.3-.8-1.4L40.9.6V.1h5V.6l-.6.1c-.8.2-.7,1-.5,2l1.951,9.847L48.6,3.3C49,1.4,48.8,1,48,.8L47.5.7V.2H51V.7l-.5.1c-.6.2-.8.7-1.1,2.3L46.3,18ZM46.9,13.3ZM41,13ZM42.8,5.9ZM22.1,18v-.5l.6-.2c.5-.1.7-.4.7-1.1V1.9c0-.6-.1-.9-.7-1.1L22.1.6V.1H31V6h-.5C30.2,3.2,29.8.7,27.8.7H26V8.3h.8c1.1,0,1.4-1,1.7-3.2H29v7.2h-.5C28.3,9.5,28,9,26.8,9h-.9v8.4h1.8c2.4,0,2.7-2.6,3-5.3h.5V18ZM2,18v-.5l.7-.2c.5-.1.7-.4.7-1.1V.8H2.8C1.2.8.7,3.4.5,6.1H0V.2H9.3V6.1H8.8C8.6,3.3,8.1.8,6.5.8H5.9l.2,15.4c0,.8.2,1,.7,1.1l.8.2V18Zm14.2-.1v-.5l.6-.1c.5-.1.8-.4.8-1.1v-7H13.7v7c0,.7.3,1,.8,1.1l.6.1v.5H9.8v-.4l.6-.2c.5-.1.7-.4.7-1.1V1.9c0-.7-.2-.9-.7-1.1L9.8.6V.1h5.3V.6l-.6.2a1.011,1.011,0,0,0-.8,1.1V8.5h3.9V1.9A.957.957,0,0,0,16.8.8L16.2.6V.1h5.3V.6l-.6.1c-.5.1-.7.4-.7,1.1V16.1c0,.7.2,1,.7,1.1l.6.2v.5Z" transform="translate(0.408 0.959)" fill="#6b241b"/></g></svg>