<svg xmlns="http://www.w3.org/2000/svg" xmlns:xlink="http://www.w3.org/1999/xlink" width="1447.51" height="571.948" viewBox="0 0 1447.51 571.948">
  <defs>
    <clipPath id="clip-path">
      <path id="Rectangle" d="M7.51,548.863s343.653-67.965,720.5-13.8,719.5,22.015,719.5,22.015L1440,1011.507s-347-19.168-711.99,52.323S0,1011.507,0,1011.507Z" transform="translate(0 1871.538)" fill="#f9f9fa"/>
    </clipPath>
    <clipPath id="clip-path-2">
      <rect id="Rectangle_32831" data-name="Rectangle 32831" width="1020.076" height="1583.582" fill="none"/>
    </clipPath>
  </defs>
  <g id="Mask_Group_7" data-name="Mask Group 7" transform="translate(0 -2385.65)" clip-path="url(#clip-path)">
    <g id="Group_10844" data-name="Group 10844" transform="translate(-121.289 3244.761) rotate(-90)">
      <g id="Group_10843" data-name="Group 10843" transform="translate(0)" clip-path="url(#clip-path-2)">
        <g id="Group_10840" data-name="Group 10840" transform="translate(-273.233 -52.793)">
          <rect id="Rectangle_32826" data-name="Rectangle 32826" width="1177.85" height="2035.814" transform="translate(150.761 48.395)" fill="#f7f8f9"/>
          <g id="Group_10839" data-name="Group 10839">
            <g id="Group_10754" data-name="Group 10754" transform="translate(307.5 100.365)">
              <path id="Path_793" data-name="Path 793" d="M76.529,304.185a3.943,3.943,0,0,1-.416-7.864l47.853-5.161,5.206-4.149,5.75-6.327,4.053-8.3.756-12.346-8.177-59.809a2.6,2.6,0,0,1-.045-.448l-.839-36.545-2.952-40.573a3.873,3.873,0,0,1,.166-1.434l1.486-4.86a3.949,3.949,0,0,1,2.286-2.5l6.762-2.741a3.972,3.972,0,0,1,1-.263L279.878,93.542l10.886-1.678a3.923,3.923,0,0,1,2.305.352l4.847,2.324a4.066,4.066,0,0,1,1.4,1.133l7.089,9.119,5.6,4.38,3.163.538,22.982-4.431,131.682-14.8a3.944,3.944,0,0,1,.89,7.838L339.341,113.066l-23.373,4.521a3.9,3.9,0,0,1-1.415.013l-4.841-.826a3.951,3.951,0,0,1-1.761-.781L301.17,110.7a4.084,4.084,0,0,1-.685-.685l-6.82-8.773-2.914-1.4-9.8,1.5L140.9,118.624l-4.534,1.844-.724,2.363,2.9,40.028.852,36.519,8.2,59.975a3.493,3.493,0,0,1,.026.775l-.832,13.524a3.906,3.906,0,0,1-.391,1.492l-4.649,9.5a3.591,3.591,0,0,1-.621.922l-6.346,6.98a4.791,4.791,0,0,1-.455.429l-6.333,5.052a3.931,3.931,0,0,1-2.036.839l-49,5.289A3.222,3.222,0,0,1,76.529,304.185Z" transform="translate(-72.588 -90.454)" fill="#fff"/>
            </g>
            <g id="Group_10755" data-name="Group 10755" transform="translate(471.961 225.752)">
              <path id="Path_794" data-name="Path 794" d="M102.218,126.231a3.942,3.942,0,0,1-.512-7.851l62.408-8.312a3.94,3.94,0,1,1,1.037,7.812L102.73,126.2A3.544,3.544,0,0,1,102.218,126.231Z" transform="translate(-98.271 -110.035)" fill="#fff"/>
            </g>
            <g id="Group_10756" data-name="Group 10756" transform="translate(457.265 150.117)">
              <path id="Path_795" data-name="Path 795" d="M126.107,253.743H115.535a3.867,3.867,0,0,1-2.017-.564l-6.333-3.8a3.945,3.945,0,0,1-1.626-1.9l-2.222-5.462a2.851,2.851,0,0,1-.186-.589l-4.758-20.306-2.228-6.865a4.124,4.124,0,0,1-.128-1.934l1.338-7.178a4.43,4.43,0,0,1,.4-1.133l3.727-6.961a2.709,2.709,0,0,1,.333-.512l8.613-11.45L96.895,102.806a3.943,3.943,0,0,1,7.78-1.287l13.832,83.95a3.989,3.989,0,0,1-.736,3.016l-9.464,12.551-3.285,6.16-1.044,5.59,2,6.224,4.771,20.325,1.614,3.957,4.271,2.568h9.17l24.205-3.759a3.94,3.94,0,1,1,1.21,7.787l-24.513,3.8A3.813,3.813,0,0,1,126.107,253.743Z" transform="translate(-95.976 -98.223)" fill="#fff"/>
            </g>
            <g id="Group_10757" data-name="Group 10757" transform="translate(758.015 1550.093)">
              <path id="Path_796" data-name="Path 796" d="M267.529,524.439a3.733,3.733,0,0,1-1.076-.154,3.93,3.93,0,0,1-2.715-4.86L275.777,476.6l9.452-81.055,9.58-67.41L265.6,324.8,152.042,358.71l-.929.685-.275.8.6,22.617a3.95,3.95,0,0,1-3.65,4.214,3.888,3.888,0,0,1-4.214-3.644l-.2-2.734-.435-20.971a4.015,4.015,0,0,1,.2-1.326l.884-2.651a3.9,3.9,0,0,1,1.415-1.94l2.51-1.825a3.88,3.88,0,0,1,1.191-.583L264.116,317a4.053,4.053,0,0,1,1.569-.128l34.054,3.893a3.9,3.9,0,0,1,2.664,1.5,3.964,3.964,0,0,1,.788,2.965l-10.137,71.322-9.477,81.254a4.979,4.979,0,0,1-.115.615L271.32,521.563A3.943,3.943,0,0,1,267.529,524.439Z" transform="translate(-142.942 -316.85)" fill="#fff"/>
            </g>
            <g id="Group_10758" data-name="Group 10758" transform="translate(910.411 1510.995)">
              <path id="Path_797" data-name="Path 797" d="M254.924,521.847a3.858,3.858,0,0,1-1.9-.5A3.92,3.92,0,0,1,251.479,516l2.4-4.348L290.8,380.528l-1.025-22.271-6.026-12.467L275.3,334.641l-28.169-11.379-31.089-4.617-5.994.263-4.694,2.254-10.732,20.171a4.033,4.033,0,0,1-.852,1.095l-20.466,18.186a3.944,3.944,0,1,1-5.245-5.891L188,337,199,316.314a3.966,3.966,0,0,1,1.786-1.7l6.576-3.157a3.744,3.744,0,0,1,1.531-.378l7.178-.326a3.674,3.674,0,0,1,.749.039l31.921,4.751a3.654,3.654,0,0,1,.9.25l29.61,11.949a3.913,3.913,0,0,1,1.665,1.281l9.349,12.327a3.76,3.76,0,0,1,.41.66l6.544,13.556a3.811,3.811,0,0,1,.391,1.53l1.1,23.706a3.977,3.977,0,0,1-.141,1.262L261.354,514.227a4.643,4.643,0,0,1-.352.82l-2.625,4.758A3.95,3.95,0,0,1,254.924,521.847Z" transform="translate(-166.741 -310.744)" fill="#fff"/>
            </g>
            <g id="Group_10759" data-name="Group 10759" transform="translate(1128.566 1497.271)">
              <path id="Path_798" data-name="Path 798" d="M327.387,369.607a3.94,3.94,0,0,1-3.631-2.407l-13.287-31.377-1.223-1.082-.66-.288-56.9,14.856a3.978,3.978,0,0,1-1.9.013l-18.7-4.425a4.047,4.047,0,0,1-1.422-.653l-13.287-9.714a3.716,3.716,0,0,1-.845-.833l-13.953-18.8a3.946,3.946,0,1,1,6.339-4.7l13.588,18.327,12.167,8.882,16.976,4.028,57.254-14.94a3.816,3.816,0,0,1,2.555.186l2.485,1.069a3.908,3.908,0,0,1,1.057.659l2.356,2.107a3.822,3.822,0,0,1,1.018,1.4l13.64,32.21a3.93,3.93,0,0,1-3.624,5.481Z" transform="translate(-200.809 -308.601)" fill="#fff"/>
            </g>
            <g id="Group_10760" data-name="Group 10760" transform="translate(1103.219 1529.375)">
              <path id="Path_799" data-name="Path 799" d="M200.8,396.178a3.943,3.943,0,0,1-1.357-7.646L304.022,350.5l43.416-15.625,50.511-20.959a3.948,3.948,0,1,1,3.022,7.294l-50.684,21.016L306.7,357.9l-104.563,38.03A4.01,4.01,0,0,1,200.8,396.178Z" transform="translate(-196.851 -313.615)" fill="#fff"/>
            </g>
            <g id="Group_10761" data-name="Group 10761" transform="translate(1193.549 1044.467)">
              <path id="Path_800" data-name="Path 800" d="M214.9,319.994a3.938,3.938,0,0,1-1.345-7.639L315.4,275.093l-1.332-4.719-9.106-27.292a3.939,3.939,0,1,1,7.473-2.491l9.157,27.465,2.382,8.421a3.932,3.932,0,0,1-2.433,4.771L216.253,319.764A3.957,3.957,0,0,1,214.9,319.994Z" transform="translate(-210.957 -237.889)" fill="#fff"/>
            </g>
            <g id="Group_10762" data-name="Group 10762" transform="translate(965.066 705.861)">
              <path id="Path_801" data-name="Path 801" d="M243.044,325.364a3.946,3.946,0,0,1-3.554-2.235L175.673,190.666a3.939,3.939,0,1,1,7.1-3.426L246.592,319.71a3.949,3.949,0,0,1-1.838,5.264A4.01,4.01,0,0,1,243.044,325.364Z" transform="translate(-175.276 -185.011)" fill="#fff"/>
            </g>
            <g id="Group_10763" data-name="Group 10763" transform="translate(1179.904 1044.472)">
              <path id="Path_802" data-name="Path 802" d="M212.764,281.7a3.94,3.94,0,0,1-1.242-7.678L318.959,238.1a3.942,3.942,0,0,1,2.51,7.473L214.025,281.5A4.061,4.061,0,0,1,212.764,281.7Z" transform="translate(-208.826 -237.89)" fill="#fff"/>
            </g>
            <g id="Group_10764" data-name="Group 10764" transform="translate(1274.11 1219.505)">
              <path id="Path_803" data-name="Path 803" d="M261.5,392.341a3.909,3.909,0,0,1-3.663-2.5L223.815,303a3.937,3.937,0,0,1,2.222-5.11L308.508,265.5a3.939,3.939,0,1,1,2.881,7.332l-78.8,30.961,32.575,83.169a3.949,3.949,0,0,1-2.228,5.11A3.749,3.749,0,0,1,261.5,392.341Z" transform="translate(-223.538 -265.224)" fill="#fff"/>
            </g>
            <g id="Group_10765" data-name="Group 10765" transform="translate(995.829 624.061)">
              <path id="Path_804" data-name="Path 804" d="M244.761,228.641a3.915,3.915,0,0,1-3.452-2.043L216.47,181.441,185.83,197.194a3.939,3.939,0,1,1-3.605-7.006l34.035-17.513a3.948,3.948,0,0,1,5.27,1.607L248.213,222.8a3.951,3.951,0,0,1-3.451,5.846Z" transform="translate(-180.08 -172.237)" fill="#fff"/>
            </g>
            <g id="Group_10766" data-name="Group 10766" transform="translate(1081.678 718.944)">
              <path id="Path_805" data-name="Path 805" d="M258.248,236.759a3.932,3.932,0,0,1-3.56-2.228L249.2,223.183l-14.709,8.562a3.941,3.941,0,0,1-3.317.3l-16.681-5.994a3.9,3.9,0,0,1-1.351-.826l-6.423-5.974a3.863,3.863,0,0,1-1.012-1.5l-3.746-10.034-8-14.85a3.942,3.942,0,1,1,6.941-3.74l8.126,15.087a4.839,4.839,0,0,1,.224.493l3.516,9.407,5.155,4.8,14.2,5.1,16.8-9.778a3.942,3.942,0,0,1,5.533,1.7l7.332,15.176a3.931,3.931,0,0,1-3.535,5.654Z" transform="translate(-193.487 -187.054)" fill="#fff"/>
            </g>
            <g id="Group_10767" data-name="Group 10767" transform="translate(1048.96 1068.578)">
              <path id="Path_806" data-name="Path 806" d="M252.75,474.169a3.937,3.937,0,0,1-3.727-2.67L188.587,293.8a3.944,3.944,0,0,1,2.363-4.969L318.155,241.9a3.943,3.943,0,1,1,2.721,7.4L197.289,294.9,256.483,468.95a3.936,3.936,0,0,1-2.465,5A3.8,3.8,0,0,1,252.75,474.169Z" transform="translate(-188.377 -241.654)" fill="#fff"/>
            </g>
            <g id="Group_10768" data-name="Group 10768" transform="translate(1138.69 1082.402)">
              <path id="Path_807" data-name="Path 807" d="M226.756,306.63a3.943,3.943,0,0,1-3.695-2.555L202.64,249.146a3.937,3.937,0,1,1,7.377-2.753L229.08,297.64l32.6-12.051a3.941,3.941,0,1,1,2.741,7.39l-36.295,13.409A4.069,4.069,0,0,1,226.756,306.63Z" transform="translate(-202.39 -243.813)" fill="#fff"/>
            </g>
            <g id="Group_10769" data-name="Group 10769" transform="translate(1128.885 1537.621)">
              <path id="Path_808" data-name="Path 808" d="M228.991,446.889H221.9a4.023,4.023,0,0,1-1.755-.423l-5.481-2.747a3.961,3.961,0,0,1-2.036-2.44l-11.616-40.765a4.06,4.06,0,0,1-.154-1.261l.218-4.751a3.91,3.91,0,0,1,1.377-2.831l7.62-6.461a3.71,3.71,0,0,1,1.076-.64l172.165-69.382a3.945,3.945,0,1,1,2.945,7.319L214.692,391.646l-5.821,4.924-.1,2.4,10.963,38.472,3.106,1.543h5.36l64.65-26.952a3.949,3.949,0,0,1,3.029,7.293l-65.373,27.247A3.806,3.806,0,0,1,228.991,446.889Z" transform="translate(-200.859 -314.902)" fill="#fff"/>
            </g>
            <g id="Group_10770" data-name="Group 10770" transform="translate(664.275 191.73)">
              <path id="Path_809" data-name="Path 809" d="M164.994,126.745h-.064l-13.313-.2-13.435-.647a3.958,3.958,0,0,1-1.2-.25l-6.128-2.318a3.94,3.94,0,1,1,2.786-7.37l5.552,2.094,12.685.608,12.788.2,24.3-4.5,13.768-4.982,10.847-4.367a3.941,3.941,0,1,1,2.939,7.313l-10.969,4.418-14.209,5.136a3.855,3.855,0,0,1-.621.173l-25.012,4.63A3.88,3.88,0,0,1,164.994,126.745Z" transform="translate(-128.303 -104.722)" fill="#fff"/>
            </g>
            <g id="Group_10771" data-name="Group 10771" transform="translate(588.228 202.706)">
              <path id="Path_810" data-name="Path 810" d="M120.364,129.534a3.944,3.944,0,0,1-.583-7.844l64.054-9.624,10.867-5.238a3.942,3.942,0,1,1,3.426,7.1l-11.411,5.494a4.035,4.035,0,0,1-1.127.346l-64.63,9.721A3.841,3.841,0,0,1,120.364,129.534Z" transform="translate(-116.427 -106.436)" fill="#fff"/>
            </g>
            <g id="Group_10772" data-name="Group 10772" transform="translate(374.655 253.823)">
              <path id="Path_811" data-name="Path 811" d="M87.014,134.343a3.942,3.942,0,0,1-.557-7.844l83.95-12.039a3.943,3.943,0,0,1,1.127,7.806L87.578,134.3A4.177,4.177,0,0,1,87.014,134.343Z" transform="translate(-83.075 -114.419)" fill="#fff"/>
            </g>
            <g id="Group_10773" data-name="Group 10773" transform="translate(634.713 107.85)">
              <path id="Path_812" data-name="Path 812" d="M157.2,194.363a3.94,3.94,0,0,1-3.144-1.543l-4.213-5.5a3.894,3.894,0,0,1-.551-1l-2.062-5.417-12.147-24.186a4.186,4.186,0,0,1-.352-1.057l-10.976-59.38a3.939,3.939,0,1,1,7.748-1.428l10.88,58.829,11.981,23.859a3.873,3.873,0,0,1,.167.371l1.927,5.072,3.861,5.04a3.946,3.946,0,0,1-.736,5.526A3.86,3.86,0,0,1,157.2,194.363Z" transform="translate(-123.687 -91.623)" fill="#fff"/>
            </g>
            <g id="Group_10774" data-name="Group 10774" transform="translate(1142.215 885.29)">
              <path id="Path_813" data-name="Path 813" d="M211.179,326.608a8.23,8.23,0,0,1-2.837-15.958l72.052-26.37,77.828-32.69L454.6,213.612a8.226,8.226,0,1,1,6.039,15.3l-96.213,37.915-77.841,32.69-.359.147L214,326.109A8.383,8.383,0,0,1,211.179,326.608Z" transform="translate(-202.94 -213.031)" fill="#fff"/>
            </g>
            <g id="Group_10775" data-name="Group 10775" transform="translate(1079.466 1299.403)">
              <path id="Path_814" data-name="Path 814" d="M240.571,407.16a8.244,8.244,0,0,1-7.607-11.379l.128-.294-16.88-42.57-22.6-64.266a8.224,8.224,0,0,1,15.516-5.456l22.489,63.965,17.994,45.356a8.283,8.283,0,0,1-.045,6.179l-1.39,3.368A8.236,8.236,0,0,1,240.571,407.16Z" transform="translate(-193.141 -277.701)" fill="#fff"/>
            </g>
            <g id="Group_10776" data-name="Group 10776" transform="translate(85.101 1545.259)">
              <path id="Path_815" data-name="Path 815" d="M46.088,568.059a8.216,8.216,0,0,1-5.533-14.312l99-89.726a4,4,0,0,1,.48-.4L279.886,355.124l.519-1.063.038-2.235-1.972-6.845-5.846-18.128a8.229,8.229,0,1,1,15.663-5.052l5.923,18.372,2.382,8.28a8.188,8.188,0,0,1,.32,2.427l-.09,5.27a8.225,8.225,0,0,1-.813,3.413L293.884,364a8.283,8.283,0,0,1-2.369,2.939L150.362,476.412,51.6,565.933A8.2,8.2,0,0,1,46.088,568.059Z" transform="translate(-37.857 -316.095)" fill="#fff"/>
            </g>
            <g id="Group_10777" data-name="Group 10777" transform="translate(375.823 1175.545)">
              <path id="Path_816" data-name="Path 816" d="M91.478,294.719a8.221,8.221,0,0,1-.544-16.425l31.2-2.094,122.685-17.75a8.226,8.226,0,1,1,2.35,16.284L124.175,292.523c-.211.032-.41.057-.628.07l-31.512,2.113C91.85,294.719,91.664,294.719,91.478,294.719Z" transform="translate(-83.257 -258.359)" fill="#fff"/>
            </g>
            <g id="Group_10778" data-name="Group 10778" transform="translate(138.332 1199.579)">
              <path id="Path_817" data-name="Path 817" d="M295.91,297.056a3.562,3.562,0,0,1-.371-.013L243.2,294.712l-65.29-4.668L53.64,278.518a8.222,8.222,0,1,1,1.518-16.374L179.27,273.657l64.893,4.649,52.112,2.312a8.223,8.223,0,0,1-.365,16.438Z" transform="translate(-46.169 -262.112)" fill="#fff"/>
            </g>
            <g id="Group_10779" data-name="Group 10779" transform="translate(351.361 1089.089)">
              <path id="Path_818" data-name="Path 818" d="M147.186,509.883a8.234,8.234,0,0,1-7.953-6.167L108.176,384.093c-.051-.2-.1-.4-.134-.583L104.058,361.1l-24.41-106.17a8.226,8.226,0,0,1,16.034-3.682l24.461,106.369c.032.134.064.269.083.4l3.964,22.323L127.6,393.8,155.146,499.58a8.218,8.218,0,0,1-5.885,10.028A8.039,8.039,0,0,1,147.186,509.883Z" transform="translate(-79.437 -244.857)" fill="#fff"/>
            </g>
            <g id="Group_10780" data-name="Group 10780" transform="translate(671.593 1259.679)">
              <path id="Path_819" data-name="Path 819" d="M163.462,516.927c-.2,0-.4,0-.589-.013l-11.84-.865a8.21,8.21,0,0,1-3.855-1.281l-8.03-5.168a8.227,8.227,0,0,1-3.1-3.65l-5.917-13.62a8.183,8.183,0,0,1-.685-3.375l.109-9.189a8.345,8.345,0,0,1,1.236-4.233L142,457.458a8.632,8.632,0,0,1,1.511-1.8l10.028-8.971a7.422,7.422,0,0,1,.877-.672L171.735,434.3a7.851,7.851,0,0,1,1.281-.711l18.865-8.331c.256-.115.519-.2.788-.3l16.7-5.417,165.595-53.079,167.746-54.743,25.364-10.361L647.4,272.006a8.231,8.231,0,0,1,5.712,15.439L574.035,316.69l-25.377,10.374a3.379,3.379,0,0,1-.557.2L380.022,382.108,198.143,440.476l-17.8,7.851-16.265,11-8.722,7.812-9.381,15.112-.051,5.136,4.22,9.727,4.169,2.677,8.946.653,31.717-3.868,32.933-7.716a8.221,8.221,0,1,1,3.752,16.009l-33.375,7.819a7.291,7.291,0,0,1-.871.154l-32.952,4.028A7.471,7.471,0,0,1,163.462,516.927Z" transform="translate(-129.446 -271.498)" fill="#fff"/>
            </g>
            <g id="Group_10781" data-name="Group 10781" transform="translate(733.579 563.704)">
              <path id="Path_820" data-name="Path 820" d="M300.124,508.754a8.214,8.214,0,0,1-6.961-3.842l-24.506-38.824a4.886,4.886,0,0,1-.359-.647l-16.143-31.582c-.115-.237-.231-.48-.327-.736L225.12,365.181l-20.094-46.156-22.15-52.15L146.8,195.027a8.028,8.028,0,0,1-.455-1.082l-6.794-20.3a8.229,8.229,0,0,1,15.612-5.212l6.6,19.742,35.93,71.546q.125.24.23.48l22.22,52.323,20.177,46.368L267,426.732l15.778,30.891,24.289,38.51a8.219,8.219,0,0,1-6.941,12.621Z" transform="translate(-139.126 -162.811)" fill="#fff"/>
            </g>
            <g id="Group_10782" data-name="Group 10782" transform="translate(798.797 615.33)">
              <path id="Path_821" data-name="Path 821" d="M157.547,280.4a8.228,8.228,0,0,1-3.8-15.529l96.206-49.992,85-43.115a8.225,8.225,0,0,1,7.441,14.67l-84.923,43.076-96.136,49.96A8.155,8.155,0,0,1,157.547,280.4Z" transform="translate(-149.311 -170.873)" fill="#fff"/>
            </g>
            <g id="Group_10783" data-name="Group 10783" transform="translate(573.499 278.165)">
              <path id="Path_822" data-name="Path 822" d="M169.491,399.636a8.234,8.234,0,0,1-7.844-5.757L114.5,243.864a8.311,8.311,0,0,1-.3-3.592l.929-6.7a8.243,8.243,0,0,1,1.748-4.047l4.969-6.147a8.293,8.293,0,0,1,3.157-2.389l44.786-19.2L337,119.073a8.228,8.228,0,0,1,7.3,14.747l-167.407,82.8c-.141.064-.275.128-.41.186L133.363,235.3l-2.254,2.779-.346,2.613,46.579,148.247a8.228,8.228,0,0,1-7.851,10.694Z" transform="translate(-114.127 -118.22)" fill="#fff"/>
            </g>
            <g id="Group_10784" data-name="Group 10784" transform="translate(656.592 656.082)">
              <path id="Path_823" data-name="Path 823" d="M135.33,246.138a8.228,8.228,0,0,1-3.3-15.765l119.982-52.445A8.227,8.227,0,0,1,258.61,193l-120,52.445A8.181,8.181,0,0,1,135.33,246.138Z" transform="translate(-127.103 -177.237)" fill="#fff"/>
            </g>
            <g id="Group_10785" data-name="Group 10785" transform="translate(655.355 754.837)">
              <path id="Path_824" data-name="Path 824" d="M135.131,240.832a8.228,8.228,0,0,1-.307-16.451l71.95-2.709,25.006-4.515,20.959-6.717,42.993-17.193a8.226,8.226,0,0,1,6.1,15.279l-43.249,17.3c-.179.07-.371.134-.544.2l-21.765,6.973a8.267,8.267,0,0,1-1.044.263l-26.107,4.713a8.658,8.658,0,0,1-1.159.122l-72.52,2.734Z" transform="translate(-126.91 -192.659)" fill="#fff"/>
            </g>
            <g id="Group_10786" data-name="Group 10786" transform="translate(657.723 893.195)">
              <path id="Path_825" data-name="Path 825" d="M135.5,280.506a8.226,8.226,0,0,1-.077-16.451l56.761-.57,64.093-4.463,77.636-30.09L360.336,215.2a8.224,8.224,0,0,1,7.588,14.594l-26.818,13.947a7.36,7.36,0,0,1-.826.371l-79.211,30.7a8.633,8.633,0,0,1-2.4.531L193.1,279.916c-.166.013-.333.019-.493.019l-57.01.57Z" transform="translate(-127.28 -214.266)" fill="#fff"/>
            </g>
            <g id="Group_10787" data-name="Group 10787" transform="translate(655.595 822.787)">
              <path id="Path_826" data-name="Path 826" d="M135.172,260.515a8.23,8.23,0,0,1-.211-16.457l87.766-2.248,99.632-38a8.225,8.225,0,0,1,5.866,15.369l-100.958,38.5a8.191,8.191,0,0,1-2.715.538L135.4,260.509C135.32,260.515,135.243,260.515,135.172,260.515Z" transform="translate(-126.948 -203.27)" fill="#fff"/>
            </g>
            <g id="Group_10788" data-name="Group 10788" transform="translate(903.784 198.127)">
              <path id="Path_827" data-name="Path 827" d="M367.058,484.938a8.245,8.245,0,0,1-1.94-.231l-3.9-.948a8.265,8.265,0,0,1-4.1-2.42l-3.605-3.913a8.888,8.888,0,0,1-1.383-2.043l-15.778-33.208-24.257-45.337L257.8,291.219,166.648,117.774a8.231,8.231,0,0,1,14.574-7.652L272.4,283.637l54.27,105.555,24.289,45.394c.058.115.122.231.173.352L366.463,467.2l.73.794,2.356-.794,129.7-63.279a8.226,8.226,0,0,1,7.217,14.786l-130.19,63.516a9.4,9.4,0,0,1-.986.4l-5.609,1.889A8.314,8.314,0,0,1,367.058,484.938Z" transform="translate(-165.706 -105.721)" fill="#fff"/>
            </g>
            <g id="Group_10789" data-name="Group 10789" transform="translate(639.904 584.001)">
              <path id="Path_828" data-name="Path 828" d="M132.731,229.685a8.231,8.231,0,0,1-3.509-15.676l100.471-47.245a8.226,8.226,0,1,1,7,14.888L136.228,228.9A8.215,8.215,0,0,1,132.731,229.685Z" transform="translate(-124.497 -165.981)" fill="#fff"/>
            </g>
            <g id="Group_10790" data-name="Group 10790" transform="translate(786.188 149.181)">
              <path id="Path_829" data-name="Path 829" d="M155.573,232.979a8.232,8.232,0,0,1-4.335-15.227l34.387-21.247,64.253-38.639q.259-.154.519-.288L268.89,148.2l67.781-48.583a8.227,8.227,0,0,1,9.58,13.377l-68.287,48.948a7.992,7.992,0,0,1-1.076.647l-18.781,9.535-63.92,38.434L159.9,231.743A8.175,8.175,0,0,1,155.573,232.979Z" transform="translate(-147.342 -98.077)" fill="#fff"/>
            </g>
            <g id="Group_10791" data-name="Group 10791" transform="translate(639.907 631.249)">
              <path id="Path_830" data-name="Path 830" d="M150.428,521.511h-.051a8.225,8.225,0,0,1-8.177-8.273l.115-19.966-2.126-79.134-.243-77.22,1.223-77.239-16.483-76.355a8.222,8.222,0,1,1,16.073-3.471l16.694,77.277a8.665,8.665,0,0,1,.179,1.863L156.4,337.019l.25,76.868,2.126,79.218-.122,20.229A8.23,8.23,0,0,1,150.428,521.511Z" transform="translate(-124.498 -173.359)" fill="#fff"/>
            </g>
            <g id="Group_10792" data-name="Group 10792" transform="translate(203.106 137.76)">
              <path id="Path_831" data-name="Path 831" d="M389.576,957.516h-.192a8.208,8.208,0,0,1-8.03-8.408l3.925-172.677L382.417,713.3l-3.323-53.213-3.3-13.37L369.187,629.3,349.33,592.164l-7.108-8.773-15.368-15.977L270.112,517.7c-.09-.077-.173-.154-.256-.237L204.124,454.79a7.9,7.9,0,0,1-1.268-1.537l-29.283-46.06L156.5,385.946l-38.248-41.1L85.9,309.085a8.127,8.127,0,0,1-1.21-1.748L73.217,285.072l-15.6-23.93a8.187,8.187,0,0,1-1.306-5.155L60.564,203.5c.026-.243.051-.487.1-.73L69.7,150.265c.019-.122.038-.237.064-.359l5.9-27.048a8.363,8.363,0,0,1,.525-1.6l9-20.094a8.222,8.222,0,1,1,15.01,6.717l-8.645,19.326-5.686,26.037L76.938,205.2l-4.009,49.313,14.3,21.932c.154.231.288.474.423.724l11.168,21.669,31.55,34.886,38.383,41.232c.128.147.269.294.391.448l17.533,21.842a5.964,5.964,0,0,1,.531.736l29,45.593,64.88,61.858,56.869,49.839c.179.154.352.32.512.487l15.849,16.483c.16.166.32.339.467.519l7.819,9.656a8.242,8.242,0,0,1,.858,1.294L383.953,622a8.693,8.693,0,0,1,.429.967l6.961,18.384a5.9,5.9,0,0,1,.3.935l3.605,14.568a9.949,9.949,0,0,1,.224,1.454l3.368,54.1,2.882,63.561c.006.179.006.371.006.563L397.8,949.473A8.219,8.219,0,0,1,389.576,957.516Z" transform="translate(-56.285 -96.294)" fill="#fff"/>
            </g>
            <g id="Group_10793" data-name="Group 10793" transform="translate(181.697 409.444)">
              <path id="Path_832" data-name="Path 832" d="M420.967,271.363a8.219,8.219,0,0,1-7.14-4.13l-24.814-43.2L378.288,213.29l-13.3-10.579-49.774-20.28-81.6-22.195-25.236-5-12.4.916-12.743,3.029L145.757,173.6l-21.881,7.582L63.831,201.649a8.228,8.228,0,0,1-5.315-15.573l81.6-27.926,37.717-14.523a7.732,7.732,0,0,1,1.057-.327l13.921-3.311a8.16,8.16,0,0,1,1.3-.192l14.158-1.05a8.014,8.014,0,0,1,2.209.134l26.613,5.277c.186.038.378.077.563.128l82.362,22.406a7.51,7.51,0,0,1,.948.32l51.324,20.9A8.261,8.261,0,0,1,374.3,189.1l14.6,11.61a9.147,9.147,0,0,1,.7.628l11.814,11.846a7.854,7.854,0,0,1,1.306,1.716l25.364,44.139a8.229,8.229,0,0,1-7.127,12.327Z" transform="translate(-52.941 -138.721)" fill="#fff"/>
            </g>
            <g id="Group_10794" data-name="Group 10794" transform="translate(315.91 720.58)">
              <path id="Path_833" data-name="Path 833" d="M136.393,556.872a8.225,8.225,0,0,1-7.78-5.571l-2.184-6.378c-.09-.243-.16-.5-.231-.755l-14.145-59.636a9.688,9.688,0,0,1-.166-.961L109.025,458.8c-.019-.16-.038-.333-.051-.5l-2.907-54.315-2.4-57.484-4.181-44.363-6.916-41.213-11.443-55.41-1.364-1.825-1.819-1.076a8.229,8.229,0,0,1,8.369-14.171l3.247,1.915a8.44,8.44,0,0,1,2.408,2.164l3.483,4.662a8.354,8.354,0,0,1,1.486,3.368l2.222,11.584,9.573,45.74,7.025,41.828c.038.2.058.4.083.6l4.226,44.869c.013.154.026.288.026.435l2.4,57.6,2.894,53.956,2.792,24.039,13.947,58.765,2.049,6a8.235,8.235,0,0,1-5.123,10.457A8.358,8.358,0,0,1,136.393,556.872Z" transform="translate(-73.901 -187.309)" fill="#fff"/>
            </g>
            <g id="Group_10795" data-name="Group 10795" transform="translate(208.097 482.079)">
              <path id="Path_834" data-name="Path 834" d="M65.285,211.852a8.229,8.229,0,0,1-1.7-16.278l61.736-13.1,56.376-13.23L200,152.261a8.224,8.224,0,0,1,11.187,12.058l-19.9,18.468a8.185,8.185,0,0,1-3.708,1.972L128.9,198.52,66.995,211.666A8.313,8.313,0,0,1,65.285,211.852Z" transform="translate(-57.064 -150.064)" fill="#fff"/>
            </g>
            <g id="Group_10796" data-name="Group 10796" transform="translate(340.489 580.641)">
              <path id="Path_835" data-name="Path 835" d="M193.052,613.19a8.235,8.235,0,0,1-8.088-6.769l-1.723-9.554a5.706,5.706,0,0,1-.1-.73l-2.369-26.472-8.619-154.747-35.072-94.125-36.423-79.263c-.109-.243-.211-.5-.3-.756L78.193,176.369a8.226,8.226,0,1,1,15.554-5.36l22.034,64.029L152.166,314.2c.083.179.166.371.237.564l35.6,95.572a8.211,8.211,0,0,1,.512,2.414l8.664,155.727,2.312,25.819,1.665,9.2a8.228,8.228,0,0,1-6.634,9.56A8.327,8.327,0,0,1,193.052,613.19Z" transform="translate(-77.739 -165.456)" fill="#fff"/>
            </g>
            <g id="Group_10797" data-name="Group 10797" transform="translate(30.019 809.582)">
              <path id="Path_836" data-name="Path 836" d="M219.876,289.171l-.307-.006-57.138-2.158a3.139,3.139,0,0,1-.352-.026L36.812,276.742a8.227,8.227,0,1,1,1.345-16.4L163.23,270.575l55.121,2.075,38.62-16.444,19.672-12.551a8.919,8.919,0,0,1,1.626-.8l67.813-24.621a8.3,8.3,0,0,1,2.292-.467l93.2-5.936,97.1-10.572a8.225,8.225,0,1,1,1.774,16.355L443.179,228.2a3.459,3.459,0,0,1-.371.038L350.59,234.1l-65.866,23.911-19.479,12.436a7.337,7.337,0,0,1-1.2.628l-40.95,17.43A8.149,8.149,0,0,1,219.876,289.171Z" transform="translate(-29.255 -201.208)" fill="#fff"/>
            </g>
            <g id="Group_10798" data-name="Group 10798" transform="translate(150.073 310.738)">
              <path id="Path_837" data-name="Path 837" d="M191.819,557.966a8.218,8.218,0,0,1-7.524-4.918l-22.521-51.311-2.44-3.567a8.057,8.057,0,0,1-.967-1.883L148.352,468.2,127.362,406.69l-20.671-55.224-4.886-10a5.879,5.879,0,0,1-.371-.884L80.1,279.881l-28.8-80.319a4.362,4.362,0,0,1-.224-.692l-2.273-8.69a7.651,7.651,0,0,1-.256-1.563l-.519-8.235a6.756,6.756,0,0,1,0-1.018l.519-8.555a8.34,8.34,0,0,1,.1-.9l1.793-10.457c.045-.25.09-.493.16-.743l3.048-11.3a7.294,7.294,0,0,1,.314-.935l3.612-8.971a9.573,9.573,0,0,1,.461-.967l5.123-9.055a8.225,8.225,0,1,1,14.318,8.1l-4.841,8.574L69.4,152.17l-2.811,10.444-1.652,9.644-.467,7.594.448,6.929,1.972,7.569L95.594,274.38l21.2,60.3,4.854,9.913c.109.237.211.487.307.736l20.895,55.826,21.042,61.621,9.612,26.984,2.28,3.317a7.649,7.649,0,0,1,.736,1.345l19.973,45.5,23.385-6.467a8.225,8.225,0,0,1,4.386,15.855l-30.25,8.363A8.142,8.142,0,0,1,191.819,557.966Z" transform="translate(-48.003 -123.307)" fill="#fff"/>
            </g>
            <g id="Group_10799" data-name="Group 10799" transform="translate(427.637 1332.793)">
              <path id="Path_838" data-name="Path 838" d="M161.559,434.74a8.215,8.215,0,0,1-7.921-6.026l-2.574-9.253-58.925-124.8a8.225,8.225,0,1,1,14.869-7.037l59.239,125.445a8.925,8.925,0,0,1,.487,1.313l.4,1.453.339-.128L202.1,397.216a8.218,8.218,0,1,1,7.742,14.5l-35.168,18.8a7.509,7.509,0,0,1-1.14.5l-9.24,3.253A8.218,8.218,0,0,1,161.559,434.74Z" transform="translate(-91.349 -282.915)" fill="#fff"/>
            </g>
            <g id="Group_10800" data-name="Group 10800" transform="translate(262.841 645.053)">
              <path id="Path_839" data-name="Path 839" d="M73.833,223.844a8.227,8.227,0,0,1-2.5-16.06l99.831-31.877a8.226,8.226,0,0,1,5.014,15.669L76.344,223.453A8.174,8.174,0,0,1,73.833,223.844Z" transform="translate(-65.613 -175.515)" fill="#fff"/>
            </g>
            <g id="Group_10801" data-name="Group 10801" transform="translate(149.316 928.593)">
              <path id="Path_840" data-name="Path 840" d="M156.586,245.769l-.333-.007-100.5-4.245a8.23,8.23,0,0,1,.7-16.444l99.92,4.226,97.685-9.464a8.222,8.222,0,0,1,1.588,16.367l-98.262,9.528C157.124,245.756,156.862,245.769,156.586,245.769Z" transform="translate(-47.885 -219.794)" fill="#fff"/>
            </g>
            <g id="Group_10802" data-name="Group 10802" transform="translate(143.202 1007.675)">
              <path id="Path_841" data-name="Path 841" d="M55.159,252.081a8.225,8.225,0,0,1-.077-16.451l117.287-1.05,93.209-2.433a8.139,8.139,0,0,1,8.446,8.011,8.241,8.241,0,0,1-8.017,8.44l-93.357,2.434-117.415,1.05Z" transform="translate(-46.93 -232.143)" fill="#fff"/>
            </g>
            <g id="Group_10803" data-name="Group 10803" transform="translate(859.529 907.141)">
              <path id="Path_842" data-name="Path 842" d="M174.229,250.045a8.237,8.237,0,0,1-7.595-5.033l-7.2-17.155a8.23,8.23,0,0,1,15.176-6.371l7.2,17.155a8.234,8.234,0,0,1-4.4,10.764A8.142,8.142,0,0,1,174.229,250.045Z" transform="translate(-158.795 -216.444)" fill="#fff"/>
            </g>
            <g id="Group_10804" data-name="Group 10804" transform="translate(714.736 942.411)">
              <path id="Path_843" data-name="Path 843" d="M144.942,254.721a8.219,8.219,0,0,1-8.216-7.959l-.538-16.316a8.223,8.223,0,1,1,16.438-.538l.538,16.323a8.215,8.215,0,0,1-7.947,8.478A2.141,2.141,0,0,1,144.942,254.721Z" transform="translate(-136.183 -221.952)" fill="#fff"/>
            </g>
            <g id="Group_10805" data-name="Group 10805" transform="translate(881.707 371.638)">
              <path id="Path_844" data-name="Path 844" d="M170.492,216.882a8.223,8.223,0,0,1-4.22-15.285l113.252-67.614a8.226,8.226,0,0,1,8.433,14.126L174.705,215.717A8.134,8.134,0,0,1,170.492,216.882Z" transform="translate(-162.258 -132.817)" fill="#fff"/>
            </g>
            <g id="Group_10806" data-name="Group 10806" transform="translate(1184.18 1248.475)">
              <path id="Path_845" data-name="Path 845" d="M217.7,297.4a8.218,8.218,0,0,1-1.313-16.329l11.673-1.921,43.134-9.215a8.222,8.222,0,0,1,3.445,16.079l-43.326,9.259a3.123,3.123,0,0,1-.4.083l-11.878,1.94A7.2,7.2,0,0,1,217.7,297.4Z" transform="translate(-209.494 -269.748)" fill="#fff"/>
            </g>
            <g id="Group_10807" data-name="Group 10807" transform="translate(780.305 937.844)">
              <path id="Path_846" data-name="Path 846" d="M161.766,251.173a8.218,8.218,0,0,1-7.281-4.393l-7.114-13.486a8.228,8.228,0,0,1,14.562-7.665l7.108,13.486a8.222,8.222,0,0,1-3.439,11.11A8.327,8.327,0,0,1,161.766,251.173Z" transform="translate(-146.423 -221.238)" fill="#fff"/>
            </g>
            <g id="Group_10808" data-name="Group 10808" transform="translate(228.216 1500.653)">
              <path id="Path_847" data-name="Path 847" d="M68.434,436.936A8.223,8.223,0,0,1,63.676,422l87.978-62.441.128-.243.128-.807-4.514-40.24a8.225,8.225,0,1,1,16.348-1.825l4.649,41.347a8.193,8.193,0,0,1-.058,2.2l-.519,3.266a8.447,8.447,0,0,1-.865,2.568l-1.691,3.176a8.235,8.235,0,0,1-2.491,2.843L73.191,435.424A8.239,8.239,0,0,1,68.434,436.936Z" transform="translate(-60.206 -309.129)" fill="#fff"/>
            </g>
            <g id="Group_10809" data-name="Group 10809" transform="translate(269.826 514.304)">
              <path id="Path_848" data-name="Path 848" d="M94.8,250.262A8.229,8.229,0,0,1,87,244.621l-3.669-11.072c-.045-.134-.09-.269-.122-.41L78.9,217.47c-.026-.109-.045-.224-.077-.339l-11.9-51.971a8.228,8.228,0,0,1,16.041-3.676l11.859,51.8,4.194,15.292,1.23,3.74,1.774-.416,41.629-10.226a8.226,8.226,0,0,1,3.925,15.977l-50.9,12.391A8.223,8.223,0,0,1,94.8,250.262Z" transform="translate(-66.704 -155.096)" fill="#fff"/>
            </g>
            <g id="Group_10810" data-name="Group 10810" transform="translate(324.852 724.594)">
              <path id="Path_849" data-name="Path 849" d="M83.518,218.53a8.227,8.227,0,0,1-1.524-16.31l74.351-14.139a8.227,8.227,0,0,1,3.08,16.162L85.061,218.383A7.965,7.965,0,0,1,83.518,218.53Z" transform="translate(-75.297 -187.936)" fill="#fff"/>
            </g>
            <g id="Group_10811" data-name="Group 10811" transform="translate(793.271 200.11)">
              <path id="Path_850" data-name="Path 850" d="M183.977,168.75a8.212,8.212,0,0,1-7.089-4.047l-27.3-46.265a8.23,8.23,0,0,1,14.177-8.363l27.3,46.272a8.225,8.225,0,0,1-7.082,12.4Z" transform="translate(-148.448 -106.03)" fill="#fff"/>
            </g>
            <g id="Group_10812" data-name="Group 10812" transform="translate(853.049 154.914)">
              <path id="Path_851" data-name="Path 851" d="M197.7,168.307a8.219,8.219,0,0,1-7.063-4l-31.691-52.874a8.227,8.227,0,1,1,14.113-8.459l31.691,52.88a8.23,8.23,0,0,1-7.05,12.455Z" transform="translate(-157.783 -98.972)" fill="#fff"/>
            </g>
            <g id="Group_10813" data-name="Group 10813" transform="translate(1025.638 300.872)">
              <path id="Path_852" data-name="Path 852" d="M216.528,314.486a8.23,8.23,0,0,1-4.335-15.228l43.96-27.144-.019-.083L243.647,250.5l-20.152-30.43L187.168,165.6a8.377,8.377,0,0,1-1.274-3.253l-1.057-6.544a8.342,8.342,0,0,1,.288-3.829l2.107-6.544a8.218,8.218,0,0,1,2.28-3.56l19.671-17.949a8.225,8.225,0,1,1,11.091,12.148l-18.051,16.476-.833,2.587.461,2.83L257.5,241.614c.083.141.173.275.256.416l13.306,22.937a8.23,8.23,0,0,1,.954,2.549l.717,3.695a7.34,7.34,0,0,1,.167,1.582v2.837a8.2,8.2,0,0,1-.948,3.816l-.7,1.332a8.25,8.25,0,0,1-2.958,3.176l-47.45,29.3A8.17,8.17,0,0,1,216.528,314.486Z" transform="translate(-184.735 -121.766)" fill="#fff"/>
            </g>
            <g id="Group_10814" data-name="Group 10814" transform="translate(1146.679 805.995)">
              <path id="Path_853" data-name="Path 853" d="M211.863,310.832a8.227,8.227,0,0,1-3.323-15.753l83.213-36.763,121.827-56.9a8.228,8.228,0,1,1,6.967,14.907l-121.98,56.959-83.38,36.839A8.16,8.16,0,0,1,211.863,310.832Z" transform="translate(-203.637 -200.648)" fill="#fff"/>
            </g>
            <g id="Group_10815" data-name="Group 10815" transform="translate(1110.977 728.33)">
              <path id="Path_854" data-name="Path 854" d="M229.778,334a8.242,8.242,0,0,1-7.575-4.988l-22.214-51.83a8.167,8.167,0,0,1-.557-1.947l-1.268-8.036a8.258,8.258,0,0,1,.474-4.329l2.6-6.532a8.244,8.244,0,0,1,2.241-3.163l10.924-9.515a8.028,8.028,0,0,1,1.742-1.165l106.247-52.842a8.27,8.27,0,0,1,3.484-.858l12.775-.269a8.079,8.079,0,0,1,3.029.506l7.089,2.632a8.23,8.23,0,0,1,3.355,2.324l4,4.623a8.51,8.51,0,0,1,1.434,2.337L381.3,260.587a8.227,8.227,0,0,1-15.285,6.09l-23.238-58.349-1.71-1.979L337.428,205l-9.356.2-103.66,51.548-8.619,7.518-1.031,2.581.749,4.8,21.817,50.882A8.241,8.241,0,0,1,229.778,334Z" transform="translate(-198.062 -188.52)" fill="#fff"/>
            </g>
            <g id="Group_10816" data-name="Group 10816" transform="translate(875.868 1245.517)">
              <path id="Path_855" data-name="Path 855" d="M229.567,461.077a8.216,8.216,0,0,1-7.716-5.385L197.377,389.07,161.754,280.076a8.231,8.231,0,0,1,15.644-5.123l35.514,108.725L237.3,450.031a8.223,8.223,0,0,1-4.886,10.547A8.021,8.021,0,0,1,229.567,461.077Z" transform="translate(-161.346 -269.286)" fill="#fff"/>
            </g>
            <g id="Group_10817" data-name="Group 10817" transform="translate(1014.128 1412.399)">
              <path id="Path_856" data-name="Path 856" d="M191.174,353.2a8.22,8.22,0,0,1-2.945-15.9l100.522-38.543,1.5-1.332a8.222,8.222,0,1,1,10.912,12.3l-2.612,2.312a7.865,7.865,0,0,1-2.5,1.53L194.12,352.652A8.252,8.252,0,0,1,191.174,353.2Z" transform="translate(-182.938 -295.347)" fill="#fff"/>
            </g>
            <g id="Group_10818" data-name="Group 10818" transform="translate(763.707 1363.362)">
              <path id="Path_857" data-name="Path 857" d="M152.054,417.615a8.236,8.236,0,0,1-2.536-16.066l132.546-42.987L321.657,345.6c.275-.089.551-.16.826-.23l21.605-4.643,143.387-52.534a8.229,8.229,0,0,1,5.667,15.452l-143.925,52.72a7.259,7.259,0,0,1-1.1.326l-21.753,4.675-39.2,12.839-132.565,43A8.34,8.34,0,0,1,152.054,417.615Z" transform="translate(-143.831 -287.689)" fill="#fff"/>
            </g>
            <g id="Group_10819" data-name="Group 10819" transform="translate(1162.731 923.209)">
              <path id="Path_858" data-name="Path 858" d="M214.371,347.639a8.222,8.222,0,0,1-2.894-15.919L354.749,277.84l-6.615-18.589-11.661-29.008a8.226,8.226,0,0,1,15.266-6.135l11.776,29.315,9.439,26.523a8.21,8.21,0,0,1-4.86,10.451L217.266,347.107A8.107,8.107,0,0,1,214.371,347.639Z" transform="translate(-206.144 -218.953)" fill="#fff"/>
            </g>
            <g id="Group_10820" data-name="Group 10820" transform="translate(1101.666 795.214)">
              <path id="Path_859" data-name="Path 859" d="M204.836,288.892a8.224,8.224,0,0,1-2.689-16l32.5-11.245,143.618-62.005a8.223,8.223,0,1,1,6.519,15.1L240.875,276.879q-.278.125-.557.231l-32.8,11.334A8.22,8.22,0,0,1,204.836,288.892Z" transform="translate(-196.608 -198.965)" fill="#fff"/>
            </g>
            <g id="Group_10821" data-name="Group 10821" transform="translate(740.039 1292.627)">
              <path id="Path_860" data-name="Path 860" d="M154.141,407.781a8.226,8.226,0,0,1-8.184-7.569l-5.8-72.334a8.29,8.29,0,0,1,.134-2.292l.967-4.751a8.264,8.264,0,0,1,2.158-4.1l3.586-3.682a8.123,8.123,0,0,1,3.227-2.056l94.727-32.549.333-.109,4.546-1.357a8.237,8.237,0,0,1,5.078.141l5.392,1.9a8.271,8.271,0,0,1,5.033,5.052l25,71.63a8.223,8.223,0,0,1-15.528,5.417l-23.527-67.391-1.153.333-92.684,31.857-.544.557-.256,1.242,5.705,71.181a8.226,8.226,0,0,1-7.543,8.862C154.6,407.768,154.365,407.781,154.141,407.781Z" transform="translate(-140.135 -276.643)" fill="#fff"/>
            </g>
            <g id="Group_10822" data-name="Group 10822" transform="translate(1184.179 1218.996)">
              <path id="Path_861" data-name="Path 861" d="M217.718,322.275a8.219,8.219,0,0,1-5.7-14.152L254.4,267.441a8.222,8.222,0,1,1,11.385,11.866l-42.359,40.682A8.217,8.217,0,0,1,217.718,322.275Z" transform="translate(-209.494 -265.144)" fill="#fff"/>
            </g>
            <g id="Group_10823" data-name="Group 10823" transform="translate(1134.453 857.349)">
              <path id="Path_862" data-name="Path 862" d="M221.194,248.806a8.216,8.216,0,0,1-7.441-4.707l-11.232-23.68a8.228,8.228,0,0,1,14.869-7.05l11.238,23.687a8.252,8.252,0,0,1-3.919,10.963A8.169,8.169,0,0,1,221.194,248.806Z" transform="translate(-201.728 -208.668)" fill="#fff"/>
            </g>
            <g id="Group_10824" data-name="Group 10824" transform="translate(489.625 1468.167)">
              <path id="Path_863" data-name="Path 863" d="M129.851,368.789a8.226,8.226,0,0,1-6.935-3.8l-19.838-30.955a8.365,8.365,0,0,1-1.236-3.375l-.743-5.808a7.321,7.321,0,0,1-.07-1.056V312.285a8.229,8.229,0,0,1,16.457,0v10.988l.442,3.452,18.839,29.4a8.222,8.222,0,0,1-6.916,12.66Z" transform="translate(-101.029 -304.056)" fill="#fff"/>
            </g>
            <g id="Group_10825" data-name="Group 10825" transform="translate(847.706 582.866)">
              <path id="Path_864" data-name="Path 864" d="M212.483,257.807a8.248,8.248,0,0,1-7.23-4.284L185.2,216.831,158.45,178.762a8.227,8.227,0,1,1,13.46-9.464l27.029,38.453a7.635,7.635,0,0,1,.487.788l20.267,37.1a8.227,8.227,0,0,1-7.21,12.173Z" transform="translate(-156.949 -165.803)" fill="#fff"/>
            </g>
            <g id="Group_10826" data-name="Group 10826" transform="translate(328.497 500.544)">
              <path id="Path_865" data-name="Path 865" d="M96.073,249.5a8.214,8.214,0,0,1-8.094-6.845l-8.766-51.843c-.026-.147-.051-.288-.064-.435l-3.227-28.265a8.227,8.227,0,0,1,16.348-1.87l3.2,28.047L104.2,239.9a8.195,8.195,0,0,1-8.126,9.592Z" transform="translate(-75.867 -152.948)" fill="#fff"/>
            </g>
            <g id="Group_10827" data-name="Group 10827" transform="translate(301.637 975.68)">
              <path id="Path_866" data-name="Path 866" d="M133.53,618.311a15.235,15.235,0,0,1-2.222-.16l-46.771-6.967a15.081,15.081,0,1,1,4.438-29.834l45.49,6.775,22.822-.544,28.457-4.943,15.682-4.553,50.165-16.655,29.661-11.456,9.778-10.457,2.485-104.364-2.164-192.765a15.08,15.08,0,0,1,14.907-15.24h.173a15.066,15.066,0,0,1,15.074,14.914l2.177,193.008c0,.179,0,.352-.013.525l-2.619,110.4a15.029,15.029,0,0,1-4.066,9.938L300.918,573.1a15.022,15.022,0,0,1-5.571,3.752l-33.221,12.839c-.224.09-.448.173-.679.256l-50.8,16.854c-.179.058-.365.115-.551.173l-16.739,4.86a16.484,16.484,0,0,1-1.626.365l-30.378,5.283a15.249,15.249,0,0,1-2.222.218l-25.23.6C133.774,618.3,133.658,618.311,133.53,618.311Z" transform="translate(-71.672 -227.147)" fill="#fff"/>
            </g>
            <g id="Group_10828" data-name="Group 10828" transform="translate(691.376 0.002)">
              <path id="Path_867" data-name="Path 867" d="M732,718.111a14.746,14.746,0,0,1-13.691-9.272L668.481,584.15l-68.9-160.068-90.6-101.553-96.411-78.584-60.859-42.7-23.77-12.877-36.468-14.094c-.333-.134-.672-.282-1.005-.429l-149.509-71A14.741,14.741,0,0,1,153.6,76.2L302.616,146.97l36.82,14.235a15.813,15.813,0,0,1,1.7.788l25.352,13.736a15.359,15.359,0,0,1,1.441.9l61.992,43.5c.3.2.576.416.852.64l97.73,79.66a13.963,13.963,0,0,1,1.7,1.614l92.96,104.211a14.792,14.792,0,0,1,2.542,3.983l69.933,162.444c.051.115.09.237.147.352L745.675,697.9A14.742,14.742,0,0,1,732,718.111Z" transform="translate(-132.535 -74.781)" fill="#fff"/>
            </g>
            <g id="Group_10829" data-name="Group 10829" transform="translate(0 1251.789)">
              <path id="Path_868" data-name="Path 868" d="M463.38,584.905a14.732,14.732,0,0,1-13.5-8.818l-8.337-19.025-23.5-52.131-12.583-24.641L387.89,447.819l-23.975-29.8c-.1-.128-.2-.256-.307-.4l-31.627-42.18-16.207-6.468-22.662-8.26-82.234-23.469-47.495-14.37L68.444,300.936l-6.762,5.193L51.469,321.055A14.739,14.739,0,1,1,27.148,304.4l11.533-16.848a14.678,14.678,0,0,1,3.176-3.362L56,273.318a14.727,14.727,0,0,1,12.3-2.67L170.491,294.27a9.235,9.235,0,0,1,.948.243L219.2,308.966l82.522,23.546c.333.1.672.212,1.005.326l23.347,8.523c.128.038.263.1.4.147l20.273,8.069a14.82,14.82,0,0,1,6.333,4.847l33.964,45.318L411.7,430.4a16.282,16.282,0,0,1,1.479,2.216l18.276,33.811a2.412,2.412,0,0,1,.167.308l12.826,25.108c.109.218.218.435.307.653l23.719,52.6,8.4,19.166a14.717,14.717,0,0,1-13.492,20.645Z" transform="translate(-24.567 -270.265)" fill="#fff"/>
            </g>
            <g id="Group_10830" data-name="Group 10830" transform="translate(329.549 1375.567)">
              <path id="Path_869" data-name="Path 869" d="M90.792,382.778c-.506,0-1.018-.032-1.53-.083A14.741,14.741,0,0,1,76.109,366.52l6.544-63.7a14.738,14.738,0,0,1,29.322,3.01l-6.544,63.708A14.739,14.739,0,0,1,90.792,382.778Z" transform="translate(-76.031 -289.595)" fill="#fff"/>
            </g>
            <g id="Group_10831" data-name="Group 10831" transform="translate(1225.525 1130.765)">
              <path id="Path_870" data-name="Path 870" d="M230.7,376.121a14.741,14.741,0,0,1-5.161-28.547L404.7,280.7l77.751-28.438a14.744,14.744,0,0,1,10.124,27.7l-77.668,28.393L235.85,375.186A14.751,14.751,0,0,1,230.7,376.121Z" transform="translate(-215.95 -251.366)" fill="#fff"/>
            </g>
            <g id="Group_10832" data-name="Group 10832" transform="translate(1069.328 668.14)">
              <path id="Path_871" data-name="Path 871" d="M206.305,330.313a14.737,14.737,0,0,1-7.947-27.151l62.357-39.887c.16-.1.314-.2.48-.294l139.36-81.83a14.736,14.736,0,1,1,14.92,25.415l-139.11,81.689-62.127,39.734A14.663,14.663,0,0,1,206.305,330.313Z" transform="translate(-191.558 -179.12)" fill="#fff"/>
            </g>
            <g id="Group_10833" data-name="Group 10833" transform="translate(12.473 968.322)">
              <path id="Path_872" data-name="Path 872" d="M41.245,436.379a14.741,14.741,0,0,1-4.073-28.905l31.345-9.048,54.635-14.869c.211-.051.423-.109.64-.147l33.8-7.614a15.53,15.53,0,0,1,3.227-.352h40.758l75.939-.621,31.608-5.283,17.334-4.956,18.653-9.573,19.992-12.083,17.847-14.613,57.721-49.922a14.681,14.681,0,0,1,2.062-1.492l29.8-17.866A16,16,0,0,1,474.6,258l33.9-13.62a14.837,14.837,0,0,1,1.755-.583l36.084-9.522,14.459-4.553a15.256,15.256,0,0,1,3.247-.634l37.595-3.042a14.74,14.74,0,0,1,2.369,29.386l-35.943,2.9-13.2,4.162-.666.2-35.546,9.368-31.966,12.858L459,301.522l-56.914,49.211c-.1.077-.2.173-.3.256L382.974,366.4a15.281,15.281,0,0,1-1.716,1.2l-21.324,12.9c-.3.173-.6.339-.9.5l-20.4,10.47a15.115,15.115,0,0,1-2.677,1.057L316.429,398.1a11.848,11.848,0,0,1-1.62.371l-33.574,5.622a15.466,15.466,0,0,1-2.312.186l-77.226.64H162.463L130.58,412.1l-54.1,14.715L45.343,435.8A14.908,14.908,0,0,1,41.245,436.379Z" transform="translate(-26.515 -225.998)" fill="#fff"/>
            </g>
            <g id="Group_10834" data-name="Group 10834" transform="translate(639.646 789.856)">
              <path id="Path_873" data-name="Path 873" d="M139.18,402.272a14.742,14.742,0,0,1-.762-29.463l89.38-4.751,34.067-2.664,24.948-4.719,15.388-5.4,45.932-16.611L415.4,310.574l11.769-6.826,81.293-64.733c.147-.122.294-.237.448-.346l51.234-37.678a14.74,14.74,0,1,1,17.462,23.751l-51,37.505-81.92,65.239a14.458,14.458,0,0,1-1.793,1.217l-13.576,7.87a12.961,12.961,0,0,1-1.767.877l-19.127,7.876-49.23,20.664c-.23.09-.461.186-.685.269l-46.419,16.79-16.566,5.808a14.959,14.959,0,0,1-2.132.57L266.552,394.5a13.253,13.253,0,0,1-1.588.211l-35.046,2.747c-.128.006-.243.019-.371.026l-89.566,4.771C139.711,402.266,139.455,402.272,139.18,402.272Z" transform="translate(-124.457 -198.128)" fill="#fff"/>
            </g>
            <g id="Group_10835" data-name="Group 10835" transform="translate(691.376)">
              <path id="Path_874" data-name="Path 874" d="M795.629,1622.229a14.751,14.751,0,0,1-13.614-9.074l-2.734-6.557-4.124-9.074c-.071-.147-.141-.3-.2-.448l-18.513-44.684c-.058-.115-.1-.243-.154-.346l-7.646-19.94-73.493-194.929-7.114-15.464c-.1-.2-.179-.422-.275-.628l-5.481-13.556c-.077-.186-.154-.378-.23-.583l-50.927-142.875c-.051-.166-.109-.327-.16-.487L598.2,1123.339l-20.344-52.6a3.228,3.228,0,0,1-.128-.371l-40.56-113.72c-.071-.224-.154-.442-.224-.672l-16.553-54.59L504.551,871.8,416.292,705.235,228.311,368.353l-5.744-10.8-43.339-80.089a13.9,13.9,0,0,1-1.057-2.44l-27.048-82.8a15.653,15.653,0,0,1-.608-2.753l-1.274-10.207-4.47-26.619-9.144-44.664c-.019-.115-.051-.23-.07-.352l-2.786-15.5a14.736,14.736,0,1,1,29.008-5.212l2.753,15.324,9.17,44.748c.026.173.07.339.09.512l4.566,27.189c.032.2.07.41.09.621l1.14,9.1,26.2,80.2,48.4,89.636,188,336.92,96.072,181.322,8.766,16.169a15.364,15.364,0,0,1,1.14,2.747l16.886,55.672,40.374,113.214,20.434,52.848c.115.282.218.57.314.858l12.807,40.413,50.735,142.337,5.245,12.954,7.191,15.612c.147.327.282.64.41.98l73.634,195.339,7.55,19.659L802.1,1585.55l4.111,9.061c.064.141.128.282.186.423l2.824,6.769a14.75,14.75,0,0,1-13.588,20.427Z" transform="translate(-132.535 -74.78)" fill="#fff"/>
            </g>
            <g id="Group_10836" data-name="Group 10836" transform="translate(318.18 1487.906)">
              <path id="Path_875" data-name="Path 875" d="M186.532,366.636a14.507,14.507,0,0,1-8.83-2.939l-18.16-13.64-11.213-4.847-14.357-3.1-23.584-2.024c-.333-.026-.672-.064-1.012-.115l-22.656-3.535a14.738,14.738,0,0,1,4.546-29.123l22.15,3.458,24.007,2.055a16.143,16.143,0,0,1,1.838.282l16.707,3.592a15.4,15.4,0,0,1,2.741.884l14.139,6.122a14.763,14.763,0,0,1,3,1.742l19.543,14.67a14.73,14.73,0,0,1-8.856,26.517Z" transform="translate(-74.255 -307.139)" fill="#fff"/>
            </g>
            <g id="Group_10837" data-name="Group 10837" transform="translate(325.746 1420.04)">
              <path id="Path_876" data-name="Path 876" d="M124.277,391.08a14.807,14.807,0,0,1-1.511-.083l-17.309-1.786a14.523,14.523,0,0,1-5.949-1.94L88.84,381.007a14.586,14.586,0,0,1-5.475-5.628L78.4,366.3a15.225,15.225,0,0,1-1.678-5.161l-1.057-8.03a14.832,14.832,0,0,1-.134-1.774l-.09-8.965a14.8,14.8,0,0,1,.724-4.7l3.8-11.712a14.693,14.693,0,0,1,7.466-8.657l38.722-19.236a14.743,14.743,0,0,1,13.1,26.414l-33.177,16.47-1.14,3.515.058,5.68.583,4.419,1.691,3.08,4.393,2.574,11.2,1.153,10.662-3.2,12.7-12.231a14.741,14.741,0,0,1,20.44,21.247l-15.272,14.7a14.615,14.615,0,0,1-6,3.5l-16.886,5.065A14.862,14.862,0,0,1,124.277,391.08Z" transform="translate(-75.437 -296.54)" fill="#fff"/>
            </g>
            <g id="Group_10838" data-name="Group 10838" transform="translate(574.216 964.694)">
              <path id="Path_877" data-name="Path 877" d="M128.794,258.363a14.564,14.564,0,0,1-.832-29.1l65.6-3.8a14.564,14.564,0,0,1,1.69,29.078l-65.6,3.8C129.364,258.356,129.082,258.363,128.794,258.363Z" transform="translate(-114.239 -225.431)" fill="#fff"/>
            </g>
          </g>
          <path id="Path_878" data-name="Path 878" d="M128.258,358.593l-14.02,264.251,134.367,8.467,139.132-38.79-9.549-40.71L576.8,494.955l-22.643-50.922,114.763-61.921L604.475,212.573l-177.084,105.2Z" transform="translate(459.973 669.781)" fill="#daedd9"/>
          <path id="Path_879" data-name="Path 879" d="M121.636,207.234l36.145,128.411,201.8-64.207-73.34-144.614Z" transform="translate(499.945 206.439)" fill="#e6e6e6"/>
          <path id="Path_880" data-name="Path 880" d="M112.427,181.6V488.457l77.292-1.751L194.4,254.47,171.4,174.88Z" transform="translate(450.184 466.108)" fill="#e6e6e6"/>
          <rect id="Rectangle_32827" data-name="Rectangle 32827" width="46.818" height="127.714" transform="matrix(0.09, -0.996, 0.996, 0.09, 566.962, 1350.375)" fill="#e6e6e6"/>
          <rect id="Rectangle_32828" data-name="Rectangle 32828" width="46.834" height="91.504" transform="matrix(0.09, -0.996, 0.996, 0.09, 562.611, 1408.488)" fill="#e6e6e6"/>
          <rect id="Rectangle_32829" data-name="Rectangle 32829" width="72.458" height="58.756" transform="translate(929.18 452.857) rotate(-29.556)" fill="#e6e6e6"/>
          <rect id="Rectangle_32830" data-name="Rectangle 32830" width="80.163" height="58.756" transform="matrix(0.862, -0.508, 0.508, 0.862, 876.067, 360.806)" fill="#e6e6e6"/>
          <path id="Path_881" data-name="Path 881" d="M190.735,233.206l168.492-73.771L404.6,271.99,254.364,357.243Z" transform="translate(873.325 382.649)" fill="#e6e6e6"/>
        </g>
        <text id="Centre_Point" data-name="Centre Point" transform="translate(155.189 267.432)" fill="#fff" font-size="15" font-family="Montserrat-Light, Montserrat" font-weight="300"><tspan x="0" y="0">Centre Point</tspan></text>
        <g id="Group_10842" data-name="Group 10842" transform="translate(29.019 96.746)">
          <g id="Group_10841" data-name="Group 10841">
            <path id="Layer0_91_1_STROKES" data-name="Layer0 91 1 STROKES" d="M53.343,99.783h953.686V1795.229H53.343Z" transform="translate(-53.343 -99.783)" fill="none"/>
          </g>
        </g>
      </g>
    </g>
  </g>
</svg>
