<svg xmlns="http://www.w3.org/2000/svg" xmlns:xlink="http://www.w3.org/1999/xlink" width="1440" height="1089.598" viewBox="0 0 1440 1089.598">
  <defs>
    <clipPath id="clip-path">
      <path id="Clip_2" data-name="Clip 2" d="M0,0H23.479V32.808H0Z" transform="translate(0 0.211)" fill="none"/>
    </clipPath>
  </defs>
  <g id="Group_11466" data-name="Group 11466" transform="translate(0 66)">
    <path id="Rectangle" d="M0,31.213s343.653-67.965,720.5-13.8S1440,39.431,1440,39.431v972.076s-347-19.168-711.99,52.323S0,1011.507,0,1011.507Z" transform="translate(0 -62.462)" fill="#f9f9fa"/>
    <g id="Component_21_12" data-name="Component 21 – 12">
      <path id="Path_21338" data-name="Path 21338" d="M0,0H1440V175H0Z" fill="#f9f9fa"/>
      <g id="Pricing" transform="translate(666 115)">
        <text id="Pricing-2" data-name="Pricing" transform="translate(0 10)" fill="#6b241b" font-size="14" font-family="SegoeUI, Segoe UI" letter-spacing="0em"><tspan x="0" y="0">Pricing</tspan></text>
      </g>
      <g id="Locations" transform="translate(758 115)">
        <text id="Locations-2" data-name="Locations" transform="translate(0 10)" fill="#6b241b" font-size="14" font-family="SegoeUI, Segoe UI" letter-spacing="0em"><tspan x="0" y="0">Locations</tspan></text>
      </g>
      <g id="About" transform="translate(871 115)">
        <text id="About-2" data-name="About" transform="translate(0 10)" fill="#6b241b" font-size="14" font-family="SegoeUI, Segoe UI" letter-spacing="0em"><tspan x="0" y="0">About</tspan></text>
      </g>
      <g id="Component_7_1" data-name="Component 7 – 1" transform="translate(953 99)">
        <rect id="Rectangle_Copy_7" data-name="Rectangle Copy 7" width="135" height="44" rx="10" fill="none" stroke="#6b241b" stroke-miterlimit="10" stroke-width="1"/>
        <text id="Drive_with_us" data-name="Drive with us" transform="translate(68 26)" fill="#6b241b" font-size="14" font-family="SegoeUI, Segoe UI" letter-spacing="0em"><tspan x="-42.232" y="0">Drive With Us</tspan></text>
      </g>
      <g id="Component_6_1" data-name="Component 6 – 1" transform="translate(1104 99)">
        <rect id="Rectangle-2" data-name="Rectangle" width="85" height="44" rx="10" fill="#fe634f"/>
        <text id="Log_in" data-name="Log in" transform="translate(21 26)" fill="#fff" font-size="14" font-family="SegoeUI, Segoe UI" letter-spacing="0em"><tspan x="0" y="0">Log in</tspan></text>
      </g>
      <g id="Group_14" data-name="Group 14" transform="translate(250 100)">
        <g id="Group_3" data-name="Group 3" transform="translate(0 8.491)">
          <path id="Clip_2-2" data-name="Clip 2" d="M0,0H23.479V32.808H0Z" transform="translate(0 0.211)" fill="none"/>
          <g id="Group_3-2" data-name="Group 3" clip-path="url(#clip-path)">
            <path id="Fill_1" data-name="Fill 1" d="M4.08,32.808a4.312,4.312,0,0,1-2.915-1.044A3.939,3.939,0,0,1,0,28.733V3.915C0,1.427,1.382,0,3.791,0A3.647,3.647,0,0,1,6.777,1.253l.5.63.66-.461a6.033,6.033,0,0,1,.583-.362A9.225,9.225,0,0,1,12.955,0a10.671,10.671,0,0,1,4.019.779,9.411,9.411,0,0,1,3.4,2.393,11.505,11.505,0,0,1,2.281,3.933,16.258,16.258,0,0,1,.826,5.435,16.716,16.716,0,0,1-.6,4.478A11.992,11.992,0,0,1,21,20.94a9.681,9.681,0,0,1-3.245,2.805A9.7,9.7,0,0,1,13.123,24.8a8.914,8.914,0,0,1-3.747-.748l-1.217-.562v5.241a3.934,3.934,0,0,1-1.172,3.034A4.294,4.294,0,0,1,4.08,32.808ZM11.551,5.481a3.956,3.956,0,0,0-2,.464A4.047,4.047,0,0,0,8.177,7.286a6.922,6.922,0,0,0-.876,2.2A12.942,12.942,0,0,0,7,12.322a13.467,13.467,0,0,0,.285,2.7,7.814,7.814,0,0,0,.856,2.313,4.215,4.215,0,0,0,1.386,1.468,3.807,3.807,0,0,0,2.077.514,3.728,3.728,0,0,0,2.138-.537,4.35,4.35,0,0,0,1.388-1.544,7.607,7.607,0,0,0,.786-2.3,15.25,15.25,0,0,0,.241-2.614,12.028,12.028,0,0,0-.326-2.837A7,7,0,0,0,14.9,7.3a4.066,4.066,0,0,0-1.39-1.318A4.191,4.191,0,0,0,11.551,5.481Z" transform="translate(0 0.211)" fill="#fe634f"/>
          </g>
        </g>
        <path id="Fill_4" data-name="Fill 4" d="M27.311.287a2.982,2.982,0,0,0-1.259.918,4.332,4.332,0,0,0-.664,1.23,9.6,9.6,0,0,0-.34,1.3l-1.988,9.375L21.473,4.822c-.129-.538-.289-1.123-.462-1.661a5.627,5.627,0,0,0-.817-1.61A3.806,3.806,0,0,0,18.7.367,4.675,4.675,0,0,0,16.538.006a4.552,4.552,0,0,0-2.19.368A3.839,3.839,0,0,0,12.909,1.55,5.139,5.139,0,0,0,12.1,3.214c-.162.554-.3,1.136-.406,1.69l-1.568,8.109L7.948,3.626c-.1-.377-.214-.791-.331-1.169A3.906,3.906,0,0,0,6.963,1.2,3.036,3.036,0,0,0,5.7.283a4.606,4.606,0,0,0-4.465.79A3.621,3.621,0,0,0,0,3.835,6.134,6.134,0,0,0,.154,5.29c.092.377.191.727.3,1.065l4.4,14.207a13.1,13.1,0,0,0,.693,1.834,3.9,3.9,0,0,0,1.035,1.353,3.27,3.27,0,0,0,1.508.662,10.629,10.629,0,0,0,3.489-.053,3.335,3.335,0,0,0,1.486-.75,3.613,3.613,0,0,0,.928-1.336,13.025,13.025,0,0,0,.549-1.658l1.967-7.794,1.981,7.85a14.16,14.16,0,0,0,.531,1.591,3.669,3.669,0,0,0,.939,1.353,3.377,3.377,0,0,0,1.494.748,10.613,10.613,0,0,0,3.474.05,3.247,3.247,0,0,0,1.514-.667A3.915,3.915,0,0,0,27.473,22.4a13.648,13.648,0,0,0,.693-1.843L32.548,6.393c.124-.374.231-.74.318-1.106a6.073,6.073,0,0,0,.153-1.452,3.627,3.627,0,0,0-1.233-2.762A4.6,4.6,0,0,0,27.311.287" transform="translate(50 8.491)" fill="#fe634f"/>
        <path id="Fill_6" data-name="Fill 6" d="M19.83,1.92A7.328,7.328,0,0,0,16.966.414a10.469,10.469,0,0,0-7.9.792c-.293.179-.58.37-.857.574l-.748.551-.495-.779a3.735,3.735,0,0,0-.224-.318A3.512,3.512,0,0,0,3.8.01,3.52,3.52,0,0,0,.864,1.236,4.426,4.426,0,0,0,0,4.044V20.495a4.6,4.6,0,0,0,.808,2.677,3.727,3.727,0,0,0,3.285,1.356,3.726,3.726,0,0,0,3.284-1.356,4.594,4.594,0,0,0,.808-2.677V10.657A3.519,3.519,0,0,1,8.5,9.119a3.72,3.72,0,0,1,.835-1.163,3.388,3.388,0,0,1,1.133-.7,3.628,3.628,0,0,1,1.244-.242,2.57,2.57,0,0,1,2.037.716,2.659,2.659,0,0,1,.708,2.122l0,10.642a4.6,4.6,0,0,0,.806,2.674,3.679,3.679,0,0,0,3.287,1.359,3.735,3.735,0,0,0,3.287-1.357,4.61,4.61,0,0,0,.806-2.677V8.9a10.173,10.173,0,0,0-.777-4.186,7.886,7.886,0,0,0-2.035-2.8" transform="translate(84.906 8.491)" fill="#fe634f"/>
        <path id="Fill_8" data-name="Fill 8" d="M19.778,33.019a3.663,3.663,0,0,1-3-1.257l-.507-.633-.663.464a6.463,6.463,0,0,1-.583.362,9.266,9.266,0,0,1-4.452,1.061,10.773,10.773,0,0,1-4.04-.781,9.432,9.432,0,0,1-3.41-2.4A11.549,11.549,0,0,1,.83,25.894,16.258,16.258,0,0,1,0,20.443a16.681,16.681,0,0,1,.6-4.469,12.254,12.254,0,0,1,1.86-3.938A9.519,9.519,0,0,1,5.735,9.211,9.867,9.867,0,0,1,10.4,8.156a8.7,8.7,0,0,1,3.756.784l1.231.585V4.09a3.945,3.945,0,0,1,1.174-3.038A4.212,4.212,0,0,1,19.487,0,4.157,4.157,0,0,1,22.41,1.049a3.942,3.942,0,0,1,1.175,3.04v25C23.585,31.589,22.2,33.019,19.778,33.019ZM11.934,13.581a3.834,3.834,0,0,0-2.156.56,4.679,4.679,0,0,0-1.422,1.6,7.474,7.474,0,0,0-.791,2.324,14.825,14.825,0,0,0-.248,2.6,11.938,11.938,0,0,0,.331,2.866,7.017,7.017,0,0,0,.937,2.215,4.066,4.066,0,0,0,1.41,1.334,4.259,4.259,0,0,0,1.989.515,4.034,4.034,0,0,0,2.024-.473A4.085,4.085,0,0,0,15.4,25.771a6.98,6.98,0,0,0,.892-2.227,13.2,13.2,0,0,0,.31-2.877,13.431,13.431,0,0,0-.289-2.741,7.836,7.836,0,0,0-.87-2.344A4.192,4.192,0,0,0,14.035,14.1,4.03,4.03,0,0,0,11.934,13.581Z" transform="translate(109.491 0)" fill="#fe634f"/>
        <path id="Fill_10" data-name="Fill 10" d="M19.778,25.472a3.655,3.655,0,0,1-3-1.264l-.5-.636-.664.465a6.158,6.158,0,0,1-.585.365,9.236,9.236,0,0,1-4.454,1.068,10.712,10.712,0,0,1-4.037-.785,9.467,9.467,0,0,1-3.414-2.416A11.649,11.649,0,0,1,.829,18.3,16.508,16.508,0,0,1,0,12.816a16.93,16.93,0,0,1,.6-4.5A12.356,12.356,0,0,1,2.462,4.356,9.474,9.474,0,0,1,5.734,1.513,9.836,9.836,0,0,1,10.4.452a8.468,8.468,0,0,1,4.051.939c.186.1.371.209.552.326l.673.434.481-.644a3.307,3.307,0,0,1,.4-.448A4.209,4.209,0,0,1,19.487,0,4.144,4.144,0,0,1,22.41,1.056a3.984,3.984,0,0,1,1.175,3.061V21.523C23.585,24.032,22.2,25.472,19.778,25.472ZM14.484,11.058a5.845,5.845,0,0,0-4.828,2.624,5.469,5.469,0,0,0-.374,5.482c.754,1.557,1.706,2.314,2.91,2.314,1.5,0,3.259-1.161,5.118-2.389.3-.2.608-.4.917-.6a3.493,3.493,0,0,0,1.066-4.805A5.69,5.69,0,0,0,14.484,11.058ZM4.621,14.345a1.573,1.573,0,0,0-.854.252,1.6,1.6,0,0,0-.476,2.2.106.106,0,0,0,.012.016l.01.014.014.025.017.029a4.575,4.575,0,0,0,2.91,1.435.916.916,0,0,0,.5-.119c.805-.519-.478-2.619-.743-3.035l0,0L6,15.147l-.033-.054-.011-.018A1.577,1.577,0,0,0,4.621,14.345ZM5.5,7.706A2.223,2.223,0,0,0,4.3,8.063a2.257,2.257,0,0,0-.675,3.107A5.3,5.3,0,0,0,7.238,13,1.4,1.4,0,0,0,8,12.808c1.053-.679.02-3.078-.613-4.068A2.23,2.23,0,0,0,5.5,7.706ZM17.911,5.85a1.617,1.617,0,0,0-.877.259,1.637,1.637,0,0,0-.49,2.256c.424.664,1.538,1.9,2.312,1.9a.6.6,0,0,0,.331-.094c.741-.477.606-2.773.094-3.575A1.618,1.618,0,0,0,17.911,5.85Zm-6.4-2.017A2.224,2.224,0,0,0,10.3,4.19,2.255,2.255,0,0,0,9.628,7.3c.594.93,2.036,2.276,3.089,2.276a.967.967,0,0,0,.534-.149,2.494,2.494,0,0,0,.713-2.138A5.1,5.1,0,0,0,13.4,4.867,2.228,2.228,0,0,0,11.51,3.833Z" transform="translate(24.528 7.547)" fill="#fe634f"/>
        <path id="Fill_12" data-name="Fill 12" d="M13.365,7.782a3.979,3.979,0,0,0,1.346-.705A3.382,3.382,0,0,0,15.7,5.758a4.482,4.482,0,0,0,.334-1.8,3.681,3.681,0,0,0-1.291-2.873A4.566,4.566,0,0,0,11.649,0,5,5,0,0,0,9.2.585a6.107,6.107,0,0,0-1.146.822l-.675.613L6.8,1.32A3.087,3.087,0,0,0,6.478.988,3.91,3.91,0,0,0,3.808,0,3.914,3.914,0,0,0,1.135.991,3.66,3.66,0,0,0,0,3.83V20.493A4.589,4.589,0,0,0,.81,23.17,3.686,3.686,0,0,0,4.1,24.528a3.7,3.7,0,0,0,3.294-1.361,4.614,4.614,0,0,0,.8-2.674V13.551c0-2.806.433-4.042.794-4.583A2.1,2.1,0,0,1,10.9,7.989h1.079a4.741,4.741,0,0,0,1.383-.206" transform="translate(134.962 8.491)" fill="#fe634f"/>
      </g>
    </g>
  </g>
</svg>
