<svg xmlns="http://www.w3.org/2000/svg" xmlns:xlink="http://www.w3.org/1999/xlink" width="108.629" height="108.642" viewBox="0 0 108.629 108.642"><defs><clipPath id="a"><path d="M0,0H10.5V3.5H0Z" transform="translate(0.013)" fill="none"/></clipPath></defs><g transform="translate(-0.013 0)"><g transform="translate(14.018 22.78)"><path d="M21.028,45.56H7.009A6.98,6.98,0,0,1,2.422,33.294a6.916,6.916,0,0,1,0-10.514,6.916,6.916,0,0,1,0-10.514A6.98,6.98,0,0,1,7.009,0H21.028a6.98,6.98,0,0,1,4.587,12.266,6.916,6.916,0,0,1,0,10.514,6.916,6.916,0,0,1,0,10.514A6.98,6.98,0,0,1,21.028,45.56ZM7.009,35.046a3.5,3.5,0,0,0,0,7.009H21.028a3.5,3.5,0,0,0,0-7.009Zm0-10.514a3.5,3.5,0,1,0,0,7.009H21.028a3.5,3.5,0,1,0,0-7.009Zm0-10.514a3.5,3.5,0,0,0,0,7.009H21.028a3.5,3.5,0,1,0,0-7.009Zm0-10.514a3.5,3.5,0,0,0,0,7.009H21.028a3.5,3.5,0,1,0,0-7.009Z" fill="#6b241b"/><path d="M7.754,0A7.763,7.763,0,0,0,0,7.754v.655a7.771,7.771,0,0,0,1.7,4.843A24.323,24.323,0,0,1,7.009,28.391v6.655h3.5V28.391A27.841,27.841,0,0,0,4.435,11.062,4.257,4.257,0,0,1,3.5,8.409V7.754A4.249,4.249,0,0,1,10.98,4.989a34.474,34.474,0,0,1,8.3,22.424V40.6a19.333,19.333,0,0,1-2.036,8.62l-4.973,9.95V75.348h3.5V59.991l4.6-9.208A22.889,22.889,0,0,0,22.78,40.6V27.413A37.991,37.991,0,0,0,13.64,2.707,7.744,7.744,0,0,0,7.754,0" transform="translate(59.578 10.514)" fill="#6b241b"/></g><g transform="translate(28.037)"><path d="M15.771,36.8h-3.5V22.78h-3.5A8.771,8.771,0,0,1,0,14.018V0H3.5V5.257H52.569V0h3.5V14.018a8.771,8.771,0,0,1-8.762,8.762H15.771V36.8ZM3.5,8.762v5.257a5.263,5.263,0,0,0,5.257,5.257H47.312a5.263,5.263,0,0,0,5.257-5.257V8.762Z" transform="translate(0 71.844)" fill="#6b241b"/><path d="M56.074,29.789h-3.5V14.018H3.5v5.257H0V8.762A8.771,8.771,0,0,1,8.762,0H47.312a8.771,8.771,0,0,1,8.762,8.762V29.788ZM8.762,3.5A5.263,5.263,0,0,0,3.5,8.762v1.752H52.569V8.762A5.263,5.263,0,0,0,47.312,3.5Z" fill="#6b241b"/></g><g transform="translate(3.505 10.514)"><path d="M0,0H17.523V3.5H0Z" transform="translate(43.807 73.596)" fill="#6b241b"/><path d="M0,0H3.5V3.5H0Z" transform="translate(87.614)" fill="#fed31c"/><path d="M0,0H3.5V3.5H0Z" transform="translate(87.614 7.009)" fill="#fed31c"/><path d="M0,0H3.5V3.5H0Z" transform="translate(91.119 3.505)" fill="#fed31c"/><path d="M0,0H3.5V3.5H0Z" transform="translate(84.11 3.505)" fill="#fed31c"/><path d="M0,0H3.5V3.5H0Z" transform="translate(0 70.092)" fill="#fed31c"/><path d="M0,0H3.5V3.5H0Z" transform="translate(0 77.101)" fill="#fed31c"/></g><g transform="translate(0 84.11)"><path d="M0,0H10.5V3.5H0Z" transform="translate(0.013)" fill="none"/><g clip-path="url(#a)"><path d="M0,0H3.5V3.5H0Z" transform="translate(7.009)" fill="#fed31c"/><path d="M0,0H3.491V3.5H0Z" transform="translate(0.013)" fill="#fed31c"/></g></g><g transform="translate(3.505 3.505)"><path d="M0,0H3.5V3.5H0Z" transform="translate(98.128 24.532)" fill="#fed31c"/><path d="M0,0H3.5V3.5H0Z" transform="translate(98.128 31.541)" fill="#fed31c"/><path d="M0,0H3.5V3.5H0Z" transform="translate(101.633 28.037)" fill="#fed31c"/><path d="M0,0H3.5V3.5H0Z" transform="translate(94.624 28.037)" fill="#fed31c"/><path d="M0,0H3.5V3.5H0Z" transform="translate(14.018)" fill="#fed31c"/><path d="M0,0H3.5V3.5H0Z" transform="translate(14.018 7.009)" fill="#fed31c"/><path d="M0,0H3.5V3.5H0Z" transform="translate(17.523 3.505)" fill="#fed31c"/><path d="M0,0H3.5V3.5H0Z" transform="translate(10.514 3.505)" fill="#fed31c"/><path d="M0,0H3.5V3.5H0Z" transform="translate(0 12.266)" fill="#fed31c"/><path d="M0,0H3.5V3.5H0Z" transform="translate(0 19.275)" fill="#fed31c"/></g><g transform="translate(0 19.275)"><path d="M0,0H10.5V3.5H0Z" transform="translate(0.013)" fill="none"/><g clip-path="url(#a)"><path d="M0,0H3.5V3.5H0Z" transform="translate(7.009)" fill="#fed31c"/><path d="M0,0H3.491V3.5H0Z" transform="translate(0.013)" fill="#fed31c"/></g></g><rect width="24.444" height="6.79" transform="translate(46.173 23.086)" fill="#6b241b" opacity="0.2"/><rect width="24.444" height="6.79" transform="translate(46.173 36.667)" fill="#6b241b" opacity="0.2"/><rect width="26.231" height="7.495" transform="translate(45.692 49.923)" fill="#fe634f" stroke="#fe634f" stroke-miterlimit="10" stroke-width="1"/><rect width="24.444" height="6.79" transform="translate(46.173 63.827)" fill="#6b241b" opacity="0.2"/></g></svg>