<svg xmlns="http://www.w3.org/2000/svg" width="109.975" height="109.987" viewBox="0 0 109.975 109.987"><g transform="translate(-0.024 -0.534)"><path d="M0,0H3.385V8.462H0Z" transform="translate(53.308 101.226)" fill="#ffd41c"/><path d="M0,0H3.567V7.084H0Z" transform="translate(60.252 95.615)" fill="#ffd41c"/><path d="M0,0H3.567V7.084H0Z" transform="translate(45.982 95.615)" fill="#ffd41c"/><path d="M63.584,92.3H46.39L44.617,81.677H42.786L19.512,87.485V75.633l16.033-16a136.572,136.572,0,0,1-1.813-20.44H10.643A10.614,10.614,0,0,1,8.99,18.09a12.391,12.391,0,0,1,20.647-7.515,12.335,12.335,0,0,1,12.683.587A40.922,40.922,0,0,1,54.139.463L54.988,0l.848.463a42.536,42.536,0,0,1,17.72,21.432,15.962,15.962,0,0,1,23.9,11.992h.011l.041,0,.052,0a12.392,12.392,0,1,1,0,24.783H74.594c-.029.19-.062.377-.093.558l0,.009c-.023.133-.046.266-.068.4l16.034,16V87.485L67.188,81.677H65.357L63.584,92.3ZM48.213,81.677l1.18,7.081H60.582l1.183-7.081H48.213Zm22.809-7.01c-.545,1.844-.994,3.193-1.275,4l17.17,4.282V77.1L73.658,63.871c-.512,2.574-1.081,5.059-1.688,7.385l6.506,1.624-.859,3.432Zm-34.706-10.8L23.06,77.1v5.849l17.167-4.284c-.288-.826-.742-2.192-1.276-4l-6.594,1.645L31.5,72.878,38,71.255C37.393,68.915,36.825,66.43,36.316,63.869Zm3.377-40.564A40.876,40.876,0,0,0,37.25,37.421a127.633,127.633,0,0,0,6.558,40.715h22.36a127.761,127.761,0,0,0,6.557-40.715A40.378,40.378,0,0,0,70.248,23.33a24.722,24.722,0,0,1-7.165,3.892,24.97,24.97,0,0,1-16.21-.006,24.713,24.713,0,0,1-7.18-3.91Zm41.9-.046a12.377,12.377,0,0,0-6.916,2.113,45.318,45.318,0,0,1,1.594,12.048,136.294,136.294,0,0,1-1.168,17.7H97.559a8.852,8.852,0,1,0-8.87-8.851H85.142a12.247,12.247,0,0,1,2.495-7.44,12.548,12.548,0,0,1,6.313-4.414A12.427,12.427,0,0,0,81.595,23.26ZM10.643,21.488a7.081,7.081,0,1,0,0,14.162h23.1A42.562,42.562,0,0,1,40.3,14.075,9,9,0,0,0,35.47,12.7a9.161,9.161,0,0,0-3.521.7A12.313,12.313,0,0,1,33.7,19.719H30.154a8.859,8.859,0,0,0-14.57-6.765,8.889,8.889,0,0,0-3.006,5.178A10.637,10.637,0,0,1,21.286,28.57H17.739a7.1,7.1,0,0,0-7.1-7.082Zm44.336-17.4a36.749,36.749,0,0,0-6.172,5.028,39.5,39.5,0,0,0-7.663,10.78A21.292,21.292,0,0,0,47.59,23.7a21.269,21.269,0,0,0,14.768.01,21.276,21.276,0,0,0,6.429-3.782A40.3,40.3,0,0,0,61.111,9.14a37.611,37.611,0,0,0-6.131-5.056Z" transform="translate(0.024 0.534)" fill="#6b241b"/><path d="M.168,0A.166.166,0,0,0,0,.164v0A.166.166,0,0,0,.166.336h0A.166.166,0,0,0,.336.174V.164A.166.166,0,0,0,.168,0" transform="translate(60.832 56.832)" fill="#fe634f"/><path d="M11.945,26.678a2.594,2.594,0,0,1-.584-.067c-4.116-.954-7.227-4.031-7.565-7.483-.18-2-.38-4.185-.594-6.5A6.719,6.719,0,0,1,0,7.092C0,3.152,4.229.23,4.409.108a.627.627,0,0,1,.7,0C5.276.218,9.1,2.855,9.49,6.5a35.519,35.519,0,0,1,8.771,0c.389-3.643,4.215-6.28,4.378-6.39a.627.627,0,0,1,.7,0c.18.122,4.409,3.044,4.409,6.984a6.718,6.718,0,0,1-3.2,5.538c-.205,2.22-.405,4.405-.594,6.493a8,8,0,0,1-3.278,5.483,11.217,11.217,0,0,1-4.288,2,2.591,2.591,0,0,1-.583.067,2.533,2.533,0,0,1-1.583-.551,2.584,2.584,0,0,1-.348-.329,2.582,2.582,0,0,1-1.931.881ZM4.761,1.393h0C1.59,3.882,1.247,6.208,1.247,7.092c0,1.649,1.182,3.941,2.764,4.541a.624.624,0,0,1,.4.522c.24,2.594.445,4.837.627,6.857.286,2.928,3,5.556,6.607,6.392a1.316,1.316,0,0,0,.3.034,1.312,1.312,0,0,0,1.31-1.308V22.395c-1.5-.242-2.552-1.189-2.552-2.3,0-1.325,1.452-2.362,3.307-2.362s3.307,1.038,3.307,2.362c0,1.187-1.184,2.17-2.815,2.337v1.7a1.3,1.3,0,0,0,.5,1.025,1.3,1.3,0,0,0,1.108.248,9.942,9.942,0,0,0,3.807-1.777,6.773,6.773,0,0,0,2.8-4.619c.188-2.08.393-4.322.627-6.853a.624.624,0,0,1,.4-.522c1.582-.6,2.764-2.893,2.764-4.541,0-.886-.342-3.216-3.513-5.7-3.172,2.489-3.514,4.815-3.514,5.7,0,.031,0,.063,0,.095a.615.615,0,0,1-.209.479.63.63,0,0,1-.5.149,34.315,34.315,0,0,0-9.779,0,.63.63,0,0,1-.5-.149.615.615,0,0,1-.209-.479c0-.031,0-.063,0-.095,0-.883-.342-3.207-3.514-5.7Zm9.247,17.575c-1.214,0-2.059.592-2.059,1.124s.846,1.124,2.059,1.124,2.059-.592,2.059-1.124S15.221,18.968,14.008,18.968Z" transform="translate(41 37.03)" fill="#fe634f" stroke="#fe634f" stroke-miterlimit="10" stroke-width="1"/><path d="M.5,0A.5.5,0,1,1,0,.5.5.5,0,0,1,.5,0" transform="translate(50 52)" fill="#fe634f" stroke="#fe634f" stroke-miterlimit="10" stroke-width="2"/><path d="M.5,0A.5.5,0,1,1,0,.5.5.5,0,0,1,.5,0" transform="translate(58 52)" fill="#fe634f" stroke="#fe634f" stroke-miterlimit="10" stroke-width="2"/><path d="M.222.1A.493.493,0,0,0,.076.773a.484.484,0,0,0,.672.15Q.776.9.806.882A.493.493,0,0,0,.9.2.484.484,0,0,0,.222.1" transform="translate(63 45)" fill="#fe634f" stroke="#fe634f" stroke-miterlimit="10" stroke-width="2"/><path d="M1.363.267A.869.869,0,0,0,.34.093.513.513,0,0,0,.118.9a2.689,2.689,0,0,1,.434.693A.743.743,0,0,0,1.259,2a.928.928,0,0,0,.218-.026c.391-.094.61-.42.49-.727a3.743,3.743,0,0,0-.6-.981" transform="translate(63 42)" fill="#fe634f" stroke="#fe634f" stroke-miterlimit="10" stroke-width="2"/><path d="M1.732,2.973a2.076,2.076,0,0,1-.558-1.14,2.01,2.01,0,0,1,.4-.972A.543.543,0,0,0,1.4.089.606.606,0,0,0,.591.257,2.92,2.92,0,0,0,0,1.833,2.989,2.989,0,0,0,1.1,3.912.606.606,0,0,0,1.412,4a.6.6,0,0,0,.5-.258.543.543,0,0,0-.176-.769" transform="translate(45 42)" fill="#fe634f" stroke="#fe634f" stroke-miterlimit="10" stroke-width="2"/><path d="M0,0H3.547V3.527H0Z" transform="translate(46.143 106.994)" fill="#ffd41c"/><path d="M0,0H3.547V3.527H0Z" transform="translate(60.334 106.994)" fill="#ffd41c"/></g></svg>