<svg xmlns="http://www.w3.org/2000/svg" xmlns:xlink="http://www.w3.org/1999/xlink" width="108" height="108" viewBox="0 0 108 108"><defs><clipPath id="a"><path d="M0,0H35.68V34.582H0Z" transform="translate(0 0.039)" fill="none"/></clipPath></defs><g transform="translate(0)"><g transform="translate(17 7)"><path d="M0,0H3.488V3.475H0Z" transform="translate(13.951)" fill="#fe634f"/><path d="M0,0H3.488V3.475H0Z" transform="translate(27.902)" fill="#fe634f"/><path d="M0,0H45.34V3.475H0Z" transform="translate(0 69.493)" fill="#6b241b"/><path d="M0,0H3.488V3.475H0Z" transform="translate(41.852 83.392)" fill="#6b241b"/><path d="M0,0H38.365V3.475H0Z" transform="translate(0 83.392)" fill="#6b241b"/><path d="M0,0H20.926V3.475H0Z" transform="translate(0 76.442)" fill="#6b241b"/><path d="M0,0H20.926V3.475H0Z" transform="translate(24.414 76.442)" fill="#6b241b"/><path d="M0,26.383l1.829,2.959A33.206,33.206,0,0,0,17.6,1.227V0H14.109V1.227A29.714,29.714,0,0,1,0,26.383Z" transform="translate(66.108 39.959)" fill="#6b241b"/><path d="M0,0H3.488V3.475H0Z" transform="translate(80.217 33.009)" fill="#6b241b"/></g><path d="M15.677,20.9H5.225V15.677H0V5.225H5.225V0H15.677V5.225H20.9V15.677H15.677V20.9ZM3.484,8.709v3.484H8.709V17.42h3.484V12.193H17.42V8.709H12.193V3.484H8.709V8.709Z" transform="translate(73.161 40.065)" fill="#6b241b"/><path d="M80.129,108H0V6.968H20.9V3.484A3.488,3.488,0,0,1,24.387,0H55.742a3.488,3.488,0,0,1,3.484,3.484V6.968h20.9V23.985l3.51-1.5L108,33.724V48.263a40.322,40.322,0,0,1-19.066,34.12l-5.322,3.274-3.484-2.144V108ZM3.484,10.452v94.064H76.645V81.294a40.057,40.057,0,0,1-3.484-2.7v22.438H6.968v-87.1H20.9V10.452Zm6.968,6.968h0V97.548H69.677V75.186a40.539,40.539,0,0,1-7.7-12.444,39.561,39.561,0,0,1-2.753-14.48V33.724l6.238-2.877,1.46,3.161-4.214,1.947V48.263a36.826,36.826,0,0,0,17.41,31.154l3.494,2.15,3.495-2.15a36.821,36.821,0,0,0,17.409-31.154V35.954L83.587,26.3l-13.91,5.961V17.42H55.742V3.484H24.387V13.936H52.258V17.42H10.452Zm48.774-6.968v3.484H73.161V26.97l3.484-1.493V10.452Z" fill="#6b241b"/><g transform="translate(16.766 34.185)"><path d="M.218,0A.215.215,0,0,0,0,.213V.219A.215.215,0,0,0,.215.435h0A.216.216,0,0,0,.435.225V.213A.215.215,0,0,0,.218,0" transform="translate(25.04 25.694)" fill="#fe634f"/><path d="M0,0H35.68V34.582H0Z" transform="translate(0 0.039)" fill="none"/><g clip-path="url(#a)"><path d="M20.323,34.582a3.246,3.246,0,0,1-2.036-.714,3.376,3.376,0,0,1-.447-.428,3.317,3.317,0,0,1-.446.428,3.245,3.245,0,0,1-2.036.714,3.29,3.29,0,0,1-.751-.086C9.314,33.258,5.314,29.27,4.88,24.8c-.249-2.78-.506-5.614-.764-8.423a7.405,7.405,0,0,1-2.988-3.1A8.869,8.869,0,0,1,0,9.194C0,4.081,5.437.3,5.668.14a.8.8,0,0,1,.905,0C6.783.284,11.7,3.7,12.2,8.423a45.356,45.356,0,0,1,11.278,0C23.978,3.7,28.9.284,29.107.14a.8.8,0,0,1,.9,0c.231.159,5.669,3.941,5.669,9.053a8.868,8.868,0,0,1-1.127,4.078,7.4,7.4,0,0,1-2.989,3.1c-.254,2.767-.511,5.6-.763,8.417A10.382,10.382,0,0,1,26.586,31.9a14.358,14.358,0,0,1-5.513,2.6A3.311,3.311,0,0,1,20.323,34.582ZM6.121,1.806A15.934,15.934,0,0,0,3.4,4.557,7.763,7.763,0,0,0,1.6,9.194c0,2.137,1.52,5.109,3.554,5.887a.807.807,0,0,1,.512.676c.3,3.321.568,6.229.806,8.889.369,3.8,3.862,7.2,8.5,8.286a1.689,1.689,0,0,0,.383.044,1.662,1.662,0,0,0,1.042-.366,1.69,1.69,0,0,0,.642-1.33V29.03c-1.931-.313-3.28-1.54-3.28-2.983,0-1.717,1.867-3.062,4.251-3.062s4.252,1.345,4.252,3.062c0,1.539-1.522,2.813-3.619,3.029v2.2a1.689,1.689,0,0,0,.642,1.329,1.664,1.664,0,0,0,1.043.366,1.685,1.685,0,0,0,.382-.044,12.754,12.754,0,0,0,4.894-2.3,8.8,8.8,0,0,0,3.6-5.989c.244-2.721.515-5.71.806-8.883a.807.807,0,0,1,.512-.676c2.034-.779,3.554-3.75,3.554-5.887a7.764,7.764,0,0,0-1.8-4.642A15.8,15.8,0,0,0,29.56,1.806a15.876,15.876,0,0,0-2.718,2.75,7.763,7.763,0,0,0-1.8,4.637c0,.04,0,.079,0,.12a.8.8,0,0,1-.916.817,43.8,43.8,0,0,0-12.574,0,.8.8,0,0,1-.916-.814c0-.043,0-.083,0-.122a7.762,7.762,0,0,0-1.8-4.636A15.913,15.913,0,0,0,6.121,1.806ZM18.009,24.589c-1.56,0-2.647.768-2.647,1.457S16.449,27.5,18.009,27.5s2.648-.767,2.648-1.456S19.569,24.589,18.009,24.589Z" transform="translate(0 0.039)" fill="#fe634f" stroke="#fe634f" stroke-miterlimit="10" stroke-width="1"/></g><path d="M.762,0A.762.762,0,1,1,0,.762.762.762,0,0,1,.762,0" transform="translate(11.976 18.944)" fill="#fe634f" stroke="#fe634f" stroke-miterlimit="10" stroke-width="2"/><path d="M.762,0A.762.762,0,1,1,0,.762.762.762,0,0,1,.762,0" transform="translate(22.21 18.944)" fill="#fe634f" stroke="#fe634f" stroke-miterlimit="10" stroke-width="2"/><path d="M.338.149A.751.751,0,0,0,.116,1.178a.737.737,0,0,0,1.024.229q.043-.028.089-.062A.752.752,0,0,0,1.375.3.738.738,0,0,0,.338.149" transform="translate(28.306 10.887)" fill="#fe634f" stroke="#fe634f" stroke-miterlimit="10" stroke-width="2"/><path d="M1.483.378A.8.8,0,0,0,.37.131.834.834,0,0,0,.128,1.269a4.124,4.124,0,0,1,.473.98.808.808,0,0,0,.77.581.79.79,0,0,0,.237-.036.826.826,0,0,0,.533-1.029A5.762,5.762,0,0,0,1.483.378" transform="translate(28.742 6.532)" fill="#fe634f" stroke="#fe634f" stroke-miterlimit="10" stroke-width="2"/><path d="M2.263,4.207a3.036,3.036,0,0,1-.729-1.613,2.982,2.982,0,0,1,.529-1.376A.805.805,0,0,0,1.833.126.754.754,0,0,0,.772.363,4.351,4.351,0,0,0,0,2.594,4.342,4.342,0,0,0,1.433,5.537a.747.747,0,0,0,.412.124A.761.761,0,0,0,2.493,5.3a.805.805,0,0,0-.229-1.088" transform="translate(4.573 6.532)" fill="#fe634f" stroke="#fe634f" stroke-miterlimit="10" stroke-width="2"/></g></g></svg>