<svg xmlns="http://www.w3.org/2000/svg" width="109" height="84" viewBox="0 0 109 84"><path d="M87.2,62H0V58.353H27.452a12.814,12.814,0,0,1-3.69-7.295H19.984a5.467,5.467,0,0,1-5.45-5.47V29.176h3.633V45.589a1.822,1.822,0,0,0,1.817,1.823h3.778a12.695,12.695,0,0,1,25.142,0H74.629a12.7,12.7,0,0,1,25.142,0h3.779a1.822,1.822,0,0,0,1.816-1.823V31H78.116a3.644,3.644,0,0,1-3.633-3.647V10.941a3.644,3.644,0,0,1,3.633-3.647h8.331l-3.1-3.113a1.823,1.823,0,0,0-1.286-.535H63.583V31H59.95V3.647H50.867V0h31.21a5.366,5.366,0,0,1,3.839,1.6l22.552,22.638A1.838,1.838,0,0,1,109,25.529V45.589a5.466,5.466,0,0,1-5.449,5.47H99.771A12.743,12.743,0,0,1,87.2,62Zm0-21.883a9.118,9.118,0,0,0,0,18.236,9.11,9.11,0,0,0,9.083-9.118A9.111,9.111,0,0,0,87.2,40.117ZM48.9,51.059a12.806,12.806,0,0,1-3.689,7.295h33.1a12.814,12.814,0,0,1-3.689-7.295H48.9ZM36.333,40.117A9.121,9.121,0,0,0,29.914,55.68a9.018,9.018,0,0,0,6.419,2.674,9.118,9.118,0,0,0,0-18.236ZM78.116,10.941V27.353h27.25V26.285L90.081,10.941Z" transform="translate(0 22)" fill="#6b241b"/><path d="M0,0H4V4H0Z" transform="translate(34 69)" fill="#6b241b"/><path d="M0,0H4V4H0Z" transform="translate(85 69)" fill="#6b241b"/><path d="M0,0H9V4H0Z" transform="translate(0 64)" fill="#ffd41c"/><path d="M0,0H5V4H0Z" transform="translate(4 57)" fill="#ffd41c"/><path d="M0,0H4V4H0Z" transform="translate(5 49)" fill="#ffd41c"/><path d="M23.5,47A23.506,23.506,0,0,1,14.353,1.847,23.506,23.506,0,0,1,32.647,45.153,23.353,23.353,0,0,1,23.5,47Zm0-43.385a19.822,19.822,0,1,0,7.74,1.563A19.785,19.785,0,0,0,23.5,3.615Z" transform="translate(0 0)" fill="#fe634f"/><path d="M13,33a1.878,1.878,0,0,1-1.312-.537C10.491,31.283,0,20.706,0,12.833A12.667,12.667,0,0,1,3.807,3.759a13.12,13.12,0,0,1,18.385,0A12.667,12.667,0,0,1,26,12.833c0,7.865-10.491,18.449-11.687,19.63A1.857,1.857,0,0,1,13,33ZM13,3.667A9.3,9.3,0,0,0,6.437,6.355a9.06,9.06,0,0,0-2.723,6.478c0,2.077,1.128,4.84,3.352,8.214A60.463,60.463,0,0,0,13,28.509a60.348,60.348,0,0,0,5.934-7.462c2.225-3.373,3.353-6.137,3.353-8.214a9.06,9.06,0,0,0-2.723-6.478A9.3,9.3,0,0,0,13,3.667Z" transform="translate(11 7)" fill="#fe634f"/><path d="M5.5,11A5.5,5.5,0,1,1,11,5.5,5.506,5.506,0,0,1,5.5,11Zm0-7.333A1.833,1.833,0,1,0,7.333,5.5,1.835,1.835,0,0,0,5.5,3.667Z" transform="translate(18 15)" fill="#fe634f"/><path d="M0,0H7V4H0Z" transform="translate(69 57)" fill="#6b241b"/></svg>