<svg xmlns="http://www.w3.org/2000/svg" xmlns:xlink="http://www.w3.org/1999/xlink" width="109.986" height="109.923" viewBox="0 0 109.986 109.923"><defs><clipPath id="a"><path d="M0,0H10.986V3.765H0Z" transform="translate(0.014 0.081)" fill="none"/></clipPath></defs><g transform="translate(-0.014 -0.466)"><g transform="translate(1 4.389)"><path d="M1.963,42.191h0L0,39.245l11.066-7.379H46.45a12.314,12.314,0,0,0,8.761-3.629L72.242,11.2a4.491,4.491,0,0,0-3.176-7.664h-.557a4.474,4.474,0,0,0-2.64.859L47.579,17.7H25.763V14.162h6.505L49.629,1.536A7.97,7.97,0,0,1,54.35,0h.557A8.073,8.073,0,0,1,61.37,3.3l2.419-1.76A7.97,7.97,0,0,1,68.511,0h.557a8.031,8.031,0,0,1,5.676,13.708L57.713,30.74A15.819,15.819,0,0,1,46.45,35.407H12.139L1.964,42.191ZM54.348,3.541a4.474,4.474,0,0,0-2.64.859L38.287,14.162h8.142L58.486,5.391a4.5,4.5,0,0,0-3.581-1.85Z" transform="translate(24.905 63.809)" fill="#6b241b"/><path d="M45.179,7.967a4.431,4.431,0,0,1-4.425,4.426H27.478v3.541H40.754A7.967,7.967,0,0,0,40.754,0H23.437L0,14.425,1.857,17.44l22.582-13.9H40.754a4.431,4.431,0,0,1,4.425,4.426" transform="translate(0.179 69.12)" fill="#6b241b"/><path d="M8.85,10.622h7.08a5.317,5.317,0,0,1,5.31,5.311h3.54a8.861,8.861,0,0,0-8.85-8.852h-1.77V0H10.62V7.081H8.85a8.852,8.852,0,0,0,0,17.7h7.08a5.311,5.311,0,0,1,0,10.622H8.85A5.317,5.317,0,0,1,3.54,30.1H0a8.861,8.861,0,0,0,8.85,8.852h1.77v7.081h3.54V38.948h1.77a8.852,8.852,0,0,0,0-17.7H8.85a5.311,5.311,0,0,1,0-10.622" transform="translate(41.818 7.158)" fill="#fe634f"/><path d="M0,0H3.54V3.541H0Z" transform="translate(15.267 51.416)" fill="#ffd41c"/><path d="M0,0H3.54V3.541H0Z" transform="translate(15.267 58.498)" fill="#ffd41c"/><path d="M0,0H3.54V3.541H0Z" transform="translate(18.807 54.957)" fill="#ffd41c"/><path d="M0,0H3.54V3.541H0Z" transform="translate(11.727 54.957)" fill="#ffd41c"/><path d="M0,0H3.54V3.541H0Z" transform="translate(2.876 0.076)" fill="#ffd41c"/><path d="M0,0H3.54V3.541H0Z" transform="translate(2.876 7.158)" fill="#ffd41c"/></g><g transform="translate(0 8.389)"><path d="M0,0H10.986V3.765H0Z" transform="translate(0.014 0.081)" fill="none"/><g clip-path="url(#a)"><path d="M0,0H3.667V3.765H0Z" transform="translate(7.333 0.081)" fill="#ffd41c"/><path d="M0,0H3.653V3.765H0Z" transform="translate(0.014 0.081)" fill="#ffd41c"/></g></g><g transform="translate(21 0.389)"><path d="M0,0H3.56V3.567H0Z" transform="translate(81.88 26.831)" fill="#ffd41c"/><path d="M0,0H3.56V3.567H0Z" transform="translate(81.88 33.965)" fill="#ffd41c"/><path d="M0,0H3.56V3.567H0Z" transform="translate(85.44 30.398)" fill="#ffd41c"/><path d="M0,0H3.56V3.567H0Z" transform="translate(78.32 30.398)" fill="#ffd41c"/><path d="M33.82,67.777a33.721,33.721,0,0,0,22.547-8.629L53.993,56.49a30.315,30.315,0,1,1,3.364-3.542l2.768,2.244a33.808,33.808,0,1,0-26.3,12.585" transform="translate(0 0.077)" fill="#fe634f"/></g></g></svg>